<?xml version="1.0" encoding="UTF-8" standalone="no"?>
<!-- Created with Inkscape (http://www.inkscape.org/) -->

<svg
   version="1.1"
   id="svg1"
   width="548"
   height="362.66666"
   viewBox="0 0 548 362.66666"
   sodipodi:docname="Sol5-3.svg"
   inkscape:version="1.4 (86a8ad7, 2024-10-11)"
   inkscape:export-filename="Sol5-3.pdf"
   inkscape:export-xdpi="96"
   inkscape:export-ydpi="96"
   xmlns:inkscape="http://www.inkscape.org/namespaces/inkscape"
   xmlns:sodipodi="http://sodipodi.sourceforge.net/DTD/sodipodi-0.dtd"
   xmlns="http://www.w3.org/2000/svg"
   xmlns:svg="http://www.w3.org/2000/svg"
   xmlns:rdf="http://www.w3.org/1999/02/22-rdf-syntax-ns#"
   xmlns:cc="http://creativecommons.org/ns#">
  <defs
     id="defs1" />
  <sodipodi:namedview
     id="namedview1"
     pagecolor="#ffffff"
     bordercolor="#000000"
     borderopacity="0.25"
     inkscape:showpageshadow="2"
     inkscape:pageopacity="0.0"
     inkscape:pagecheckerboard="0"
     inkscape:deskcolor="#d1d1d1"
     inkscape:zoom="2.8284271"
     inkscape:cx="116.67262"
     inkscape:cy="76.367532"
     inkscape:window-width="1920"
     inkscape:window-height="1057"
     inkscape:window-x="-8"
     inkscape:window-y="-8"
     inkscape:window-maximized="1"
     inkscape:current-layer="g1"
     showgrid="true">
    <inkscape:page
       x="0"
       y="0"
       inkscape:label="1"
       id="page1"
       width="548"
       height="362.66666"
       margin="0"
       bleed="0" />
    <inkscape:grid
       id="grid48"
       units="px"
       originx="0"
       originy="1.733"
       spacingx="1"
       spacingy="1"
       empcolor="#005a87"
       empopacity="0.45882353"
       color="#0099e5"
       opacity="0.14901961"
       empspacing="6"
       enabled="true"
       visible="true"
       dotted="false" />
    <inkscape:grid
       type="modular"
       id="grid49"
       units="px"
       originx="24"
       originy="1.733"
       spacingx="48"
       spacingy="24"
       empcolor="#006e00"
       empopacity="0.55686275"
       color="#0099e5"
       opacity="0.14901961"
       empspacing="0"
       marginx="0"
       marginy="0"
       gapx="0"
       gapy="0"
       enabled="true"
       visible="true" />
  </sodipodi:namedview>
  <g
     id="g1"
     inkscape:groupmode="layer"
     inkscape:label="1">
    <path
       id="path1"
       d="M 3.5625,0.059375 C 3.8349609,0.51933594 4.1279297,0.85917969 4.4414062,1.0789063 4.7519531,1.2957031 5.109375,1.4246094 5.5078125,1.465625 V 1.5828125 C 5.1386719,1.5740234 4.7490234,1.5037109 4.3359375,1.371875 3.9199219,1.2371094 3.5273438,1.0496094 3.1523438,0.809375 2.7832031,0.575 2.4667969,0.32304688 2.203125,0.059375 1.8193359,-0.09589844 1.5175781,-0.25703125 1.3007812,-0.42109375 0.97851563,-0.67890625 0.72949219,-0.9953125 0.55078125,-1.3703125 0.36914063,-1.7453125 0.28125,-2.1847656 0.28125,-2.6945312 c 0,-0.796875 0.2578125,-1.4589844 0.7734375,-1.9921875 0.5214844,-0.5302735 1.1542969,-0.796875 1.8984375,-0.796875 0.6943359,0 1.3007812,0.2666015 1.8164062,0.796875 0.515625,0.5332031 0.7734375,1.2041015 0.7734375,2.015625 0,0.65625 -0.1845703,1.2304687 -0.5507812,1.7226562 C 4.6230469,-0.45625 4.1484375,-0.11933594 3.5625,0.059375 Z M 2.90625,-5.1789062 c -0.4863281,0 -0.8730469,0.1728515 -1.1601563,0.515625 -0.3691406,0.430664 -0.5507812,1.086914 -0.5507812,1.96875 0,0.8671875 0.1816406,1.5351562 0.5507812,2.0039062 0.2958985,0.36914063 0.6826172,0.55078125 1.1601563,0.55078125 0.4921875,0 0.890625,-0.18164062 1.1953125,-0.55078125 0.3515625,-0.421875 0.5273437,-1.0488281 0.5273437,-1.8867187 0,-0.6386719 -0.099609,-1.1777344 -0.2929687,-1.6171875 C 4.1865234,-4.5285156 3.9873047,-4.7746094 3.7382813,-4.9328125 3.4863281,-5.096875 3.2109375,-5.1789062 2.90625,-5.1789062 Z m 9.808594,8.6484375 -0.375,1.03125 H 9.1757813 v -0.140625 c 0.9287107,-0.8496094 1.5820317,-1.546875 1.9570317,-2.0859375 0.380859,-0.5390625 0.574218,-1.03125 0.574218,-1.47656255 0,-0.33398437 -0.105468,-0.61230469 -0.316406,-0.83203125 -0.205078,-0.21679687 -0.451172,-0.328125 -0.738281,-0.328125 -0.266602,0 -0.503906,0.0791016 -0.714844,0.234375 C 9.7265625,0.02128906 9.5683594,0.24394531 9.46875,0.53984375 H 9.328125 C 9.3896484,0.05644531 9.5566406,-0.315625 9.8320313,-0.5734375 10.104492,-0.83710937 10.447266,-0.971875 10.863281,-0.971875 c 0.427735,0 0.788086,0.140625 1.078125,0.421875 0.295899,0.28125 0.445313,0.609375 0.445313,0.984375 0,0.27539063 -0.06445,0.54785156 -0.1875,0.8203125 C 12.00293,1.6765625 11.686523,2.1277344 11.25,2.6023438 10.59375,3.3230469 10.183594,3.7566406 10.019531,3.903125 h 1.394532 c 0.287109,0 0.486328,-0.00586 0.597656,-0.023437 0.117187,-0.023437 0.222656,-0.064453 0.316406,-0.1289062 0.09375,-0.070312 0.169922,-0.1640625 0.234375,-0.28125 z M 9.9492188,-36.339062 11.25,-36.971875 h 0.128906 v 4.523438 c 0,0.304687 0.01172,0.498046 0.03516,0.574218 0.0293,0.07031 0.08496,0.125977 0.164062,0.164063 0.07617,0.04102 0.237305,0.06445 0.480469,0.07031 v 0.140625 h -2.015625 v -0.140625 c 0.249023,-0.0059 0.410156,-0.0293 0.480469,-0.07031 0.07617,-0.03809 0.131835,-0.08789 0.164062,-0.152344 0.0293,-0.06152 0.04687,-0.257812 0.04687,-0.585937 v -2.894532 c 0,-0.389648 -0.01758,-0.638672 -0.04687,-0.75 -0.01758,-0.08496 -0.04687,-0.146484 -0.09375,-0.1875 -0.04687,-0.03809 -0.105469,-0.05859 -0.175781,-0.05859 -0.102539,0 -0.240235,0.04395 -0.410156,0.128906 z M 3.5625,-35.940625 c 0.2724609,0.459961 0.5654297,0.799805 0.8789062,1.019531 0.3105469,0.216797 0.6679688,0.345703 1.0664063,0.386719 v 0.117188 c -0.3691406,-0.0088 -0.7587891,-0.0791 -1.171875,-0.210938 -0.4160156,-0.134766 -0.8085937,-0.322266 -1.1835937,-0.5625 -0.3691407,-0.234375 -0.6855469,-0.486328 -0.9492188,-0.75 -0.3837891,-0.155273 -0.6855469,-0.316406 -0.9023438,-0.480469 -0.32226557,-0.257812 -0.57128901,-0.574218 -0.74999995,-0.949218 -0.18164062,-0.375 -0.26953125,-0.814454 -0.26953125,-1.324219 0,-0.796875 0.2578125,-1.458985 0.7734375,-1.992188 0.5214844,-0.530273 1.1542969,-0.796875 1.8984375,-0.796875 0.6943359,0 1.3007812,0.266602 1.8164062,0.796875 0.515625,0.533203 0.7734375,1.204102 0.7734375,2.015625 0,0.65625 -0.1845703,1.230469 -0.5507812,1.722657 -0.3691406,0.492187 -0.84375,0.829101 -1.4296875,1.007812 z m -0.65625,-5.238281 c -0.4863281,0 -0.8730469,0.172851 -1.1601563,0.515625 -0.3691406,0.430664 -0.5507812,1.086914 -0.5507812,1.96875 0,0.867187 0.1816406,1.535156 0.5507812,2.003906 0.2958985,0.369141 0.6826172,0.550781 1.1601563,0.550781 0.4921875,0 0.890625,-0.18164 1.1953125,-0.550781 0.3515625,-0.421875 0.5273437,-1.048828 0.5273437,-1.886719 0,-0.638672 -0.099609,-1.177734 -0.2929687,-1.617187 -0.1494141,-0.333985 -0.3486328,-0.580078 -0.5976562,-0.738281 -0.2519532,-0.164063 -0.5273438,-0.246094 -0.8320313,-0.246094 z m 218.54297,-184.160154 1.30078,-0.63281 h 0.12891 v 4.52343 c 0,0.30469 0.0117,0.49805 0.0352,0.57422 0.0293,0.0703 0.085,0.12598 0.16406,0.16406 0.0762,0.041 0.23731,0.0645 0.48047,0.0703 v 0.14062 h -2.01562 v -0.14062 c 0.24902,-0.006 0.41015,-0.0293 0.48047,-0.0703 0.0762,-0.0381 0.13183,-0.0879 0.16406,-0.15234 0.0293,-0.0615 0.0469,-0.25781 0.0469,-0.58594 v -2.89453 c 0,-0.38965 -0.0176,-0.63867 -0.0469,-0.75 -0.0176,-0.085 -0.0469,-0.14648 -0.0937,-0.1875 -0.0469,-0.0381 -0.10547,-0.0586 -0.17578,-0.0586 -0.10254,0 -0.24024,0.0439 -0.41016,0.1289 z m -6.38672,0.39844 c 0.27246,0.45996 0.56543,0.7998 0.87891,1.01953 0.31054,0.21679 0.66796,0.3457 1.0664,0.38672 v 0.11718 c -0.36914,-0.009 -0.75879,-0.0791 -1.17187,-0.21093 -0.41602,-0.13477 -0.8086,-0.32227 -1.1836,-0.5625 -0.36914,-0.23438 -0.68554,-0.48633 -0.94922,-0.75 -0.38378,-0.15528 -0.68554,-0.31641 -0.90234,-0.48047 -0.32226,-0.25782 -0.57129,-0.57422 -0.75,-0.94922 -0.18164,-0.375 -0.26953,-0.81446 -0.26953,-1.32422 0,-0.79688 0.25781,-1.45899 0.77344,-1.99219 0.52148,-0.53027 1.15429,-0.79687 1.89843,-0.79687 0.69434,0 1.30079,0.2666 1.81641,0.79687 0.51563,0.5332 0.77344,1.2041 0.77344,2.01563 0,0.65625 -0.18457,1.23047 -0.55078,1.72265 -0.36914,0.49219 -0.84375,0.8291 -1.42969,1.00782 z m -0.65625,-5.23829 c -0.48633,0 -0.87305,0.17286 -1.16016,0.51563 -0.36914,0.43066 -0.55078,1.08691 -0.55078,1.96875 0,0.86719 0.18164,1.53516 0.55078,2.00391 0.2959,0.36914 0.68262,0.55078 1.16016,0.55078 0.49219,0 0.89062,-0.18164 1.19531,-0.55078 0.35156,-0.42188 0.52735,-1.04883 0.52735,-1.88672 0,-0.63868 -0.0996,-1.17774 -0.29297,-1.61719 -0.14942,-0.33399 -0.34864,-0.58008 -0.59766,-0.73828 -0.25195,-0.16406 -0.52734,-0.2461 -0.83203,-0.2461 z m 135.65625,5.23829 c 0.27246,0.45996 0.56543,0.7998 0.87891,1.01953 0.31054,0.21679 0.66796,0.3457 1.0664,0.38672 v 0.11718 c -0.36914,-0.009 -0.75879,-0.0791 -1.17187,-0.21093 -0.41602,-0.13477 -0.8086,-0.32227 -1.1836,-0.5625 -0.36914,-0.23438 -0.68554,-0.48633 -0.94922,-0.75 -0.38378,-0.15528 -0.68554,-0.31641 -0.90234,-0.48047 -0.32226,-0.25782 -0.57129,-0.57422 -0.75,-0.94922 -0.18164,-0.375 -0.26953,-0.81446 -0.26953,-1.32422 0,-0.79688 0.25781,-1.45899 0.77344,-1.99219 0.52148,-0.53027 1.15429,-0.79687 1.89843,-0.79687 0.69434,0 1.30079,0.2666 1.81641,0.79687 0.51563,0.5332 0.77344,1.2041 0.77344,2.01563 0,0.65625 -0.18457,1.23047 -0.55078,1.72265 -0.36914,0.49219 -0.84375,0.8291 -1.42969,1.00782 z m -0.65625,-5.23829 c -0.48633,0 -0.87305,0.17286 -1.16016,0.51563 -0.36914,0.43066 -0.55078,1.08691 -0.55078,1.96875 0,0.86719 0.18164,1.53516 0.55078,2.00391 0.2959,0.36914 0.68262,0.55078 1.16016,0.55078 0.49219,0 0.89062,-0.18164 1.19531,-0.55078 0.35156,-0.42188 0.52735,-1.04883 0.52735,-1.88672 0,-0.63868 -0.0996,-1.17774 -0.29297,-1.61719 -0.14942,-0.33399 -0.34864,-0.58008 -0.59766,-0.73828 -0.25195,-0.16406 -0.52734,-0.2461 -0.83203,-0.2461 z m 9.80859,8.64844 -0.375,1.03125 h -3.16406 v -0.14062 c 0.92871,-0.84961 1.58203,-1.54688 1.95703,-2.08594 0.38086,-0.53906 0.57422,-1.03125 0.57422,-1.47656 0,-0.33399 -0.10547,-0.61231 -0.31641,-0.83203 -0.20507,-0.2168 -0.45117,-0.32813 -0.73828,-0.32813 -0.2666,0 -0.5039,0.0791 -0.71484,0.23438 -0.21094,0.14941 -0.36914,0.37207 -0.46875,0.66796 h -0.14063 c 0.0615,-0.48339 0.22852,-0.85546 0.50391,-1.11328 0.27246,-0.26367 0.61524,-0.39843 1.03125,-0.39843 0.42774,0 0.78809,0.14062 1.07813,0.42187 0.29589,0.28125 0.44531,0.60938 0.44531,0.98438 0,0.27539 -0.0645,0.54785 -0.1875,0.82031 -0.19629,0.42187 -0.5127,0.87304 -0.94922,1.34765 -0.65625,0.72071 -1.06641,1.1543 -1.23047,1.30079 h 1.39453 c 0.28711,0 0.48633,-0.006 0.59766,-0.0234 0.11719,-0.0234 0.22265,-0.0645 0.3164,-0.12891 0.0937,-0.0703 0.16993,-0.16406 0.23438,-0.28125 z m 0,0"
       style="fill:#000000;fill-opacity:1;fill-rule:nonzero;stroke:none"
       aria-label="Q&#10;2&#10;1&#10;Q&#10;1&#10;QQ&#10;2"
       transform="matrix(1.3333333,0,0,1.3333333,0,325.73333)" />
    <path
       id="path2"
       d="m 930,2437 c 0,-16.57 -13.434,-30 -30,-30 -16.566,0 -30,13.43 -30,30 0,16.57 13.434,30 30,30 16.566,0 30,-13.43 30,-30"
       style="fill:#000000;fill-opacity:1;fill-rule:evenodd;stroke:none"
       transform="matrix(0.13333333,0,0,-0.13333333,0,362.66667)" />
    <path
       id="path3"
       d="m 930,2437 c 0,-16.57 -13.434,-30 -30,-30 -16.566,0 -30,13.43 -30,30 0,16.57 13.434,30 30,30 16.566,0 30,-13.43 30,-30 z"
       style="fill:none;stroke:#000000;stroke-width:4.5;stroke-linecap:butt;stroke-linejoin:miter;stroke-miterlimit:10;stroke-dasharray:none;stroke-opacity:1"
       transform="matrix(0.13333333,0,0,-0.13333333,0,362.66667)" />
    <path
       id="path4"
       d="M 540,1627 V 7"
       style="fill:none;stroke:#000000;stroke-width:4.5;stroke-linecap:butt;stroke-linejoin:miter;stroke-miterlimit:10;stroke-dasharray:36;stroke-dashoffset:0;stroke-opacity:1"
       transform="matrix(0.13333333,0,0,-0.13333333,0,362.66667)" />
    <path
       id="path5"
       d="M 1260,1627 V 7"
       style="fill:none;stroke:#000000;stroke-width:4.5;stroke-linecap:butt;stroke-linejoin:miter;stroke-miterlimit:10;stroke-dasharray:36;stroke-dashoffset:0;stroke-opacity:1"
       transform="matrix(0.13333333,0,0,-0.13333333,0,362.66667)" />
    <path
       id="path6"
       d="M 1980,1627 V 7"
       style="fill:none;stroke:#000000;stroke-width:4.5;stroke-linecap:butt;stroke-linejoin:miter;stroke-miterlimit:10;stroke-dasharray:36;stroke-dashoffset:0;stroke-opacity:1"
       transform="matrix(0.13333333,0,0,-0.13333333,0,362.66667)" />
    <path
       id="path7"
       d="M 2700,1627 V 7"
       style="fill:none;stroke:#000000;stroke-width:4.5;stroke-linecap:butt;stroke-linejoin:miter;stroke-miterlimit:10;stroke-dasharray:36;stroke-dashoffset:0;stroke-opacity:1"
       transform="matrix(0.13333333,0,0,-0.13333333,0,362.66667)" />
    <path
       id="path8"
       d="M 3420,1627 V 7"
       style="fill:none;stroke:#000000;stroke-width:4.5;stroke-linecap:butt;stroke-linejoin:miter;stroke-miterlimit:10;stroke-dasharray:36;stroke-dashoffset:0;stroke-opacity:1"
       transform="matrix(0.13333333,0,0,-0.13333333,0,362.66667)" />
    <path
       id="path9"
       d="M 180,727 H 4095"
       style="fill:none;stroke:#000000;stroke-width:4.5;stroke-linecap:butt;stroke-linejoin:miter;stroke-miterlimit:10;stroke-dasharray:9, 27;stroke-dashoffset:27;stroke-opacity:1"
       transform="matrix(0.13333333,0,0,-0.13333333,0,362.66667)" />
    <path
       id="path10"
       d="M 180,547 H 4095"
       style="fill:none;stroke:#000000;stroke-width:4.5;stroke-linecap:butt;stroke-linejoin:miter;stroke-miterlimit:10;stroke-dasharray:9, 27;stroke-dashoffset:27;stroke-opacity:1"
       transform="matrix(0.13333333,0,0,-0.13333333,0,362.66667)" />
    <path
       id="path11"
       d="M 180,367 H 4095"
       style="fill:none;stroke:#000000;stroke-width:4.5;stroke-linecap:butt;stroke-linejoin:miter;stroke-miterlimit:10;stroke-dasharray:9, 27;stroke-dashoffset:27;stroke-opacity:1"
       transform="matrix(0.13333333,0,0,-0.13333333,0,362.66667)" />
    <path
       id="path12"
       d="M 180,187 H 4095"
       style="fill:none;stroke:#000000;stroke-width:4.5;stroke-linecap:butt;stroke-linejoin:miter;stroke-miterlimit:10;stroke-dasharray:9, 27;stroke-dashoffset:27;stroke-opacity:1"
       transform="matrix(0.13333333,0,0,-0.13333333,0,362.66667)" />
    <path
       id="path13"
       d="m 180,1447 h 360 v -180 h 360 v 180 h 360 v -180 h 360 v 180 h 360 v -180 h 360 v 180 h 360 v -180 h 360 v 180 h 360 v -180 h 360 v 180 h 315"
       style="fill:none;stroke:#000000;stroke-width:4.5;stroke-linecap:butt;stroke-linejoin:miter;stroke-miterlimit:10;stroke-dasharray:none;stroke-opacity:1"
       transform="matrix(0.13333333,0,0,-0.13333333,0,362.66667)"
       sodipodi:nodetypes="cccccccccccccccccccccc" />
    <path
       id="path14"
       d="M 180,1087 H 450 V 907 h 540 v 180 H 2475 V 907 h 675 v 180 h 90 V 907 h 45 v 180 h 810"
       style="fill:none;stroke:#000000;stroke-width:4.5;stroke-linecap:butt;stroke-linejoin:miter;stroke-miterlimit:10;stroke-dasharray:none;stroke-opacity:1"
       transform="matrix(0.13333333,0,0,-0.13333333,0,362.66667)"
       sodipodi:nodetypes="cccccccccccccc" />
    <path
       id="path15"
       d="M 1080,2617 H 720"
       style="fill:none;stroke:#000000;stroke-width:4.5;stroke-linecap:butt;stroke-linejoin:miter;stroke-miterlimit:10;stroke-dasharray:none;stroke-opacity:1"
       transform="matrix(0.13333333,0,0,-0.13333333,0,362.66667)" />
    <path
       id="path16"
       d="m 2070,2617 h 270"
       style="fill:none;stroke:#000000;stroke-width:4.5;stroke-linecap:butt;stroke-linejoin:miter;stroke-miterlimit:10;stroke-dasharray:none;stroke-opacity:1"
       transform="matrix(0.13333333,0,0,-0.13333333,0,362.66667)" />
    <path
       id="path17"
       d="m 720,2437 h 360"
       style="fill:none;stroke:#000000;stroke-width:4.5;stroke-linecap:butt;stroke-linejoin:miter;stroke-miterlimit:10;stroke-dasharray:none;stroke-opacity:1"
       transform="matrix(0.13333333,0,0,-0.13333333,0,362.66667)" />
    <path
       id="path18"
       d="M 900,2437 V 1942"
       style="fill:none;stroke:#000000;stroke-width:4.5;stroke-linecap:butt;stroke-linejoin:miter;stroke-miterlimit:10;stroke-dasharray:none;stroke-opacity:1"
       transform="matrix(0.13333333,0,0,-0.13333333,0,362.66667)" />
    <path
       id="path19"
       d="m 1620,1942 h 585 v 495 h 135"
       style="fill:none;stroke:#000000;stroke-width:4.5;stroke-linecap:butt;stroke-linejoin:miter;stroke-miterlimit:10;stroke-dasharray:none;stroke-opacity:1"
       transform="matrix(0.13333333,0,0,-0.13333333,0,362.66667)" />
    <path
       id="path20"
       d="m 3330,2617 h 270"
       style="fill:none;stroke:#000000;stroke-width:4.5;stroke-linecap:butt;stroke-linejoin:miter;stroke-miterlimit:10;stroke-dasharray:none;stroke-opacity:1"
       transform="matrix(0.13333333,0,0,-0.13333333,0,362.66667)" />
    <path
       id="path21"
       d="m 1080,2167 h 990 v 540 h -990 z"
       style="fill:none;stroke:#000000;stroke-width:4.5;stroke-linecap:butt;stroke-linejoin:miter;stroke-miterlimit:10;stroke-dasharray:none;stroke-opacity:1"
       transform="matrix(0.13333333,0,0,-0.13333333,0,362.66667)" />
    <path
       id="path22"
       d="m 2340,2167 h 990 v 540 h -990 z"
       style="fill:none;stroke:#000000;stroke-width:4.5;stroke-linecap:butt;stroke-linejoin:miter;stroke-miterlimit:10;stroke-dasharray:none;stroke-opacity:1"
       transform="matrix(0.13333333,0,0,-0.13333333,0,362.66667)" />
    <path
       id="path23"
       d="M 4.9453125,-2.3898437 H 2.1679688 l -0.4804688,1.125 c -0.1171875,0.28124995 -0.1757813,0.48925776 -0.1757813,0.6210937 0,0.11132813 0.049805,0.20800781 0.1523438,0.29296875 0.099609,0.0791016 0.3222656,0.12890625 0.6679688,0.15234375 V 7.8125e-4 H 0.08203125 V -0.1984375 c 0.29589844,-0.046875 0.4921875,-0.11132812 0.5859375,-0.19921875 0.17871094,-0.16992187 0.37792965,-0.515625 0.59765625,-1.03124995 l 2.5078125,-5.8828125 h 0.1875 l 2.4960937,5.9414062 c 0.1933594,0.48632813 0.375,0.796875 0.5390625,0.9375 0.1640625,0.140625 0.3896485,0.21972656 0.6796875,0.234375 V 7.8125e-4 h -2.8125 V -0.1984375 c 0.28125,-0.005859 0.4716797,-0.0498047 0.5742188,-0.12890625 0.099609,-0.0849609 0.1523437,-0.1875 0.1523437,-0.3046875 0,-0.15527344 -0.070312,-0.40136715 -0.2109375,-0.73828125 z M 4.7929687,-2.7882812 3.5859375,-5.6710937 2.3320313,-2.7882812 Z M 121.6875,-125.99922 v -0.19922 h 0.26953 c 0.2959,0 0.50977,-0.0937 0.64453,-0.28125 0.0762,-0.11718 0.11719,-0.37793 0.11719,-0.78515 v -4.61719 c 0,-0.45117 -0.0527,-0.73242 -0.15234,-0.84375 -0.14063,-0.15527 -0.34571,-0.23438 -0.60938,-0.23438 h -0.26953 v -0.1875 h 2.90625 c 1.06934,0 1.88086,0.12305 2.4375,0.36329 0.5625,0.24316 1.01074,0.65039 1.34766,1.21875 0.34277,0.5625 0.51562,1.21582 0.51562,1.95703 0,0.99316 -0.30469,1.82519 -0.91406,2.49609 -0.67969,0.74414 -1.71094,1.11328 -3.09375,1.11328 z m 2.03906,-0.51562 c 0.44532,0.0937 0.82032,0.14062 1.125,0.14062 0.81153,0 1.48828,-0.28418 2.02735,-0.85547 0.53906,-0.56836 0.80859,-1.34765 0.80859,-2.33203 0,-0.98437 -0.26953,-1.76074 -0.80859,-2.33203 -0.53907,-0.56836 -1.23047,-0.85547 -2.07422,-0.85547 -0.31348,0 -0.67383,0.0527 -1.07813,0.15235 z m 12.71192,-1.32422 c -0.13477,0.6416 -0.39258,1.13379 -0.77344,1.47656 -0.375,0.3457 -0.79395,0.51563 -1.25391,0.51563 -0.54785,0 -1.02539,-0.22852 -1.42968,-0.69141 -0.40723,-0.45996 -0.60938,-1.08399 -0.60938,-1.875 0,-0.75586 0.22266,-1.37402 0.66797,-1.85156 0.45117,-0.47461 0.99609,-0.71485 1.62891,-0.71485 0.4746,0 0.86718,0.12891 1.17187,0.38672 0.30469,0.25195 0.45703,0.5127 0.45703,0.78516 0,0.13476 -0.0439,0.24316 -0.1289,0.32812 -0.0879,0.0791 -0.20801,0.11719 -0.36329,0.11719 -0.20507,0 -0.36035,-0.0644 -0.46875,-0.19922 -0.0557,-0.0762 -0.0937,-0.2168 -0.11718,-0.42187 -0.0176,-0.21094 -0.0879,-0.36914 -0.21094,-0.48047 -0.12598,-0.0996 -0.29883,-0.15235 -0.51563,-0.15235 -0.35156,0 -0.63281,0.12891 -0.84375,0.38672 -0.29004,0.34571 -0.43359,0.80274 -0.43359,1.3711 0,0.57129 0.14063,1.07812 0.42188,1.52343 0.2871,0.43946 0.67382,0.65625 1.16015,0.65625 0.34277,0 0.65039,-0.11718 0.92578,-0.35156 0.19336,-0.15527 0.38086,-0.44824 0.5625,-0.8789 z m 2.35839,-5.66016 v 6.41016 c 0,0.30469 0.0176,0.50976 0.0586,0.60937 0.0469,0.0937 0.11133,0.16992 0.19922,0.22266 0.0937,0.0469 0.26367,0.0703 0.51562,0.0703 v 0.1875 h -2.36719 v -0.1875 c 0.2168,0 0.36622,-0.0234 0.44532,-0.0703 0.085,-0.0469 0.15234,-0.12012 0.19922,-0.22266 0.0469,-0.1084 0.0703,-0.31054 0.0703,-0.60937 v -4.39453 c 0,-0.54493 -0.0117,-0.87891 -0.0352,-0.9961 -0.0234,-0.12304 -0.0644,-0.21093 -0.11719,-0.25781 -0.0557,-0.0469 -0.12597,-0.0703 -0.21093,-0.0703 -0.0937,0 -0.21094,0.0293 -0.35157,0.082 l -0.0937,-0.1875 1.44141,-0.58594 z m 3.70606,2.51953 c 0.72656,0 1.3125,0.28125 1.75781,0.84375 0.375,0.46875 0.5625,1.01367 0.5625,1.62891 0,0.43945 -0.10547,0.87891 -0.3164,1.32422 -0.20508,0.43945 -0.48926,0.77051 -0.85547,0.99609 -0.36035,0.22559 -0.76172,0.33985 -1.20703,0.33985 -0.73536,0 -1.31836,-0.29297 -1.7461,-0.87891 -0.36035,-0.4834 -0.53906,-1.03125 -0.53906,-1.64063 0,-0.44531 0.1084,-0.88476 0.32812,-1.32421 0.2168,-0.43653 0.50684,-0.76172 0.86719,-0.97266 0.35742,-0.21094 0.74121,-0.31641 1.14844,-0.31641 z m -0.16406,0.35157 c -0.1875,0 -0.375,0.0557 -0.5625,0.16406 -0.1875,0.11133 -0.33985,0.30469 -0.45703,0.58594 -0.11719,0.27539 -0.17579,0.62988 -0.17579,1.0664 0,0.70313 0.13477,1.3125 0.41016,1.82813 0.28125,0.50976 0.65039,0.76172 1.11328,0.76172 0.34278,0 0.62403,-0.14063 0.84375,-0.42188 0.2168,-0.28125 0.32813,-0.76465 0.32813,-1.45312 0,-0.8584 -0.18457,-1.53516 -0.55078,-2.02735 -0.25196,-0.33398 -0.56836,-0.5039 -0.94922,-0.5039 z m 7.29785,2.78906 c -0.13477,0.6416 -0.39258,1.13379 -0.77344,1.47656 -0.375,0.3457 -0.79394,0.51563 -1.25391,0.51563 -0.54785,0 -1.02539,-0.22852 -1.42968,-0.69141 -0.40723,-0.45996 -0.60938,-1.08399 -0.60938,-1.875 0,-0.75586 0.22266,-1.37402 0.66797,-1.85156 0.45117,-0.47461 0.99609,-0.71485 1.62891,-0.71485 0.47461,0 0.86718,0.12891 1.17187,0.38672 0.30469,0.25195 0.45703,0.5127 0.45703,0.78516 0,0.13476 -0.0439,0.24316 -0.1289,0.32812 -0.0879,0.0791 -0.20801,0.11719 -0.36328,0.11719 -0.20508,0 -0.36036,-0.0644 -0.46875,-0.19922 -0.0557,-0.0762 -0.0937,-0.2168 -0.11719,-0.42187 -0.0176,-0.21094 -0.0879,-0.36914 -0.21094,-0.48047 -0.12598,-0.0996 -0.29883,-0.15235 -0.51562,-0.15235 -0.35157,0 -0.63282,0.12891 -0.84375,0.38672 -0.29004,0.34571 -0.4336,0.80274 -0.4336,1.3711 0,0.57129 0.14063,1.07812 0.42188,1.52343 0.28711,0.43946 0.67383,0.65625 1.16015,0.65625 0.34278,0 0.65039,-0.11718 0.92578,-0.35156 0.19336,-0.15527 0.38086,-0.44824 0.5625,-0.8789 z m 2.12402,-5.66016 v 4.80469 l 1.23047,-1.11328 c 0.25781,-0.24024 0.4043,-0.39258 0.44531,-0.45703 0.0293,-0.0469 0.0469,-0.0879 0.0469,-0.12891 0,-0.0703 -0.0322,-0.12891 -0.0937,-0.17578 -0.0557,-0.0527 -0.14942,-0.085 -0.28125,-0.0937 v -0.16406 h 2.09765 v 0.16406 c -0.29003,0.009 -0.5332,0.0557 -0.72656,0.14062 -0.1875,0.0791 -0.39551,0.21973 -0.62109,0.42188 l -1.24219,1.14844 1.24219,1.57031 c 0.34277,0.43066 0.57422,0.70312 0.6914,0.82031 0.16993,0.16406 0.31934,0.26953 0.44532,0.31641 0.085,0.041 0.2373,0.0586 0.45703,0.0586 v 0.1875 h -2.34375 v -0.1875 c 0.13183,-0.006 0.22265,-0.0264 0.26953,-0.0586 0.0469,-0.0381 0.0703,-0.0937 0.0703,-0.16406 0,-0.0762 -0.0703,-0.20508 -0.21094,-0.38672 l -1.47656,-1.89844 v 1.60547 c 0,0.31347 0.0176,0.52148 0.0586,0.62109 0.0469,0.10254 0.10839,0.17285 0.1875,0.21094 0.085,0.041 0.26074,0.0644 0.52734,0.0703 v 0.1875 h -2.44922 v -0.1875 c 0.24024,0 0.42481,-0.0293 0.55078,-0.0937 0.0703,-0.0381 0.12305,-0.0967 0.16406,-0.17578 0.0527,-0.11719 0.082,-0.31641 0.082,-0.59766 v -4.40625 c 0,-0.5625 -0.0117,-0.90234 -0.0352,-1.01953 -0.0234,-0.12304 -0.0674,-0.21093 -0.12891,-0.25781 -0.0557,-0.0527 -0.12597,-0.082 -0.21093,-0.082 -0.0791,0 -0.19336,0.0322 -0.33985,0.0937 l -0.082,-0.1875 1.42969,-0.58594 z m 8.33496,0 v 6.41016 c 0,0.30469 0.0176,0.50976 0.0586,0.60937 0.0469,0.0937 0.11132,0.16992 0.19922,0.22266 0.0937,0.0469 0.26367,0.0703 0.51562,0.0703 v 0.1875 h -2.36719 v -0.1875 c 0.2168,0 0.36621,-0.0234 0.44532,-0.0703 0.085,-0.0469 0.15234,-0.12012 0.19921,-0.22266 0.0469,-0.1084 0.0703,-0.31054 0.0703,-0.60937 v -4.39453 c 0,-0.54493 -0.0117,-0.87891 -0.0352,-0.9961 -0.0234,-0.12304 -0.0644,-0.21093 -0.11719,-0.25781 -0.0557,-0.0469 -0.12597,-0.0703 -0.21093,-0.0703 -0.0937,0 -0.21094,0.0293 -0.35157,0.082 l -0.0937,-0.1875 1.44141,-0.58594 z m 4.06641,6.8086 c -0.49219,0.38378 -0.80274,0.60351 -0.92578,0.65625 -0.19629,0.0937 -0.39844,0.14062 -0.60938,0.14062 -0.33691,0 -0.61523,-0.11133 -0.83203,-0.33984 -0.21094,-0.23438 -0.3164,-0.53907 -0.3164,-0.91407 0,-0.23437 0.0498,-0.43652 0.15234,-0.60937 0.14648,-0.24024 0.39844,-0.46875 0.75,-0.67969 0.35742,-0.21094 0.95215,-0.46289 1.78125,-0.76172 v -0.1875 c 0,-0.4834 -0.0791,-0.81445 -0.23438,-0.99609 -0.14941,-0.17871 -0.36914,-0.26953 -0.65625,-0.26953 -0.21972,0 -0.3955,0.0586 -0.52734,0.17578 -0.13477,0.12598 -0.19922,0.26367 -0.19922,0.41016 l 0.0117,0.30468 c 0,0.16407 -0.0439,0.29297 -0.12891,0.38672 -0.0791,0.0879 -0.1875,0.12891 -0.32812,0.12891 -0.12598,0 -0.23145,-0.0469 -0.31641,-0.14063 -0.0791,-0.0937 -0.11718,-0.21679 -0.11718,-0.375 0,-0.30468 0.15234,-0.58008 0.45703,-0.83203 0.31054,-0.25781 0.74414,-0.38672 1.30078,-0.38672 0.42773,0 0.77929,0.0762 1.05469,0.22266 0.21093,0.11133 0.36621,0.28125 0.46875,0.51562 0.0615,0.14942 0.0937,0.45704 0.0937,0.92579 v 1.64062 c 0,0.46289 0.006,0.74414 0.0234,0.84375 0.0147,0.10254 0.041,0.17285 0.082,0.21094 0.0469,0.0322 0.0937,0.0469 0.14063,0.0469 0.0615,0 0.11133,-0.0117 0.15234,-0.0352 0.0703,-0.0469 0.21094,-0.17578 0.42188,-0.38672 v 0.30469 c -0.39258,0.52441 -0.76758,0.78515 -1.125,0.78515 -0.17285,0 -0.31055,-0.0586 -0.41016,-0.17578 -0.10254,-0.12305 -0.1582,-0.32812 -0.16406,-0.60937 z m 0,-0.35157 v -1.83984 c -0.5332,0.21094 -0.87305,0.36035 -1.01953,0.44531 -0.28125,0.1582 -0.48633,0.32227 -0.60938,0.49219 -0.11718,0.16406 -0.17578,0.34863 -0.17578,0.55078 0,0.25781 0.0732,0.46875 0.22266,0.63281 0.15527,0.16407 0.33105,0.2461 0.52734,0.2461 0.27246,0 0.62403,-0.17578 1.05469,-0.52735 z m 3.47168,-5.3789 v 1.59375 h 1.125 v 0.36328 h -1.125 v 3.14062 c 0,0.31348 0.041,0.52442 0.12891,0.63282 0.0937,0.11132 0.21093,0.16406 0.35156,0.16406 0.1084,0 0.21679,-0.0352 0.32812,-0.10547 0.1084,-0.0762 0.19336,-0.1875 0.25782,-0.32813 h 0.21093 c -0.12597,0.34571 -0.30176,0.60645 -0.52734,0.78516 -0.22852,0.17285 -0.45703,0.25781 -0.69141,0.25781 -0.16406,0 -0.32519,-0.0439 -0.48047,-0.1289 -0.1582,-0.0937 -0.27539,-0.22266 -0.35156,-0.38672 -0.0703,-0.16992 -0.10547,-0.4336 -0.10547,-0.78516 v -3.24609 h -0.76172 v -0.17578 c 0.19336,-0.0762 0.39258,-0.20508 0.59766,-0.38672 0.20215,-0.1875 0.38086,-0.4043 0.53906,-0.65625 0.0762,-0.13184 0.19043,-0.37793 0.33985,-0.73828 z m 5.69824,4.58203 c -0.13476,0.6416 -0.39258,1.13379 -0.77344,1.47656 -0.375,0.3457 -0.79394,0.51563 -1.2539,0.51563 -0.54785,0 -1.02539,-0.22852 -1.42969,-0.69141 -0.40723,-0.45996 -0.60938,-1.08399 -0.60938,-1.875 0,-0.75586 0.22266,-1.37402 0.66797,-1.85156 0.45118,-0.47461 0.9961,-0.71485 1.62891,-0.71485 0.47461,0 0.86719,0.12891 1.17187,0.38672 0.30469,0.25195 0.45704,0.5127 0.45704,0.78516 0,0.13476 -0.0439,0.24316 -0.12891,0.32812 -0.0879,0.0791 -0.20801,0.11719 -0.36328,0.11719 -0.20508,0 -0.36035,-0.0644 -0.46875,-0.19922 -0.0557,-0.0762 -0.0937,-0.2168 -0.11719,-0.42187 -0.0176,-0.21094 -0.0879,-0.36914 -0.21094,-0.48047 -0.12597,-0.0996 -0.29882,-0.15235 -0.51562,-0.15235 -0.35156,0 -0.63281,0.12891 -0.84375,0.38672 -0.29004,0.34571 -0.4336,0.80274 -0.4336,1.3711 0,0.57129 0.14063,1.07812 0.42188,1.52343 0.28711,0.43946 0.67383,0.65625 1.16016,0.65625 0.34277,0 0.65039,-0.11718 0.92578,-0.35156 0.19336,-0.15527 0.38086,-0.44824 0.5625,-0.8789 z m 2.11231,-5.66016 v 3.52735 c 0.38964,-0.42188 0.69726,-0.69434 0.92578,-0.82032 0.22558,-0.12304 0.45703,-0.1875 0.6914,-0.1875 0.27246,0 0.50684,0.0791 0.70313,0.23438 0.19336,0.14941 0.33984,0.38672 0.43359,0.71484 0.0703,0.21973 0.10547,0.62988 0.10547,1.23047 v 1.71094 c 0,0.30469 0.0234,0.51269 0.0703,0.62109 0.0381,0.0879 0.0967,0.1582 0.17578,0.21094 0.085,0.0469 0.24024,0.0703 0.46875,0.0703 v 0.1875 h -2.36718 v -0.1875 h 0.10547 c 0.22558,0 0.38086,-0.0352 0.46875,-0.10547 0.085,-0.0703 0.14648,-0.16992 0.1875,-0.30468 0.006,-0.0527 0.0117,-0.2168 0.0117,-0.49219 V -128.8 c 0,-0.53027 -0.0293,-0.87891 -0.082,-1.04297 -0.0557,-0.16406 -0.14062,-0.28418 -0.25781,-0.36328 -0.11719,-0.085 -0.26367,-0.12891 -0.43359,-0.12891 -0.17285,0 -0.35157,0.0469 -0.53907,0.14063 -0.1875,0.0879 -0.41015,0.26953 -0.66796,0.55078 v 2.55469 c 0,0.32812 0.0146,0.53613 0.0469,0.62109 0.0381,0.0791 0.1084,0.14649 0.21094,0.19922 0.0996,0.0557 0.27539,0.082 0.52734,0.082 v 0.1875 h -2.40234 v -0.1875 c 0.2168,0 0.38672,-0.0352 0.5039,-0.10547 0.0703,-0.0293 0.12305,-0.0937 0.16407,-0.1875 0.0469,-0.0996 0.0703,-0.30468 0.0703,-0.60937 v -4.3711 c 0,-0.55371 -0.0176,-0.89355 -0.0469,-1.01953 -0.0234,-0.12304 -0.0644,-0.21093 -0.11718,-0.25781 -0.0557,-0.0469 -0.12598,-0.0703 -0.21094,-0.0703 -0.0791,0 -0.19922,0.0293 -0.36328,0.082 l -0.0703,-0.1875 1.4414,-0.58594 z m -71.75684,-28.5 v -0.19922 h 0.26953 c 0.2959,0 0.50977,-0.0937 0.64453,-0.28125 0.0762,-0.11718 0.11719,-0.37793 0.11719,-0.78515 v -4.61719 c 0,-0.45117 -0.0527,-0.73242 -0.15234,-0.84375 -0.14063,-0.15527 -0.34571,-0.23438 -0.60938,-0.23438 h -0.26953 v -0.1875 h 2.90625 c 1.06934,0 1.88086,0.12305 2.4375,0.36329 0.5625,0.24316 1.01074,0.65039 1.34766,1.21875 0.34277,0.5625 0.51562,1.21582 0.51562,1.95703 0,0.99316 -0.30469,1.82519 -0.91406,2.49609 -0.67969,0.74414 -1.71094,1.11328 -3.09375,1.11328 z m 2.03906,-0.51562 c 0.44532,0.0937 0.82032,0.14062 1.125,0.14062 0.81153,0 1.48828,-0.28418 2.02735,-0.85547 0.53906,-0.56836 0.80859,-1.34765 0.80859,-2.33203 0,-0.98437 -0.26953,-1.76074 -0.80859,-2.33203 -0.53907,-0.56836 -1.23047,-0.85547 -2.07422,-0.85547 -0.31348,0 -0.67383,0.0527 -1.07813,0.15235 z m 83.53125,0.59765 c 0.35742,0.61524 0.74414,1.06934 1.16016,1.35938 0.42187,0.2959 0.89648,0.46289 1.42969,0.5039 v 0.17579 c -0.48633,-0.0234 -1.00489,-0.12598 -1.5586,-0.30469 -0.55664,-0.17285 -1.07812,-0.41895 -1.57031,-0.73828 -0.49219,-0.31348 -0.91992,-0.64453 -1.27734,-0.9961 -0.50977,-0.20215 -0.91114,-0.42187 -1.20704,-0.65625 -0.43066,-0.33398 -0.76757,-0.75293 -1.00781,-1.2539 -0.23437,-0.49805 -0.35156,-1.08985 -0.35156,-1.76953 0,-1.06055 0.3457,-1.94532 1.04297,-2.64844 0.69433,-0.70899 1.53515,-1.06641 2.51953,-1.06641 0.9375,0 1.74609,0.35742 2.42578,1.06641 0.68555,0.70312 1.03125,1.59375 1.03125,2.67187 0,0.87598 -0.24609,1.64649 -0.73828,2.3086 -0.48633,0.66504 -1.11914,1.11328 -1.89844,1.34765 z m -0.89062,-6.99609 c -0.63282,0 -1.14551,0.23144 -1.53516,0.69141 -0.49219,0.57128 -0.73828,1.44726 -0.73828,2.625 0,1.16601 0.24609,2.05957 0.73828,2.68359 0.38965,0.47754 0.90234,0.71484 1.53516,0.71484 0.66211,0 1.19824,-0.2373 1.60547,-0.71484 0.47461,-0.56836 0.71484,-1.41211 0.71484,-2.53125 0,-0.84961 -0.13477,-1.57031 -0.39844,-2.15625 -0.19629,-0.44531 -0.46289,-0.77344 -0.79687,-0.98438 -0.32813,-0.21679 -0.70313,-0.32812 -1.125,-0.32812 z m 59.32031,42.91406 v -0.19922 h 0.26953 c 0.2959,0 0.50977,-0.0937 0.64453,-0.28125 0.0762,-0.11718 0.11719,-0.37793 0.11719,-0.78515 v -4.61719 c 0,-0.45117 -0.0527,-0.73242 -0.15234,-0.84375 -0.14063,-0.15527 -0.34571,-0.23438 -0.60938,-0.23438 h -0.26953 v -0.1875 h 2.90625 c 1.06934,0 1.88086,0.12305 2.4375,0.36329 0.5625,0.24316 1.01074,0.65039 1.34766,1.21875 0.34277,0.5625 0.51562,1.21582 0.51562,1.95703 0,0.99316 -0.30469,1.82519 -0.91406,2.49609 -0.67969,0.74414 -1.71094,1.11328 -3.09375,1.11328 z m 2.03906,-0.51562 c 0.44531,0.0937 0.82031,0.14062 1.125,0.14062 0.81153,0 1.48828,-0.28418 2.02735,-0.85547 0.53906,-0.56836 0.80859,-1.34765 0.80859,-2.33203 0,-0.98437 -0.26953,-1.76074 -0.80859,-2.33203 -0.53907,-0.56836 -1.23047,-0.85547 -2.07422,-0.85547 -0.31348,0 -0.67383,0.0527 -1.07813,0.15235 z m 12.71192,-1.32422 c -0.13477,0.6416 -0.39258,1.13379 -0.77344,1.47656 -0.375,0.3457 -0.79395,0.51563 -1.25391,0.51563 -0.54785,0 -1.02539,-0.22852 -1.42968,-0.69141 -0.40723,-0.45996 -0.60938,-1.08399 -0.60938,-1.875 0,-0.75586 0.22266,-1.37402 0.66797,-1.85156 0.45117,-0.47461 0.99609,-0.71485 1.62891,-0.71485 0.4746,0 0.86718,0.12891 1.17187,0.38672 0.30469,0.25195 0.45703,0.5127 0.45703,0.78516 0,0.13476 -0.0439,0.24316 -0.1289,0.32812 -0.0879,0.0791 -0.20801,0.11719 -0.36329,0.11719 -0.20507,0 -0.36035,-0.0644 -0.46875,-0.19922 -0.0557,-0.0762 -0.0937,-0.2168 -0.11718,-0.42187 -0.0176,-0.21094 -0.0879,-0.36914 -0.21094,-0.48047 -0.12598,-0.0996 -0.29883,-0.15235 -0.51563,-0.15235 -0.35156,0 -0.63281,0.12891 -0.84375,0.38672 -0.29004,0.34571 -0.43359,0.80274 -0.43359,1.3711 0,0.57129 0.14063,1.07812 0.42188,1.52343 0.2871,0.43946 0.67382,0.65625 1.16015,0.65625 0.34277,0 0.65039,-0.11718 0.92578,-0.35156 0.19336,-0.15527 0.38086,-0.44824 0.5625,-0.8789 z m 2.35839,-5.66016 v 6.41016 c 0,0.30469 0.0176,0.50976 0.0586,0.60937 0.0469,0.0937 0.11133,0.16992 0.19922,0.22266 0.0937,0.0469 0.26367,0.0703 0.51562,0.0703 v 0.1875 h -2.36719 v -0.1875 c 0.2168,0 0.36622,-0.0234 0.44532,-0.0703 0.085,-0.0469 0.15234,-0.12012 0.19922,-0.22266 0.0469,-0.1084 0.0703,-0.31054 0.0703,-0.60937 v -4.39453 c 0,-0.54493 -0.0117,-0.87891 -0.0352,-0.9961 -0.0234,-0.12304 -0.0645,-0.21093 -0.11719,-0.25781 -0.0557,-0.0469 -0.12597,-0.0703 -0.21093,-0.0703 -0.0937,0 -0.21094,0.0293 -0.35157,0.082 l -0.0937,-0.1875 1.44141,-0.58594 z m 3.70606,2.51953 c 0.72656,0 1.3125,0.28125 1.75781,0.84375 0.375,0.46875 0.5625,1.01367 0.5625,1.62891 0,0.43945 -0.10547,0.87891 -0.3164,1.32422 -0.20508,0.43945 -0.48926,0.77051 -0.85547,0.99609 -0.36035,0.22559 -0.76172,0.33985 -1.20703,0.33985 -0.73536,0 -1.31836,-0.29297 -1.7461,-0.87891 -0.36035,-0.4834 -0.53906,-1.03125 -0.53906,-1.64063 0,-0.44531 0.1084,-0.88476 0.32812,-1.32421 0.2168,-0.43653 0.50684,-0.76172 0.86719,-0.97266 0.35742,-0.21094 0.74121,-0.31641 1.14844,-0.31641 z m -0.16406,0.35157 c -0.1875,0 -0.375,0.0557 -0.5625,0.16406 -0.1875,0.11133 -0.33985,0.30469 -0.45703,0.58594 -0.11719,0.27539 -0.17579,0.62988 -0.17579,1.0664 0,0.70313 0.13477,1.3125 0.41016,1.82813 0.28125,0.50976 0.65039,0.76172 1.11328,0.76172 0.34278,0 0.62403,-0.14063 0.84375,-0.42188 0.2168,-0.28125 0.32813,-0.76465 0.32813,-1.45312 0,-0.8584 -0.18457,-1.53516 -0.55078,-2.02735 -0.25196,-0.33398 -0.56836,-0.5039 -0.94922,-0.5039 z m 7.29785,2.78906 c -0.13477,0.6416 -0.39258,1.13379 -0.77344,1.47656 -0.375,0.3457 -0.79394,0.51563 -1.25391,0.51563 -0.54785,0 -1.02539,-0.22852 -1.42968,-0.69141 -0.40723,-0.45996 -0.60938,-1.08399 -0.60938,-1.875 0,-0.75586 0.22266,-1.37402 0.66797,-1.85156 0.45117,-0.47461 0.99609,-0.71485 1.62891,-0.71485 0.47461,0 0.86718,0.12891 1.17187,0.38672 0.30469,0.25195 0.45703,0.5127 0.45703,0.78516 0,0.13476 -0.0439,0.24316 -0.1289,0.32812 -0.0879,0.0791 -0.20801,0.11719 -0.36328,0.11719 -0.20508,0 -0.36036,-0.0644 -0.46875,-0.19922 -0.0557,-0.0762 -0.0937,-0.2168 -0.11719,-0.42187 -0.0176,-0.21094 -0.0879,-0.36914 -0.21094,-0.48047 -0.12598,-0.0996 -0.29883,-0.15235 -0.51562,-0.15235 -0.35157,0 -0.63282,0.12891 -0.84375,0.38672 -0.29004,0.34571 -0.4336,0.80274 -0.4336,1.3711 0,0.57129 0.14063,1.07812 0.42188,1.52343 0.28711,0.43946 0.67383,0.65625 1.16015,0.65625 0.34278,0 0.65039,-0.11718 0.92578,-0.35156 0.19336,-0.15527 0.38086,-0.44824 0.5625,-0.8789 z m 2.12402,-5.66016 v 4.80469 l 1.23047,-1.11328 c 0.25781,-0.24024 0.4043,-0.39258 0.44531,-0.45703 0.0293,-0.0469 0.0469,-0.0879 0.0469,-0.12891 0,-0.0703 -0.0322,-0.12891 -0.0937,-0.17578 -0.0557,-0.0527 -0.14942,-0.085 -0.28125,-0.0937 v -0.16406 h 2.09765 v 0.16406 c -0.29003,0.009 -0.5332,0.0557 -0.72656,0.14062 -0.1875,0.0791 -0.39551,0.21973 -0.62109,0.42188 l -1.24219,1.14844 1.24219,1.57031 c 0.34277,0.43066 0.57422,0.70312 0.6914,0.82031 0.16993,0.16406 0.31934,0.26953 0.44532,0.31641 0.085,0.041 0.2373,0.0586 0.45703,0.0586 v 0.1875 h -2.34375 v -0.1875 c 0.13183,-0.006 0.22265,-0.0264 0.26953,-0.0586 0.0469,-0.0381 0.0703,-0.0937 0.0703,-0.16406 0,-0.0762 -0.0703,-0.20508 -0.21094,-0.38672 l -1.47656,-1.89844 v 1.60547 c 0,0.31347 0.0176,0.52148 0.0586,0.62109 0.0469,0.10254 0.10839,0.17285 0.1875,0.21094 0.085,0.041 0.26074,0.0644 0.52734,0.0703 v 0.1875 h -2.44922 v -0.1875 c 0.24024,0 0.42481,-0.0293 0.55078,-0.0937 0.0703,-0.0381 0.12305,-0.0967 0.16406,-0.17578 0.0527,-0.11719 0.082,-0.31641 0.082,-0.59766 v -4.40625 c 0,-0.5625 -0.0117,-0.90234 -0.0352,-1.01953 -0.0234,-0.12304 -0.0674,-0.21093 -0.12891,-0.25781 -0.0557,-0.0527 -0.12597,-0.082 -0.21093,-0.082 -0.0791,0 -0.19336,0.0322 -0.33985,0.0937 l -0.082,-0.1875 1.42969,-0.58594 z m 8.33496,0 v 6.41016 c 0,0.30469 0.0176,0.50976 0.0586,0.60937 0.0469,0.0937 0.11132,0.16992 0.19922,0.22266 0.0937,0.0469 0.26367,0.0703 0.51562,0.0703 v 0.1875 h -2.36719 v -0.1875 c 0.2168,0 0.36621,-0.0234 0.44532,-0.0703 0.085,-0.0469 0.15234,-0.12012 0.19921,-0.22266 0.0469,-0.1084 0.0703,-0.31054 0.0703,-0.60937 v -4.39453 c 0,-0.54493 -0.0117,-0.87891 -0.0352,-0.9961 -0.0234,-0.12304 -0.0645,-0.21093 -0.11719,-0.25781 -0.0557,-0.0469 -0.12597,-0.0703 -0.21093,-0.0703 -0.0937,0 -0.21094,0.0293 -0.35157,0.082 l -0.0937,-0.1875 1.44141,-0.58594 z m 4.06641,6.8086 c -0.49219,0.38378 -0.80274,0.60351 -0.92578,0.65625 -0.19629,0.0937 -0.39844,0.14062 -0.60938,0.14062 -0.33691,0 -0.61523,-0.11133 -0.83203,-0.33984 -0.21094,-0.23438 -0.3164,-0.53907 -0.3164,-0.91407 0,-0.23437 0.0498,-0.43652 0.15234,-0.60937 0.14648,-0.24024 0.39844,-0.46875 0.75,-0.67969 0.35742,-0.21094 0.95215,-0.46289 1.78125,-0.76172 v -0.1875 c 0,-0.4834 -0.0791,-0.81445 -0.23438,-0.99609 -0.14941,-0.17871 -0.36914,-0.26953 -0.65625,-0.26953 -0.21972,0 -0.3955,0.0586 -0.52734,0.17578 -0.13477,0.12598 -0.19922,0.26367 -0.19922,0.41016 l 0.0117,0.30468 c 0,0.16407 -0.0439,0.29297 -0.12891,0.38672 -0.0791,0.0879 -0.1875,0.12891 -0.32812,0.12891 -0.12598,0 -0.23145,-0.0469 -0.31641,-0.14063 -0.0791,-0.0937 -0.11718,-0.21679 -0.11718,-0.375 0,-0.30468 0.15234,-0.58008 0.45703,-0.83203 0.31054,-0.25781 0.74414,-0.38672 1.30078,-0.38672 0.42773,0 0.77929,0.0762 1.05469,0.22266 0.21093,0.11133 0.36621,0.28125 0.46875,0.51562 0.0615,0.14942 0.0937,0.45704 0.0937,0.92579 v 1.64062 c 0,0.46289 0.006,0.74414 0.0234,0.84375 0.0146,0.10254 0.041,0.17285 0.082,0.21094 0.0469,0.0322 0.0937,0.0469 0.14063,0.0469 0.0615,0 0.11133,-0.0117 0.15234,-0.0352 0.0703,-0.0469 0.21094,-0.17578 0.42188,-0.38672 v 0.30469 c -0.39258,0.52441 -0.76758,0.78515 -1.125,0.78515 -0.17285,0 -0.31055,-0.0586 -0.41016,-0.17578 -0.10254,-0.12305 -0.1582,-0.32812 -0.16406,-0.60937 z m 0,-0.35157 v -1.83984 c -0.5332,0.21094 -0.87305,0.36035 -1.01953,0.44531 -0.28125,0.1582 -0.48633,0.32227 -0.60938,0.49219 -0.11718,0.16406 -0.17578,0.34863 -0.17578,0.55078 0,0.25781 0.0732,0.46875 0.22266,0.63281 0.15527,0.16407 0.33105,0.2461 0.52734,0.2461 0.27246,0 0.62403,-0.17578 1.05469,-0.52735 z m 3.47168,-5.3789 v 1.59375 h 1.125 v 0.36328 h -1.125 v 3.14062 c 0,0.31348 0.041,0.52442 0.12891,0.63282 0.0937,0.11132 0.21093,0.16406 0.35156,0.16406 0.1084,0 0.21679,-0.0352 0.32812,-0.10547 0.1084,-0.0762 0.19336,-0.1875 0.25782,-0.32813 h 0.21093 c -0.12597,0.34571 -0.30176,0.60645 -0.52734,0.78516 -0.22852,0.17285 -0.45703,0.25781 -0.69141,0.25781 -0.16406,0 -0.32519,-0.0439 -0.48047,-0.1289 -0.1582,-0.0937 -0.27539,-0.22266 -0.35156,-0.38672 -0.0703,-0.16992 -0.10547,-0.4336 -0.10547,-0.78516 v -3.24609 h -0.76172 v -0.17578 c 0.19336,-0.0762 0.39258,-0.20508 0.59766,-0.38672 0.20215,-0.1875 0.38086,-0.4043 0.53906,-0.65625 0.0762,-0.13184 0.19043,-0.37793 0.33985,-0.73828 z m 5.69824,4.58203 c -0.13476,0.6416 -0.39258,1.13379 -0.77344,1.47656 -0.375,0.3457 -0.79394,0.51563 -1.2539,0.51563 -0.54785,0 -1.02539,-0.22852 -1.42969,-0.69141 -0.40723,-0.45996 -0.60938,-1.08399 -0.60938,-1.875 0,-0.75586 0.22266,-1.37402 0.66797,-1.85156 0.45118,-0.47461 0.9961,-0.71485 1.62891,-0.71485 0.47461,0 0.86719,0.12891 1.17187,0.38672 0.30469,0.25195 0.45704,0.5127 0.45704,0.78516 0,0.13476 -0.0439,0.24316 -0.12891,0.32812 -0.0879,0.0791 -0.20801,0.11719 -0.36328,0.11719 -0.20508,0 -0.36035,-0.0644 -0.46875,-0.19922 -0.0557,-0.0762 -0.0937,-0.2168 -0.11719,-0.42187 -0.0176,-0.21094 -0.0879,-0.36914 -0.21094,-0.48047 -0.12597,-0.0996 -0.29882,-0.15235 -0.51562,-0.15235 -0.35156,0 -0.63281,0.12891 -0.84375,0.38672 -0.29004,0.34571 -0.4336,0.80274 -0.4336,1.3711 0,0.57129 0.14063,1.07812 0.42188,1.52343 0.28711,0.43946 0.67383,0.65625 1.16016,0.65625 0.34277,0 0.65039,-0.11718 0.92578,-0.35156 0.19336,-0.15527 0.38086,-0.44824 0.5625,-0.8789 z m 2.11231,-5.66016 v 3.52735 c 0.38964,-0.42188 0.69726,-0.69434 0.92578,-0.82032 0.22558,-0.12304 0.45703,-0.1875 0.6914,-0.1875 0.27246,0 0.50684,0.0791 0.70313,0.23438 0.19336,0.14941 0.33984,0.38672 0.43359,0.71484 0.0703,0.21973 0.10547,0.62988 0.10547,1.23047 v 1.71094 c 0,0.30469 0.0234,0.51269 0.0703,0.62109 0.0381,0.0879 0.0967,0.1582 0.17578,0.21094 0.085,0.0469 0.24024,0.0703 0.46875,0.0703 v 0.1875 h -2.36718 v -0.1875 h 0.10547 c 0.22558,0 0.38086,-0.0352 0.46875,-0.10547 0.085,-0.0703 0.14648,-0.16992 0.1875,-0.30468 0.006,-0.0527 0.0117,-0.2168 0.0117,-0.49219 V -128.8 c 0,-0.53027 -0.0293,-0.87891 -0.082,-1.04297 -0.0557,-0.16406 -0.14062,-0.28418 -0.25781,-0.36328 -0.11719,-0.085 -0.26367,-0.12891 -0.43359,-0.12891 -0.17285,0 -0.35157,0.0469 -0.53907,0.14063 -0.1875,0.0879 -0.41015,0.26953 -0.66796,0.55078 v 2.55469 c 0,0.32812 0.0146,0.53613 0.0469,0.62109 0.0381,0.0791 0.1084,0.14649 0.21094,0.19922 0.0996,0.0557 0.27539,0.082 0.52734,0.082 v 0.1875 h -2.40234 v -0.1875 c 0.2168,0 0.38672,-0.0352 0.5039,-0.10547 0.0703,-0.0293 0.12305,-0.0937 0.16407,-0.1875 0.0469,-0.0996 0.0703,-0.30468 0.0703,-0.60937 v -4.3711 c 0,-0.55371 -0.0176,-0.89355 -0.0469,-1.01953 -0.0234,-0.12304 -0.0645,-0.21093 -0.11718,-0.25781 -0.0557,-0.0469 -0.12598,-0.0703 -0.21094,-0.0703 -0.0791,0 -0.19922,0.0293 -0.36328,0.082 l -0.0703,-0.1875 1.4414,-0.58594 z m -71.75684,-28.5 v -0.19922 h 0.26953 c 0.2959,0 0.50977,-0.0937 0.64453,-0.28125 0.0762,-0.11718 0.11719,-0.37793 0.11719,-0.78515 v -4.61719 c 0,-0.45117 -0.0527,-0.73242 -0.15234,-0.84375 -0.14063,-0.15527 -0.34571,-0.23438 -0.60938,-0.23438 h -0.26953 v -0.1875 h 2.90625 c 1.06934,0 1.88086,0.12305 2.4375,0.36329 0.5625,0.24316 1.01074,0.65039 1.34766,1.21875 0.34277,0.5625 0.51562,1.21582 0.51562,1.95703 0,0.99316 -0.30469,1.82519 -0.91406,2.49609 -0.67969,0.74414 -1.71094,1.11328 -3.09375,1.11328 z m 2.03906,-0.51562 c 0.44531,0.0937 0.82031,0.14062 1.125,0.14062 0.81153,0 1.48828,-0.28418 2.02735,-0.85547 0.53906,-0.56836 0.80859,-1.34765 0.80859,-2.33203 0,-0.98437 -0.26953,-1.76074 -0.80859,-2.33203 -0.53907,-0.56836 -1.23047,-0.85547 -2.07422,-0.85547 -0.31348,0 -0.67383,0.0527 -1.07813,0.15235 z m 83.53125,0.59765 c 0.35742,0.61524 0.74414,1.06934 1.16016,1.35938 0.42187,0.2959 0.89648,0.46289 1.42969,0.5039 v 0.17579 c -0.48633,-0.0234 -1.00489,-0.12598 -1.5586,-0.30469 -0.55664,-0.17285 -1.07812,-0.41895 -1.57031,-0.73828 -0.49219,-0.31348 -0.91992,-0.64453 -1.27734,-0.9961 -0.50977,-0.20215 -0.91114,-0.42187 -1.20704,-0.65625 -0.43066,-0.33398 -0.76757,-0.75293 -1.00781,-1.2539 -0.23437,-0.49805 -0.35156,-1.08985 -0.35156,-1.76953 0,-1.06055 0.3457,-1.94532 1.04297,-2.64844 0.69433,-0.70899 1.53515,-1.06641 2.51953,-1.06641 0.9375,0 1.74609,0.35742 2.42578,1.06641 0.68555,0.70312 1.03125,1.59375 1.03125,2.67187 0,0.87598 -0.24609,1.64649 -0.73828,2.3086 -0.48633,0.66504 -1.11914,1.11328 -1.89844,1.34765 z m -0.89062,-6.99609 c -0.63282,0 -1.14551,0.23144 -1.53516,0.69141 -0.49219,0.57128 -0.73828,1.44726 -0.73828,2.625 0,1.16601 0.24609,2.05957 0.73828,2.68359 0.38965,0.47754 0.90234,0.71484 1.53516,0.71484 0.66211,0 1.19824,-0.2373 1.60547,-0.71484 0.47461,-0.56836 0.71484,-1.41211 0.71484,-2.53125 0,-0.84961 -0.13477,-1.57031 -0.39844,-2.15625 -0.19629,-0.44531 -0.46289,-0.77344 -0.79687,-0.98438 -0.32813,-0.21679 -0.70313,-0.32812 -1.125,-0.32812 z m -255.421878,0.0234 h -2.777343 l -0.480469,1.125 c -0.117188,0.28125 -0.175781,0.48925 -0.175781,0.62109 0,0.11133 0.0498,0.20801 0.152343,0.29297 0.09961,0.0791 0.322266,0.12891 0.667969,0.15234 v 0.19922 h -2.25 v -0.19922 c 0.295899,-0.0469 0.492188,-0.11133 0.585938,-0.19922 0.178711,-0.16992 0.377929,-0.51562 0.597656,-1.03125 l 2.507812,-5.88281 h 0.1875 l 2.496094,5.94141 c 0.19336,0.48633 0.375,0.79687 0.539063,0.9375 0.164062,0.14062 0.389648,0.21972 0.679687,0.23437 v 0.19922 h -2.8125 v -0.19922 c 0.28125,-0.006 0.47168,-0.0498 0.574219,-0.1289 0.09961,-0.085 0.152344,-0.1875 0.152344,-0.30469 0,-0.15527 -0.07031,-0.40137 -0.210938,-0.73828 z m -0.152343,-0.39844 -1.207032,-2.88281 -1.253906,2.88281 z m 49.148441,23.44922 c -0.13477,0.6416 -0.39258,1.13379 -0.77344,1.47656 -0.375,0.3457 -0.79395,0.51563 -1.25391,0.51563 -0.54785,0 -1.02539,-0.22852 -1.42968,-0.69141 -0.40723,-0.45996 -0.60938,-1.08399 -0.60938,-1.875 0,-0.75586 0.22266,-1.37402 0.66797,-1.85156 0.45117,-0.47461 0.99609,-0.71485 1.62891,-0.71485 0.4746,0 0.86718,0.12891 1.17187,0.38672 0.30469,0.25195 0.45703,0.5127 0.45703,0.78516 0,0.13476 -0.0439,0.24316 -0.1289,0.32812 -0.0879,0.0791 -0.20801,0.11719 -0.36329,0.11719 -0.20507,0 -0.36035,-0.0644 -0.46875,-0.19922 -0.0557,-0.0762 -0.0937,-0.2168 -0.11718,-0.42187 -0.0176,-0.21094 -0.0879,-0.36914 -0.21094,-0.48047 -0.12598,-0.0996 -0.29883,-0.15235 -0.51563,-0.15235 -0.35156,0 -0.63281,0.12891 -0.84375,0.38672 -0.29004,0.34571 -0.43359,0.80274 -0.43359,1.3711 0,0.57129 0.14063,1.07812 0.42188,1.52343 0.2871,0.43946 0.67382,0.65625 1.16015,0.65625 0.34277,0 0.65039,-0.11718 0.92578,-0.35156 0.19336,-0.15527 0.38086,-0.44824 0.5625,-0.8789 z m 2.35839,-5.66016 v 6.41016 c 0,0.30469 0.0176,0.50976 0.0586,0.60937 0.0469,0.0937 0.11133,0.16992 0.19922,0.22266 0.0937,0.0469 0.26367,0.0703 0.51562,0.0703 v 0.1875 h -2.36719 v -0.1875 c 0.2168,0 0.36622,-0.0234 0.44532,-0.0703 0.085,-0.0469 0.15234,-0.12012 0.19922,-0.22266 0.0469,-0.1084 0.0703,-0.31054 0.0703,-0.60937 v -4.39453 c 0,-0.54493 -0.0117,-0.87891 -0.0352,-0.9961 -0.0234,-0.12304 -0.0644,-0.21093 -0.11719,-0.25781 -0.0557,-0.0469 -0.12597,-0.0703 -0.21093,-0.0703 -0.0937,0 -0.21094,0.0293 -0.35157,0.082 l -0.0937,-0.1875 1.44141,-0.58594 z m 2.76856,0 v 4.80469 l 1.23047,-1.11328 c 0.25781,-0.24024 0.4043,-0.39258 0.44531,-0.45703 0.0293,-0.0469 0.0469,-0.0879 0.0469,-0.12891 0,-0.0703 -0.0322,-0.12891 -0.0937,-0.17578 -0.0557,-0.0527 -0.14942,-0.085 -0.28125,-0.0937 v -0.16406 h 2.09765 v 0.16406 c -0.29004,0.009 -0.5332,0.0557 -0.72656,0.14062 -0.1875,0.0791 -0.39551,0.21973 -0.62109,0.42188 l -1.24219,1.14844 1.24219,1.57031 c 0.34277,0.43066 0.57421,0.70312 0.6914,0.82031 0.16992,0.16406 0.31934,0.26953 0.44531,0.31641 0.085,0.041 0.23731,0.0586 0.45704,0.0586 v 0.1875 h -2.34375 v -0.1875 c 0.13183,-0.006 0.22265,-0.0264 0.26953,-0.0586 0.0469,-0.0381 0.0703,-0.0937 0.0703,-0.16406 0,-0.0762 -0.0703,-0.20508 -0.21094,-0.38672 l -1.47656,-1.89844 v 1.60547 c 0,0.31347 0.0176,0.52148 0.0586,0.62109 0.0469,0.10254 0.1084,0.17285 0.1875,0.21094 0.085,0.041 0.26075,0.0644 0.52735,0.0703 v 0.1875 h -2.44922 v -0.1875 c 0.24023,0 0.4248,-0.0293 0.55078,-0.0937 0.0703,-0.0381 0.12305,-0.0967 0.16406,-0.17578 0.0527,-0.11719 0.082,-0.31641 0.082,-0.59766 v -4.40625 c 0,-0.5625 -0.0117,-0.90234 -0.0351,-1.01953 -0.0234,-0.12304 -0.0674,-0.21093 -0.12891,-0.25781 -0.0557,-0.0527 -0.12598,-0.082 -0.21094,-0.082 -0.0791,0 -0.19336,0.0322 -0.33984,0.0937 l -0.082,-0.1875 1.42969,-0.58594 z m -63.626954,1.16016 c -0.134765,0.6416 -0.392578,1.13379 -0.773437,1.47656 -0.375,0.3457 -0.793946,0.51563 -1.253907,0.51563 -0.547851,0 -1.02539,-0.22852 -1.429687,-0.69141 -0.407227,-0.45996 -0.609375,-1.08399 -0.609375,-1.875 0,-0.75586 0.222656,-1.37402 0.667969,-1.85156 0.451172,-0.47461 0.996093,-0.71485 1.628906,-0.71485 0.474609,0 0.867187,0.12891 1.171875,0.38672 0.304687,0.25195 0.457031,0.5127 0.457031,0.78516 0,0.13476 -0.04395,0.24316 -0.128906,0.32812 -0.08789,0.0791 -0.208008,0.11719 -0.363281,0.11719 -0.205078,0 -0.360352,-0.0644 -0.46875,-0.19922 -0.05566,-0.0762 -0.09375,-0.2168 -0.117188,-0.42187 -0.01758,-0.21094 -0.08789,-0.36914 -0.210937,-0.48047 -0.125977,-0.0996 -0.298828,-0.15235 -0.515625,-0.15235 -0.351563,0 -0.632813,0.12891 -0.84375,0.38672 -0.290039,0.34571 -0.433594,0.80274 -0.433594,1.3711 0,0.57129 0.140625,1.07812 0.421875,1.52343 0.287109,0.43946 0.673828,0.65625 1.160156,0.65625 0.342774,0 0.650391,-0.11718 0.925781,-0.35156 0.19336,-0.15527 0.38086,-0.44824 0.5625,-0.8789 z m 2.358399,-5.66016 v 6.41016 c 0,0.30469 0.01758,0.50976 0.05859,0.60937 0.04687,0.0937 0.111329,0.16992 0.199219,0.22266 0.09375,0.0469 0.263672,0.0703 0.515625,0.0703 v 0.1875 h -2.367187 v -0.1875 c 0.216797,0 0.366211,-0.0234 0.445312,-0.0703 0.08496,-0.0469 0.152344,-0.12012 0.199219,-0.22266 0.04687,-0.1084 0.07031,-0.31054 0.07031,-0.60937 v -4.39453 c 0,-0.54493 -0.01172,-0.87891 -0.03516,-0.9961 -0.02344,-0.12304 -0.06445,-0.21093 -0.117187,-0.25781 -0.05566,-0.0469 -0.125977,-0.0703 -0.210938,-0.0703 -0.09375,0 -0.210937,0.0293 -0.351562,0.082 l -0.09375,-0.1875 1.441406,-0.58594 z m 2.768554,0 v 4.80469 l 1.230469,-1.11328 c 0.257813,-0.24024 0.404297,-0.39258 0.445313,-0.45703 0.0293,-0.0469 0.04687,-0.0879 0.04687,-0.12891 0,-0.0703 -0.03223,-0.12891 -0.09375,-0.17578 -0.05566,-0.0527 -0.149414,-0.085 -0.28125,-0.0937 v -0.16406 h 2.097656 v 0.16406 c -0.290039,0.009 -0.533203,0.0557 -0.726563,0.14062 -0.1875,0.0791 -0.395507,0.21973 -0.621093,0.42188 l -1.242188,1.14844 1.242188,1.57031 c 0.342773,0.43066 0.574218,0.70312 0.691406,0.82031 0.169922,0.16406 0.319336,0.26953 0.445312,0.31641 0.08496,0.041 0.237305,0.0586 0.457032,0.0586 v 0.1875 h -2.34375 v -0.1875 c 0.131836,-0.006 0.222656,-0.0264 0.269531,-0.0586 0.04687,-0.0381 0.07031,-0.0937 0.07031,-0.16406 0,-0.0762 -0.07031,-0.20508 -0.210937,-0.38672 l -1.476563,-1.89844 v 1.60547 c 0,0.31347 0.01758,0.52148 0.05859,0.62109 0.04687,0.10254 0.108399,0.17285 0.1875,0.21094 0.08496,0.041 0.260742,0.0644 0.527344,0.0703 v 0.1875 h -2.449219 v -0.1875 c 0.240234,0 0.424805,-0.0293 0.550781,-0.0937 0.07031,-0.0381 0.123047,-0.0967 0.164063,-0.17578 0.05273,-0.11719 0.08203,-0.31641 0.08203,-0.59766 v -4.40625 c 0,-0.5625 -0.01172,-0.90234 -0.03516,-1.01953 -0.02344,-0.12304 -0.06738,-0.21093 -0.128906,-0.25781 -0.05566,-0.0527 -0.125977,-0.082 -0.210938,-0.082 -0.0791,0 -0.193359,0.0322 -0.339844,0.0937 l -0.08203,-0.1875 1.429688,-0.58594 z M -4.5585937,-37.839062 c -0.1347657,0.641601 -0.3925782,1.133789 -0.7734375,1.476562 -0.375,0.345703 -0.7939454,0.515625 -1.2539063,0.515625 -0.5478516,0 -1.0253906,-0.228516 -1.4296875,-0.691406 -0.4072266,-0.459961 -0.609375,-1.083985 -0.609375,-1.875 0,-0.75586 0.2226562,-1.374024 0.6679688,-1.851563 0.4511718,-0.474609 0.9960937,-0.714843 1.6289062,-0.714843 0.4746094,0 0.8671875,0.128906 1.171875,0.386718 0.3046875,0.251953 0.4570313,0.512696 0.4570313,0.785157 0,0.134765 -0.043945,0.243164 -0.1289063,0.328125 -0.087891,0.0791 -0.2080078,0.117187 -0.3632812,0.117187 -0.2050782,0 -0.3603516,-0.06445 -0.46875,-0.199219 -0.055664,-0.07617 -0.09375,-0.216797 -0.1171875,-0.421875 -0.017578,-0.210937 -0.087891,-0.36914 -0.2109375,-0.480468 -0.1259766,-0.09961 -0.2988282,-0.152344 -0.515625,-0.152344 -0.3515625,0 -0.6328125,0.128906 -0.84375,0.386719 -0.2900391,0.345703 -0.4335938,0.802734 -0.4335938,1.371093 0,0.571289 0.140625,1.078125 0.421875,1.523438 0.2871094,0.439453 0.6738281,0.65625 1.1601563,0.65625 0.3427734,0 0.6503906,-0.117188 0.9257812,-0.351563 0.1933594,-0.155273 0.3808594,-0.448242 0.5625,-0.878906 z m 2.3583984,-5.660157 v 6.410157 c 0,0.304687 0.017578,0.509765 0.058594,0.609375 0.046875,0.09375 0.1113282,0.169921 0.1992188,0.222656 0.09375,0.04687 0.2636719,0.07031 0.515625,0.07031 v 0.1875 H -3.793945 v -0.1875 c 0.2167969,0 0.3662109,-0.02344 0.4453125,-0.07031 0.084961,-0.04687 0.1523437,-0.120117 0.1992187,-0.222656 0.046875,-0.108399 0.070312,-0.310547 0.070312,-0.609375 v -4.394532 c 0,-0.544922 -0.011719,-0.878906 -0.035156,-0.996093 -0.023437,-0.123047 -0.064453,-0.210938 -0.1171875,-0.257813 -0.055664,-0.04687 -0.1259766,-0.07031 -0.2109375,-0.07031 -0.09375,0 -0.2109375,0.0293 -0.3515625,0.08203 l -0.09375,-0.1875 1.4414062,-0.585938 z m 2.76855467,0 v 4.804688 l 1.23046873,-1.113281 c 0.2578125,-0.240235 0.4042969,-0.392579 0.4453125,-0.457032 0.029297,-0.04687 0.046875,-0.08789 0.046875,-0.128906 0,-0.07031 -0.032227,-0.128906 -0.09375,-0.175781 -0.055664,-0.05274 -0.149414,-0.08496 -0.28125,-0.09375 v -0.164063 h 2.0976563 v 0.164063 c -0.2900391,0.0088 -0.5332031,0.05566 -0.7265625,0.140625 -0.1875,0.0791 -0.3955078,0.219726 -0.6210938,0.421875 l -1.2421875,1.148437 1.2421875,1.570313 c 0.3427735,0.430664 0.5742188,0.703125 0.6914063,0.820312 0.1699219,0.164063 0.3193359,0.269532 0.4453125,0.316407 0.084961,0.04102 0.2373047,0.05859 0.4570312,0.05859 v 0.1875 h -2.34375 v -0.1875 c 0.131836,-0.0059 0.2226563,-0.02637 0.2695313,-0.05859 0.046875,-0.03809 0.070312,-0.09375 0.070312,-0.164063 0,-0.07617 -0.070312,-0.205078 -0.2109375,-0.386719 l -1.47656253,-1.898437 v 1.605469 c 0,0.313476 0.0175781,0.521484 0.0585938,0.621093 0.046875,0.102539 0.10839844,0.172852 0.18750001,0.210938 0.0849609,0.04101 0.26074222,0.06445 0.52734382,0.07031 v 0.1875 h -2.4492188 v -0.1875 c 0.24023435,0 0.42480466,-0.0293 0.55078123,-0.09375 0.0703125,-0.03809 0.12304687,-0.09668 0.16406249,-0.175781 0.0527344,-0.117187 0.0820313,-0.316406 0.0820313,-0.597656 v -4.40625 c 0,-0.5625 -0.0117188,-0.902344 -0.0351563,-1.019531 -0.0234375,-0.123047 -0.0673828,-0.210938 -0.12890625,-0.257813 -0.0556641,-0.05273 -0.12597656,-0.08203 -0.21093749,-0.08203 -0.0791016,0 -0.19335938,0.03223 -0.33984368,0.09375 l -0.082031,-0.1875 1.42968748,-0.585938 z M 233.94141,-145.83906 c -0.13477,0.6416 -0.39258,1.13379 -0.77344,1.47656 -0.375,0.3457 -0.79395,0.51563 -1.25391,0.51563 -0.54785,0 -1.02539,-0.22852 -1.42969,-0.69141 -0.40722,-0.45996 -0.60937,-1.08399 -0.60937,-1.875 0,-0.75586 0.22266,-1.37402 0.66797,-1.85156 0.45117,-0.47461 0.99609,-0.71485 1.6289,-0.71485 0.47461,0 0.86719,0.12891 1.17188,0.38672 0.30469,0.25195 0.45703,0.5127 0.45703,0.78516 0,0.13476 -0.0439,0.24316 -0.12891,0.32812 -0.0879,0.0791 -0.208,0.11719 -0.36328,0.11719 -0.20507,0 -0.36035,-0.0644 -0.46875,-0.19922 -0.0557,-0.0762 -0.0937,-0.2168 -0.11718,-0.42187 -0.0176,-0.21094 -0.0879,-0.36914 -0.21094,-0.48047 -0.12598,-0.0996 -0.29883,-0.15235 -0.51563,-0.15235 -0.35156,0 -0.63281,0.12891 -0.84375,0.38672 -0.29004,0.34571 -0.43359,0.80274 -0.43359,1.3711 0,0.57129 0.14062,1.07812 0.42187,1.52343 0.28711,0.43946 0.67383,0.65625 1.16016,0.65625 0.34277,0 0.65039,-0.11718 0.92578,-0.35156 0.19336,-0.15527 0.38086,-0.44824 0.5625,-0.8789 z m 2.35839,-5.66016 v 6.41016 c 0,0.30469 0.0176,0.50976 0.0586,0.60937 0.0469,0.0937 0.11133,0.16992 0.19922,0.22266 0.0937,0.0469 0.26367,0.0703 0.51562,0.0703 v 0.1875 h -2.36719 v -0.1875 c 0.2168,0 0.36622,-0.0234 0.44532,-0.0703 0.085,-0.0469 0.15234,-0.12012 0.19922,-0.22266 0.0469,-0.1084 0.0703,-0.31054 0.0703,-0.60937 v -4.39453 c 0,-0.54493 -0.0117,-0.87891 -0.0352,-0.9961 -0.0234,-0.12304 -0.0644,-0.21093 -0.11719,-0.25781 -0.0557,-0.0469 -0.12597,-0.0703 -0.21093,-0.0703 -0.0937,0 -0.21094,0.0293 -0.35157,0.082 l -0.0937,-0.1875 1.44141,-0.58594 z m 2.76856,0 v 4.80469 l 1.23047,-1.11328 c 0.25781,-0.24024 0.40429,-0.39258 0.44531,-0.45703 0.0293,-0.0469 0.0469,-0.0879 0.0469,-0.12891 0,-0.0703 -0.0322,-0.12891 -0.0937,-0.17578 -0.0557,-0.0527 -0.14942,-0.085 -0.28125,-0.0937 v -0.16406 h 2.09765 v 0.16406 c -0.29004,0.009 -0.5332,0.0557 -0.72656,0.14062 -0.1875,0.0791 -0.39551,0.21973 -0.62109,0.42188 l -1.24219,1.14844 1.24219,1.57031 c 0.34277,0.43066 0.57421,0.70312 0.6914,0.82031 0.16992,0.16406 0.31934,0.26953 0.44531,0.31641 0.085,0.041 0.23731,0.0586 0.45704,0.0586 v 0.1875 h -2.34375 v -0.1875 c 0.13183,-0.006 0.22265,-0.0264 0.26953,-0.0586 0.0469,-0.0381 0.0703,-0.0937 0.0703,-0.16406 0,-0.0762 -0.0703,-0.20508 -0.21094,-0.38672 l -1.47656,-1.89844 v 1.60547 c 0,0.31347 0.0176,0.52148 0.0586,0.62109 0.0469,0.10254 0.1084,0.17285 0.1875,0.21094 0.085,0.041 0.26075,0.0644 0.52735,0.0703 v 0.1875 h -2.44922 v -0.1875 c 0.24023,0 0.4248,-0.0293 0.55078,-0.0937 0.0703,-0.0381 0.12305,-0.0967 0.16406,-0.17578 0.0527,-0.11719 0.082,-0.31641 0.082,-0.59766 v -4.40625 c 0,-0.5625 -0.0117,-0.90234 -0.0351,-1.01953 -0.0234,-0.12304 -0.0674,-0.21093 -0.12891,-0.25781 -0.0557,-0.0527 -0.12598,-0.082 -0.21094,-0.082 -0.0791,0 -0.19336,0.0322 -0.33984,0.0937 l -0.082,-0.1875 1.42969,-0.58594 z m 0,0"
       style="fill:#000000;fill-opacity:1;fill-rule:nonzero;stroke:none"
       aria-label="A&#10;D clock latch&#10;DQ&#10;D clock latch&#10;DQ&#10;A&#10;clk&#10;clk&#10;clk&#10;clk"
       transform="matrix(1.3333333,0,0,1.3333333,12,235.73333)" />
    <path
       id="path24"
       d="m 1440,1942 c 0,-24.85 -20.15,-45 -45,-45 -24.85,0 -45,20.15 -45,45 0,24.85 20.15,45 45,45 24.85,0 45,-20.15 45,-45"
       style="fill:#ffffff;fill-opacity:1;fill-rule:evenodd;stroke:none"
       transform="matrix(0.13333333,0,0,-0.13333333,0,362.66667)" />
    <path
       id="path25"
       d="m 1440,1942 c 0,-24.85 -20.15,-45 -45,-45 -24.85,0 -45,20.15 -45,45 0,24.85 20.15,45 45,45 24.85,0 45,-20.15 45,-45 z"
       style="fill:none;stroke:#000000;stroke-width:4.5;stroke-linecap:butt;stroke-linejoin:miter;stroke-miterlimit:10;stroke-dasharray:none;stroke-opacity:1"
       transform="matrix(0.13333333,0,0,-0.13333333,0,362.66667)" />
    <path
       id="path26"
       d="m 1350,1942 -270,135 v -270"
       style="fill:#ffffff;fill-opacity:1;fill-rule:evenodd;stroke:none"
       transform="matrix(0.13333333,0,0,-0.13333333,0,362.66667)" />
    <path
       id="path27"
       d="m 1350,1942 -270,135 v -270 z"
       style="fill:none;stroke:#000000;stroke-width:4.5;stroke-linecap:butt;stroke-linejoin:miter;stroke-miterlimit:10;stroke-dasharray:none;stroke-opacity:1"
       transform="matrix(0.13333333,0,0,-0.13333333,0,362.66667)" />
    <path
       id="path28"
       d="m 900,1942 h 180"
       style="fill:none;stroke:#000000;stroke-width:4.5;stroke-linecap:butt;stroke-linejoin:miter;stroke-miterlimit:10;stroke-dasharray:none;stroke-opacity:1"
       transform="matrix(0.13333333,0,0,-0.13333333,0,362.66667)" />
    <path
       id="path29"
       d="m 1440,1942 h 180"
       style="fill:none;stroke:#000000;stroke-width:4.5;stroke-linecap:butt;stroke-linejoin:miter;stroke-miterlimit:10;stroke-dasharray:none;stroke-opacity:1"
       transform="matrix(0.13333333,0,0,-0.13333333,0,362.66667)" />
    <g
       id="use825"
       transform="matrix(1.1701001,0,0,1.1993381,24.299096,313.73957)"
       style="stroke-width:0.922591">
      <path
         d="M 0,20 H 20"
         class="s1"
         id="path30"
         style="fill:none;stroke:#000000;stroke-width:0.511232;stroke-linecap:round;stroke-linejoin:miter;stroke-miterlimit:4;stroke-dasharray:none;stroke-opacity:1" />
      <path
         d="M 0,0 H 17.207443 20"
         class="s1"
         id="path31"
         style="fill:none;stroke:#000000;stroke-width:0.511232;stroke-linecap:round;stroke-linejoin:miter;stroke-miterlimit:4;stroke-dasharray:none;stroke-opacity:1"
         sodipodi:nodetypes="ccc" />
      <path
         d="M 0,5 5,0"
         class="s2"
         id="path32"
         style="fill:none;stroke:#000000;stroke-width:0.461296;stroke-linecap:round;stroke-linejoin:miter;stroke-miterlimit:4;stroke-dasharray:none;stroke-opacity:1" />
      <path
         d="M 0,10 10,0"
         class="s2"
         id="path33"
         style="fill:none;stroke:#000000;stroke-width:0.461296;stroke-linecap:round;stroke-linejoin:miter;stroke-miterlimit:4;stroke-dasharray:none;stroke-opacity:1" />
      <path
         d="M 0,15 15,0"
         class="s2"
         id="path43"
         style="fill:none;stroke:#000000;stroke-width:0.461296;stroke-linecap:round;stroke-linejoin:miter;stroke-miterlimit:4;stroke-dasharray:none;stroke-opacity:1" />
      <path
         d="M 0,20 20,0"
         class="s2"
         id="path44"
         style="fill:none;stroke:#000000;stroke-width:0.461296;stroke-linecap:round;stroke-linejoin:miter;stroke-miterlimit:4;stroke-dasharray:none;stroke-opacity:1" />
      <path
         d="M 5,20 20,5"
         class="s2"
         id="path45"
         style="fill:none;stroke:#000000;stroke-width:0.461296;stroke-linecap:round;stroke-linejoin:miter;stroke-miterlimit:4;stroke-dasharray:none;stroke-opacity:1" />
      <path
         d="M 10,20 20,10"
         class="s2"
         id="path46"
         style="fill:none;stroke:#000000;stroke-width:0.461296;stroke-linecap:round;stroke-linejoin:miter;stroke-miterlimit:4;stroke-dasharray:none;stroke-opacity:1" />
      <path
         d="m 15,20 5,-5"
         class="s2"
         id="path47"
         style="fill:none;stroke:#000000;stroke-width:0.461296;stroke-linecap:round;stroke-linejoin:miter;stroke-miterlimit:4;stroke-dasharray:none;stroke-opacity:1" />
    </g>
    <g
       id="use825-1"
       transform="matrix(1.215028,0,0,1.1993381,47.694096,313.74957)"
       style="stroke-width:0.905372">
      <path
         d="M 0,20 H 20"
         class="s1"
         id="path30-5"
         style="fill:none;stroke:#000000;stroke-width:0.501691;stroke-linecap:round;stroke-linejoin:miter;stroke-miterlimit:4;stroke-dasharray:none;stroke-opacity:1" />
      <path
         d="M 0,0 H 17.207443 20"
         class="s1"
         id="path31-2"
         style="fill:none;stroke:#000000;stroke-width:0.501691;stroke-linecap:round;stroke-linejoin:miter;stroke-miterlimit:4;stroke-dasharray:none;stroke-opacity:1"
         sodipodi:nodetypes="ccc" />
      <path
         d="M 0,5 5,0"
         class="s2"
         id="path32-7"
         style="fill:none;stroke:#000000;stroke-width:0.452688;stroke-linecap:round;stroke-linejoin:miter;stroke-miterlimit:4;stroke-dasharray:none;stroke-opacity:1" />
      <path
         d="M 0,10 10,0"
         class="s2"
         id="path33-6"
         style="fill:none;stroke:#000000;stroke-width:0.452688;stroke-linecap:round;stroke-linejoin:miter;stroke-miterlimit:4;stroke-dasharray:none;stroke-opacity:1" />
      <path
         d="M 0,15 15,0"
         class="s2"
         id="path43-1"
         style="fill:none;stroke:#000000;stroke-width:0.452688;stroke-linecap:round;stroke-linejoin:miter;stroke-miterlimit:4;stroke-dasharray:none;stroke-opacity:1" />
      <path
         d="M 0,20 20,0"
         class="s2"
         id="path44-4"
         style="fill:none;stroke:#000000;stroke-width:0.452688;stroke-linecap:round;stroke-linejoin:miter;stroke-miterlimit:4;stroke-dasharray:none;stroke-opacity:1" />
      <path
         d="M 5,20 20,5"
         class="s2"
         id="path45-2"
         style="fill:none;stroke:#000000;stroke-width:0.452688;stroke-linecap:round;stroke-linejoin:miter;stroke-miterlimit:4;stroke-dasharray:none;stroke-opacity:1" />
      <path
         d="M 10,20 20,10"
         class="s2"
         id="path46-3"
         style="fill:none;stroke:#000000;stroke-width:0.452688;stroke-linecap:round;stroke-linejoin:miter;stroke-miterlimit:4;stroke-dasharray:none;stroke-opacity:1" />
      <path
         d="m 15,20 5,-5"
         class="s2"
         id="path47-2"
         style="fill:none;stroke:#000000;stroke-width:0.452688;stroke-linecap:round;stroke-linejoin:miter;stroke-miterlimit:4;stroke-dasharray:none;stroke-opacity:1" />
    </g>
    <path
       id="path14-5"
       d="m 24,265.733 h 36 v 24 h 72 v -24 h 197.99999 v 24 h 90 v -24 h 12 v 24 h 6 v -24 h 108"
       style="fill:none;stroke:#000000;stroke-width:0.6;stroke-linecap:butt;stroke-linejoin:miter;stroke-miterlimit:10;stroke-dasharray:none;stroke-opacity:1"
       sodipodi:nodetypes="cccccccccccccc" />
    <path
       style="fill:none;stroke:#000000;stroke-width:0.6;stroke-dasharray:none;stroke-opacity:1"
       d="M 71.994656,337.73633 168,337.733 v -24 h 96 48 48 v 24 l 96,0 v -24 l 90,0"
       id="path49"
       sodipodi:nodetypes="cccccccccc" />
  </g>
  <metadata
     id="metadata49">
    <rdf:RDF>
      <cc:Work
         rdf:about="">
        <cc:license
           rdf:resource="http://creativecommons.org/licenses/by-nc-sa/4.0/" />
      </cc:Work>
      <cc:License
         rdf:about="http://creativecommons.org/licenses/by-nc-sa/4.0/">
        <cc:permits
           rdf:resource="http://creativecommons.org/ns#Reproduction" />
        <cc:permits
           rdf:resource="http://creativecommons.org/ns#Distribution" />
        <cc:requires
           rdf:resource="http://creativecommons.org/ns#Notice" />
        <cc:requires
           rdf:resource="http://creativecommons.org/ns#Attribution" />
        <cc:prohibits
           rdf:resource="http://creativecommons.org/ns#CommercialUse" />
        <cc:permits
           rdf:resource="http://creativecommons.org/ns#DerivativeWorks" />
        <cc:requires
           rdf:resource="http://creativecommons.org/ns#ShareAlike" />
      </cc:License>
    </rdf:RDF>
  </metadata>
</svg>
