<?xml version="1.0" standalone="no"?>
<svg xmlns="http://www.w3.org/2000/svg" xmlns:xlink="http://www.w3.org/1999/xlink" width="870pt" height="232pt" viewBox="0.00 0.00 870.30 232.00">
<g id="graph0" class="graph" transform="translate(4,228) scale(1)" data-name="FSM">

<polygon fill="white" stroke="none" points="-4,4 -4,-228 866.3,-228 866.3,4 -4,4" style=""/>
<!-- start -->
<g id="node1" class="node" pointer-events="visible" data-name="start">

<ellipse fill="none" stroke="black" cx="32.49" cy="-76" rx="32.48" ry="18" style=""/>
<text text-anchor="middle" x="32.49" y="-71.8" font-family="Times,serif" font-size="14.00" style="">*start</text>
</g>
<!-- start&#45;&gt;start -->
<g id="edge1" class="edge" data-name="start-&gt;start">

<path fill="none" stroke="black" d="M21.13,-93.04C18.81,-102.86 22.6,-112 32.49,-112 38.21,-112 41.89,-108.94 43.52,-104.47" style=""/>
<polygon fill="black" stroke="black" points="47.02,-104.65 43.81,-94.55 40.02,-104.45 47.02,-104.65" style=""/>
</g>
<!-- FloorCall -->
<g id="node3" class="node" pointer-events="visible" data-name="FloorCall">

<ellipse fill="none" stroke="black" cx="176.78" cy="-100" rx="48.11" ry="18" style=""/>
<text text-anchor="middle" x="176.78" y="-95.8" font-family="Times,serif" font-size="14.00" style="">FloorCall</text>
</g>
<!-- start&#45;&gt;FloorCall -->
<g id="edge2" class="edge" data-name="start-&gt;FloorCall">

<path fill="none" stroke="black" d="M64.02,-81.15C80.67,-83.96 101.79,-87.52 121.18,-90.79" style=""/>
<polygon fill="black" stroke="black" points="120.41,-94.21 130.86,-92.42 121.58,-87.31 120.41,-94.21" style=""/>
<text text-anchor="middle" x="96.59" y="-93.2" font-family="Times,serif" font-size="14.00" style="">Creq</text>
</g>
<!-- PanelCall -->
<g id="node4" class="node" pointer-events="visible" data-name="PanelCall">

<ellipse fill="none" stroke="black" cx="176.78" cy="-46" rx="48.67" ry="18" style=""/>
<text text-anchor="middle" x="176.78" y="-41.8" font-family="Times,serif" font-size="14.00" style="">PanelCall</text>
</g>
<!-- start&#45;&gt;PanelCall -->
<g id="edge3" class="edge" data-name="start-&gt;PanelCall">

<path fill="none" stroke="black" d="M62.76,-68.82C69.4,-67.24 76.42,-65.62 82.98,-64.2 95.52,-61.48 109.04,-58.72 121.78,-56.21" style=""/>
<polygon fill="black" stroke="black" points="122.11,-59.71 131.25,-54.36 120.77,-52.84 122.11,-59.71" style=""/>
<text text-anchor="middle" x="96.59" y="-69.2" font-family="Times,serif" font-size="14.00" style="">Preq</text>
</g>
<!-- Done -->
<g id="node2" class="node" pointer-events="visible" data-name="Done">

<ellipse fill="none" stroke="black" cx="830.35" cy="-55" rx="31.91" ry="18" style=""/>
<text text-anchor="middle" x="830.35" y="-50.8" font-family="Times,serif" font-size="14.00" style="">Done</text>
</g>
<!-- Done&#45;&gt;start -->
<g id="edge21" class="edge" data-name="Done-&gt;start">

<path fill="none" stroke="black" d="M807.34,-42.1C777.45,-25.85 721.89,0 670.73,0 175.78,0 175.78,0 175.78,0 130.19,0 85.04,-30.74 58.21,-53.12" style=""/>
<polygon fill="black" stroke="black" points="55.94,-50.45 50.65,-59.63 60.51,-55.75 55.94,-50.45" style=""/>
</g>
<!-- Move -->
<g id="node5" class="node" pointer-events="visible" data-name="Move">

<ellipse fill="none" stroke="black" cx="300.22" cy="-100" rx="37.71" ry="18" style=""/>
<text text-anchor="middle" x="300.22" y="-95.8" font-family="Times,serif" font-size="14.00" style="">Move?</text>
</g>
<!-- FloorCall&#45;&gt;Move -->
<g id="edge4" class="edge" data-name="FloorCall-&gt;Move">

<path fill="none" stroke="black" d="M225.08,-100C233.6,-100 242.48,-100 251.02,-100" style=""/>
<polygon fill="black" stroke="black" points="250.87,-103.5 260.87,-100 250.87,-96.5 250.87,-103.5" style=""/>
</g>
<!-- PanelCall&#45;&gt;Move -->
<g id="edge5" class="edge" data-name="PanelCall-&gt;Move">

<path fill="none" stroke="black" d="M209.05,-59.91C225.12,-67.05 244.81,-75.8 261.68,-83.31" style=""/>
<polygon fill="black" stroke="black" points="259.83,-86.31 270.39,-87.18 262.67,-79.92 259.83,-86.31" style=""/>
</g>
<!-- Move&#45;&gt;start -->
<g id="edge8" class="edge" data-name="Move-&gt;start">

<path fill="none" stroke="black" d="M272.15,-112.49C258.44,-118.13 241.36,-124.17 225.37,-127 182.84,-134.53 170.69,-134.72 128.2,-127 103.86,-122.58 79.35,-109.07 61.36,-97.07" style=""/>
<polygon fill="black" stroke="black" points="63.54,-94.32 53.33,-91.49 59.54,-100.07 63.54,-94.32" style=""/>
<text text-anchor="middle" x="176.78" y="-136.2" font-family="Times,serif" font-size="14.00" style="">E</text>
</g>
<!-- aUp -->
<g id="node6" class="node" pointer-events="visible" data-name="aUp">

<ellipse fill="none" stroke="black" cx="423.64" cy="-76" rx="39.42" ry="18" style=""/>
<text text-anchor="middle" x="423.64" y="-71.8" font-family="Times,serif" font-size="14.00" style="">aligned</text>
</g>
<!-- Move&#45;&gt;aUp -->
<g id="edge6" class="edge" data-name="Move-&gt;aUp">

<path fill="none" stroke="black" d="M335.69,-93.19C348.18,-90.72 362.5,-87.89 375.87,-85.24" style=""/>
<polygon fill="black" stroke="black" points="376.2,-88.75 385.33,-83.37 374.84,-81.88 376.2,-88.75" style=""/>
<text text-anchor="middle" x="361.13" y="-93.2" font-family="Times,serif" font-size="14.00" style="">G</text>
</g>
<!-- aDown -->
<g id="node9" class="node" pointer-events="visible" data-name="aDown">

<ellipse fill="none" stroke="black" cx="423.64" cy="-165" rx="39.42" ry="18" style=""/>
<text text-anchor="middle" x="423.64" y="-160.8" font-family="Times,serif" font-size="14.00" style="">aligned</text>
</g>
<!-- Move&#45;&gt;aDown -->
<g id="edge7" class="edge" data-name="Move-&gt;aDown">

<path fill="none" stroke="black" d="M326.38,-113.47C343.92,-122.86 367.59,-135.53 387.06,-145.95" style=""/>
<polygon fill="black" stroke="black" points="385.29,-148.98 395.76,-150.61 388.6,-142.81 385.29,-148.98" style=""/>
<text text-anchor="middle" x="361.13" y="-138.2" font-family="Times,serif" font-size="14.00" style="">L</text>
</g>
<!-- aUp&#45;&gt;aUp -->
<g id="edge9" class="edge" data-name="aUp-&gt;aUp">

<path fill="none" stroke="black" d="M412.48,-93.41C410.4,-103.09 414.12,-112 423.64,-112 429.15,-112 432.71,-109.02 434.34,-104.64" style=""/>
<polygon fill="black" stroke="black" points="437.83,-105.06 434.74,-94.92 430.83,-104.77 437.83,-105.06" style=""/>
<text text-anchor="middle" x="423.64" y="-116.2" font-family="Times,serif" font-size="14.00" style="">align</text>
</g>
<!-- decUp -->
<g id="node7" class="node" pointer-events="visible" data-name="decUp">

<ellipse fill="none" stroke="black" cx="556.62" cy="-99" rx="27" ry="18" style=""/>
<text text-anchor="middle" x="556.62" y="-94.8" font-family="Times,serif" font-size="14.00" style="">dec</text>
</g>
<!-- aUp&#45;&gt;decUp -->
<g id="edge10" class="edge" data-name="aUp-&gt;decUp">

<path fill="none" stroke="black" d="M460.78,-82.35C478.79,-85.51 500.54,-89.33 518.66,-92.51" style=""/>
<polygon fill="black" stroke="black" points="518.03,-95.95 528.48,-94.24 519.24,-89.06 518.03,-95.95" style=""/>
<text text-anchor="middle" x="496.36" y="-95.2" font-family="Times,serif" font-size="14.00" style="">align'</text>
</g>
<!-- uaUp -->
<g id="node8" class="node" pointer-events="visible" data-name="uaUp">

<ellipse fill="none" stroke="black" cx="669.73" cy="-55" rx="49.23" ry="18" style=""/>
<text text-anchor="middle" x="669.73" y="-50.8" font-family="Times,serif" font-size="14.00" style="">unaligned</text>
</g>
<!-- decUp&#45;&gt;uaUp -->
<g id="edge11" class="edge" data-name="decUp-&gt;uaUp">

<path fill="none" stroke="black" d="M580.37,-89.99C593.27,-84.88 609.84,-78.32 625.14,-72.26" style=""/>
<polygon fill="black" stroke="black" points="626.05,-75.67 634.06,-68.73 623.48,-69.16 626.05,-75.67" style=""/>
</g>
<!-- uaUp&#45;&gt;Done -->
<g id="edge14" class="edge" data-name="uaUp-&gt;Done">

<path fill="none" stroke="black" d="M719.19,-55C740.76,-55 765.95,-55 786.79,-55" style=""/>
<polygon fill="black" stroke="black" points="786.67,-58.5 796.67,-55 786.67,-51.5 786.67,-58.5" style=""/>
<text text-anchor="middle" x="758.62" y="-59.2" font-family="Times,serif" font-size="14.00" style="">align*E</text>
</g>
<!-- uaUp&#45;&gt;aUp -->
<g id="edge13" class="edge" data-name="uaUp-&gt;aUp">

<path fill="none" stroke="black" d="M620.65,-52.78C593.8,-52.11 559.78,-52.22 529.62,-55.2 509.87,-57.15 488.32,-61.1 469.91,-65.03" style=""/>
<polygon fill="black" stroke="black" points="469.39,-61.56 460.38,-67.14 470.9,-68.4 469.39,-61.56" style=""/>
<text text-anchor="middle" x="556.62" y="-60.2" font-family="Times,serif" font-size="14.00" style="">align*E'</text>
</g>
<!-- uaUp&#45;&gt;uaUp -->
<g id="edge12" class="edge" data-name="uaUp-&gt;uaUp">

<path fill="none" stroke="black" d="M657.58,-72.78C655.51,-82.31 659.57,-91 669.73,-91 675.45,-91 679.24,-88.25 681.09,-84.15" style=""/>
<polygon fill="black" stroke="black" points="684.57,-84.51 681.78,-74.29 677.59,-84.02 684.57,-84.51" style=""/>
<text text-anchor="middle" x="669.73" y="-95.2" font-family="Times,serif" font-size="14.00" style="">align'</text>
</g>
<!-- aDown&#45;&gt;aDown -->
<g id="edge15" class="edge" data-name="aDown-&gt;aDown">

<path fill="none" stroke="black" d="M412.48,-182.41C410.4,-192.09 414.12,-201 423.64,-201 429.15,-201 432.71,-198.02 434.34,-193.64" style=""/>
<polygon fill="black" stroke="black" points="437.83,-194.06 434.74,-183.92 430.83,-193.77 437.83,-194.06" style=""/>
<text text-anchor="middle" x="423.64" y="-205.2" font-family="Times,serif" font-size="14.00" style="">align</text>
</g>
<!-- incDw -->
<g id="node10" class="node" pointer-events="visible" data-name="incDw">

<ellipse fill="none" stroke="black" cx="556.62" cy="-206" rx="27" ry="18" style=""/>
<text text-anchor="middle" x="556.62" y="-201.8" font-family="Times,serif" font-size="14.00" style="">inc</text>
</g>
<!-- aDown&#45;&gt;incDw -->
<g id="edge16" class="edge" data-name="aDown-&gt;incDw">

<path fill="none" stroke="black" d="M457.02,-175.13C476.48,-181.23 501.25,-188.98 521.09,-195.19" style=""/>
<polygon fill="black" stroke="black" points="519.8,-198.46 530.39,-198.1 521.89,-191.78 519.8,-198.46" style=""/>
<text text-anchor="middle" x="496.36" y="-195.2" font-family="Times,serif" font-size="14.00" style="">align'</text>
</g>
<!-- uaDw -->
<g id="node11" class="node" pointer-events="visible" data-name="uaDw">

<ellipse fill="none" stroke="black" cx="669.73" cy="-153" rx="49.23" ry="18" style=""/>
<text text-anchor="middle" x="669.73" y="-148.8" font-family="Times,serif" font-size="14.00" style="">unaligned</text>
</g>
<!-- incDw&#45;&gt;uaDw -->
<g id="edge17" class="edge" data-name="incDw-&gt;uaDw">

<path fill="none" stroke="black" d="M579.31,-195.66C593.32,-188.97 611.99,-180.06 628.64,-172.12" style=""/>
<polygon fill="black" stroke="black" points="629.81,-175.44 637.33,-167.98 626.8,-169.13 629.81,-175.44" style=""/>
</g>
<!-- uaDw&#45;&gt;Done -->
<g id="edge20" class="edge" data-name="uaDw-&gt;Done">

<path fill="none" stroke="black" d="M695.87,-137.47C723.65,-120.31 768.42,-92.64 798.36,-74.15" style=""/>
<polygon fill="black" stroke="black" points="799.94,-77.28 806.61,-69.05 796.26,-71.33 799.94,-77.28" style=""/>
<text text-anchor="middle" x="758.62" y="-114.2" font-family="Times,serif" font-size="14.00" style="">align*E</text>
</g>
<!-- uaDw&#45;&gt;aDown -->
<g id="edge19" class="edge" data-name="uaDw-&gt;aDown">

<path fill="none" stroke="black" d="M620.59,-155.37C578.39,-157.44 517.29,-160.45 474.58,-162.55" style=""/>
<polygon fill="black" stroke="black" points="474.65,-159.04 464.83,-163.02 474.99,-166.03 474.65,-159.04" style=""/>
<text text-anchor="middle" x="556.62" y="-163.2" font-family="Times,serif" font-size="14.00" style="">align*E'</text>
</g>
<!-- uaDw&#45;&gt;uaDw -->
<g id="edge18" class="edge" data-name="uaDw-&gt;uaDw">

<path fill="none" stroke="black" d="M657.58,-170.78C655.51,-180.31 659.57,-189 669.73,-189 675.45,-189 679.24,-186.25 681.09,-182.15" style=""/>
<polygon fill="black" stroke="black" points="684.57,-182.51 681.78,-172.29 677.59,-182.02 684.57,-182.51" style=""/>
<text text-anchor="middle" x="669.73" y="-193.2" font-family="Times,serif" font-size="14.00" style="">align'</text>
</g>
</g>
</svg>
