<?xml version="1.0" encoding="UTF-8" standalone="no"?>
<!-- Created with Inkscape (http://www.inkscape.org/) -->

<svg
   version="1.1"
   id="svg1"
   width="304"
   height="292"
   viewBox="0 0 304 292"
   sodipodi:docname="Sol7-8.svg"
   inkscape:export-filename="Sol7-8.pdf"
   inkscape:export-xdpi="96"
   inkscape:export-ydpi="96"
   inkscape:version="1.4 (86a8ad7, 2024-10-11)"
   xmlns:inkscape="http://www.inkscape.org/namespaces/inkscape"
   xmlns:sodipodi="http://sodipodi.sourceforge.net/DTD/sodipodi-0.dtd"
   xmlns="http://www.w3.org/2000/svg"
   xmlns:svg="http://www.w3.org/2000/svg">
  <defs
     id="defs1">
    <inkscape:path-effect
       effect="bspline"
       id="path-effect132"
       is_visible="true"
       lpeversion="1.3"
       weight="33.333333"
       steps="2"
       helper_size="0"
       apply_no_weight="true"
       apply_with_weight="true"
       only_selected="false"
       uniform="false" />
    <inkscape:path-effect
       effect="bspline"
       id="path-effect131"
       is_visible="true"
       lpeversion="1.3"
       weight="33.333333"
       steps="2"
       helper_size="0"
       apply_no_weight="true"
       apply_with_weight="true"
       only_selected="false"
       uniform="false" />
    <inkscape:path-effect
       effect="bspline"
       id="path-effect130"
       is_visible="true"
       lpeversion="1.3"
       weight="33.333333"
       steps="2"
       helper_size="0"
       apply_no_weight="true"
       apply_with_weight="true"
       only_selected="false"
       uniform="false" />
    <inkscape:path-effect
       effect="bspline"
       id="path-effect129"
       is_visible="true"
       lpeversion="1.3"
       weight="33.333333"
       steps="2"
       helper_size="0"
       apply_no_weight="true"
       apply_with_weight="true"
       only_selected="false"
       uniform="false" />
    <marker
       style="overflow:visible"
       id="ArrowWideRounded"
       refX="0"
       refY="0"
       orient="auto-start-reverse"
       inkscape:stockid="Wide, rounded arrow"
       markerWidth="2"
       markerHeight="2"
       viewBox="0 0 1 1"
       inkscape:isstock="true"
       inkscape:collect="always"
       preserveAspectRatio="xMidYMid">
      <path
         style="fill:none;stroke:context-stroke;stroke-width:1;stroke-linecap:round"
         d="M 3,-3 0,0 3,3"
         transform="rotate(180,0.125,0)"
         sodipodi:nodetypes="ccc"
         id="path128" />
    </marker>
    <inkscape:path-effect
       effect="bspline"
       id="path-effect127"
       is_visible="true"
       lpeversion="1.3"
       weight="33.333333"
       steps="2"
       helper_size="0"
       apply_no_weight="true"
       apply_with_weight="true"
       only_selected="false"
       uniform="false" />
    <clipPath
       clipPathUnits="userSpaceOnUse"
       id="clipPath11">
      <path
         d="M 0,2190 H 2280 V 0 H 0 Z m 1541.2,-305.8 13.8,33.6 -65.4,25.8 43.8,-37.2 -57,3.6 z"
         clip-rule="evenodd"
         id="path11" />
    </clipPath>
    <clipPath
       clipPathUnits="userSpaceOnUse"
       id="clipPath15">
      <path
         d="M 0,2190 H 2280 V 0 H 0 Z m 2071.6,-799 27.6,22.8 -45,54 21,-53.4 -48.6,30 z"
         clip-rule="evenodd"
         id="path15" />
    </clipPath>
    <clipPath
       clipPathUnits="userSpaceOnUse"
       id="clipPath19">
      <path
         d="M 0,2190 H 2280 V 0 H 0 Z m 1969.6,-1413.398 34.2,-11.403 22.2,66 -33.6,-45.597 v 57 z"
         clip-rule="evenodd"
         id="path19" />
    </clipPath>
    <clipPath
       clipPathUnits="userSpaceOnUse"
       id="clipPath23">
      <path
         d="M 0,2190 H 2280 V 0 H 0 Z m 1567.6,-1849.602 18.6,-31.199 60,36 -55.2,-12.597 36.6,43.796 z"
         clip-rule="evenodd"
         id="path23" />
    </clipPath>
    <clipPath
       clipPathUnits="userSpaceOnUse"
       id="clipPath27">
      <path
         d="M 0,2190 H 2280 V 0 H 0 Z M 901,167 v -36 h 70.199 l -54,18 54,18 z"
         clip-rule="evenodd"
         id="path27" />
    </clipPath>
    <clipPath
       clipPathUnits="userSpaceOnUse"
       id="clipPath31">
      <path
         d="M 0,2190 H 2280 V 0 H 0 Z m 469,-1708 -29.398,-21 42,-56.398 -17.403,54 46.199,-32.403 z"
         clip-rule="evenodd"
         id="path31" />
    </clipPath>
    <clipPath
       clipPathUnits="userSpaceOnUse"
       id="clipPath35">
      <path
         d="M 0,2190 H 2280 V 0 H 0 Z m 206.199,-1084 -36,-6 12,-69 9,55.8 26.403,-49.8 z"
         clip-rule="evenodd"
         id="path35" />
    </clipPath>
    <clipPath
       clipPathUnits="userSpaceOnUse"
       id="clipPath39">
      <path
         d="M 0,2190 H 2280 V 0 H 0 Z m 972.398,-250.6 -20.398,30 -58.199,-40.2 55.199,15.6 -34.801,-45 z"
         clip-rule="evenodd"
         id="path39" />
    </clipPath>
  </defs>
  <sodipodi:namedview
     id="namedview1"
     pagecolor="#ffffff"
     bordercolor="#000000"
     borderopacity="0.25"
     inkscape:showpageshadow="2"
     inkscape:pageopacity="0.0"
     inkscape:pagecheckerboard="0"
     inkscape:deskcolor="#d1d1d1"
     inkscape:zoom="2.0535156"
     inkscape:cx="229.36276"
     inkscape:cy="120.28153"
     inkscape:window-width="1920"
     inkscape:window-height="1057"
     inkscape:window-x="1912"
     inkscape:window-y="-8"
     inkscape:window-maximized="1"
     inkscape:current-layer="g1"
     showguides="true">
    <inkscape:page
       x="0"
       y="0"
       inkscape:label="1"
       id="page1"
       width="304"
       height="292"
       margin="0"
       bleed="0" />
    <sodipodi:guide
       position="70.844167,266.98"
       orientation="0,-1"
       id="guide124"
       inkscape:locked="false" />
    <sodipodi:guide
       position="25.019791,224.44333"
       orientation="1,0"
       id="guide125"
       inkscape:locked="false" />
    <sodipodi:guide
       position="70.844167,24.848696"
       orientation="0,-1"
       id="guide126"
       inkscape:locked="false" />
    <sodipodi:guide
       position="278.98,63.626868"
       orientation="1,0"
       id="guide127"
       inkscape:locked="false" />
  </sodipodi:namedview>
  <g
     id="g1"
     inkscape:groupmode="layer"
     inkscape:label="1">
    <g
       id="g117"
       transform="translate(-0.31354133,-29.856672)">
      <g
         id="g95">
        <path
           style="fill:#000000;fill-opacity:1;fill-rule:nonzero;stroke:none"
           d="m -82.140625,78.538672 v -0.1875 h 2.53125 v 0.1875 h -0.269531 c -0.28125,0 -0.498047,0.117187 -0.644531,0.351562 -0.0791,0.111329 -0.117188,0.363282 -0.117188,0.761719 v 2.90625 c 0,0.720703 -0.07031,1.277344 -0.210937,1.675781 -0.140625,0.392579 -0.421875,0.726563 -0.84375,1.007813 -0.416016,0.28125 -0.981446,0.421875 -1.699219,0.421875 -0.782227,0 -1.376953,-0.134766 -1.78125,-0.398438 -0.398438,-0.272461 -0.685547,-0.635742 -0.855469,-1.089843 -0.111328,-0.319336 -0.164062,-0.908203 -0.164062,-1.769532 v -2.789062 c 0,-0.445313 -0.06445,-0.732422 -0.1875,-0.867188 C -86.5,78.608984 -86.696289,78.538672 -86.96875,78.538672 h -0.269531 v -0.1875 h 3.09375 v 0.1875 h -0.28125 c -0.290039,0 -0.500977,0.09375 -0.632813,0.28125 -0.08789,0.125976 -0.128906,0.392578 -0.128906,0.796875 v 3.117187 c 0,0.275391 0.02344,0.591797 0.07031,0.949219 0.05273,0.360352 0.146484,0.641602 0.28125,0.84375 0.131835,0.196289 0.322265,0.360352 0.574218,0.492188 0.257813,0.134765 0.56836,0.199218 0.9375,0.199218 0.459961,0 0.873047,-0.09961 1.242188,-0.304687 0.375,-0.210938 0.626953,-0.47168 0.761719,-0.785156 0.140625,-0.319336 0.210937,-0.858399 0.210937,-1.617188 v -2.894531 c 0,-0.451172 -0.05273,-0.732422 -0.152344,-0.84375 -0.140625,-0.155274 -0.345703,-0.234375 -0.609375,-0.234375 z m 2.803711,7.464844 c 0.46875,-0.65625 0.972656,-0.984375 1.511719,-0.984375 0.492187,0 0.919922,0.216797 1.289062,0.644531 0.375,0.421875 0.5625,1.001953 0.5625,1.734375 0,0.861328 -0.287109,1.552734 -0.855469,2.074219 -0.486328,0.454101 -1.02832,0.679687 -1.628906,0.679687 -0.28125,0 -0.571289,-0.05273 -0.867187,-0.152344 -0.290039,-0.108398 -0.583008,-0.263671 -0.878907,-0.46875 v -5.003906 c 0,-0.544922 -0.01758,-0.881836 -0.04687,-1.007812 -0.02344,-0.123047 -0.06738,-0.210938 -0.128906,-0.257813 -0.05566,-0.04687 -0.123047,-0.07031 -0.199219,-0.07031 -0.102539,0 -0.228515,0.0293 -0.375,0.08203 l -0.07031,-0.1875 1.453125,-0.585938 h 0.234375 z m 0,0.339843 v 2.882813 c 0.178711,0.181641 0.363281,0.316406 0.550781,0.410156 0.19336,0.08789 0.392578,0.128906 0.597656,0.128906 0.310547,0 0.603516,-0.175781 0.878907,-0.527343 0.28125,-0.351563 0.421875,-0.861328 0.421875,-1.535157 0,-0.624023 -0.140625,-1.101562 -0.421875,-1.429687 -0.275391,-0.333984 -0.585938,-0.503906 -0.9375,-0.503906 -0.181641,0 -0.363282,0.05273 -0.550782,0.152343 -0.140625,0.07031 -0.322265,0.210938 -0.539062,0.421875 z"
           transform="matrix(1.3333333,0,0,1.3333333,139.33333,20.133333)"
           id="path78" />
        <path
           style="fill:#000000;fill-opacity:1;fill-rule:nonzero;stroke:none"
           d="m -89.508789,81.843359 c 0.492187,0.111329 0.861328,0.28125 1.113281,0.515625 0.342774,0.322266 0.515625,0.714844 0.515625,1.183594 0,0.351563 -0.114258,0.691406 -0.339844,1.019531 -0.228515,0.328125 -0.536132,0.56836 -0.925781,0.714844 -0.392578,0.149414 -0.993164,0.222656 -1.804687,0.222656 h -3.375 v -0.199218 h 0.269531 c 0.304687,0 0.518555,-0.09375 0.644531,-0.28125 0.08496,-0.123047 0.128906,-0.386719 0.128906,-0.785157 v -4.617187 c 0,-0.445313 -0.05566,-0.726563 -0.164062,-0.84375 -0.134766,-0.155274 -0.336914,-0.234375 -0.609375,-0.234375 h -0.269531 v -0.1875 h 3.09375 c 0.577148,0 1.042968,0.04102 1.394531,0.117187 0.521484,0.134766 0.919922,0.360352 1.195312,0.679688 0.28125,0.322266 0.421875,0.691406 0.421875,1.113281 0,0.351563 -0.111328,0.673828 -0.328125,0.960938 -0.219726,0.28125 -0.539062,0.489257 -0.960937,0.621093 z m -2.765625,-0.28125 c 0.131836,0.02344 0.28125,0.04395 0.445312,0.05859 0.164063,0.0088 0.345704,0.01172 0.550782,0.01172 0.515625,0 0.902343,-0.05273 1.160156,-0.164063 0.257812,-0.108398 0.451172,-0.27539 0.585937,-0.503906 0.140625,-0.225586 0.210938,-0.474609 0.210938,-0.75 0,-0.421875 -0.172852,-0.776367 -0.515625,-1.066406 -0.336914,-0.295899 -0.832031,-0.445313 -1.488281,-0.445313 -0.351563,0 -0.667969,0.04102 -0.949219,0.117188 z m 0,3.421875 c 0.404297,0.09375 0.808594,0.140625 1.207031,0.140625 0.638672,0 1.125,-0.140625 1.453125,-0.421875 0.333985,-0.287109 0.503906,-0.644531 0.503906,-1.066406 0,-0.28125 -0.0791,-0.550781 -0.234375,-0.808594 -0.149414,-0.257812 -0.395507,-0.457031 -0.738281,-0.597656 -0.336914,-0.146484 -0.755859,-0.222656 -1.253906,-0.222656 -0.219727,0 -0.407227,0.0059 -0.5625,0.01172 -0.158203,0 -0.28125,0.01172 -0.375,0.03516 z"
           transform="matrix(1.3333333,0,0,1.3333333,139.33333,20.133333)"
           id="path77" />
      </g>
      <g
         id="g94">
        <path
           style="fill:#000000;fill-opacity:1;fill-rule:nonzero;stroke:none"
           d="m -77.930664,75.808203 c -0.492188,0.383789 -0.802734,0.603516 -0.925781,0.65625 -0.196289,0.09375 -0.398438,0.140625 -0.609375,0.140625 -0.336914,0 -0.615235,-0.111328 -0.832032,-0.339844 -0.210937,-0.234375 -0.316406,-0.539062 -0.316406,-0.914062 0,-0.234375 0.04981,-0.436524 0.152344,-0.609375 0.146484,-0.240234 0.398437,-0.46875 0.75,-0.679688 0.357422,-0.210937 0.952148,-0.46289 1.78125,-0.761718 v -0.1875 c 0,-0.483399 -0.0791,-0.814453 -0.234375,-0.996094 -0.149414,-0.178711 -0.369141,-0.269531 -0.65625,-0.269531 -0.219727,0 -0.395508,0.05859 -0.527344,0.175781 -0.134765,0.125976 -0.199219,0.263672 -0.199219,0.410156 l 0.01172,0.304688 c 0,0.164062 -0.04394,0.292968 -0.128906,0.386718 -0.0791,0.08789 -0.1875,0.128907 -0.328125,0.128907 -0.125977,0 -0.231445,-0.04687 -0.316406,-0.140625 -0.0791,-0.09375 -0.117188,-0.216797 -0.117188,-0.375 0,-0.304688 0.152344,-0.580078 0.457031,-0.832032 0.310547,-0.257812 0.744141,-0.386718 1.300782,-0.386718 0.427734,0 0.779297,0.07617 1.054687,0.222656 0.210938,0.111328 0.366211,0.28125 0.46875,0.515625 0.06152,0.149414 0.09375,0.457031 0.09375,0.925781 v 1.640625 c 0,0.462891 0.0059,0.744141 0.02344,0.84375 0.01465,0.102539 0.04101,0.172852 0.08203,0.210938 0.04687,0.03223 0.09375,0.04687 0.140625,0.04687 0.06152,0 0.111328,-0.01172 0.152344,-0.03516 0.07031,-0.04687 0.210937,-0.175781 0.421875,-0.386718 v 0.304687 c -0.392578,0.524414 -0.767578,0.785156 -1.125,0.785156 -0.172852,0 -0.310547,-0.05859 -0.410157,-0.175781 -0.102539,-0.123047 -0.158203,-0.328125 -0.164062,-0.609375 z m 0,-0.351562 v -1.839844 c -0.533203,0.210937 -0.873047,0.360351 -1.019531,0.445312 -0.28125,0.158204 -0.486328,0.322266 -0.609375,0.492188 -0.117188,0.164062 -0.175782,0.348633 -0.175782,0.550781 0,0.257813 0.07324,0.46875 0.222657,0.632813 0.155273,0.164062 0.331054,0.246093 0.527343,0.246093 0.272461,0 0.624024,-0.175781 1.054688,-0.527343 z"
           transform="matrix(1.3333333,0,0,1.3333333,139.33333,20.133333)"
           id="path79" />
        <path
           style="fill:#000000;fill-opacity:1;fill-rule:nonzero;stroke:none"
           d="m -88.307617,71.999609 v -0.199218 h 0.269531 c 0.295899,0 0.509766,-0.09375 0.644531,-0.28125 0.07617,-0.117188 0.117188,-0.37793 0.117188,-0.785157 v -4.617187 c 0,-0.451172 -0.05274,-0.732422 -0.152344,-0.84375 -0.140625,-0.155274 -0.345703,-0.234375 -0.609375,-0.234375 h -0.269531 v -0.1875 h 2.90625 c 1.069336,0 1.880859,0.123047 2.4375,0.363281 0.5625,0.243164 1.010742,0.650391 1.347656,1.21875 0.342774,0.5625 0.515625,1.21582 0.515625,1.957031 0,0.993164 -0.304687,1.825196 -0.914062,2.496094 -0.679688,0.744141 -1.710938,1.113281 -3.09375,1.113281 z m 2.039062,-0.515625 c 0.445313,0.09375 0.820313,0.140625 1.125,0.140625 0.811524,0 1.488282,-0.284179 2.027344,-0.855468 0.539063,-0.56836 0.808594,-1.347657 0.808594,-2.332032 0,-0.984375 -0.269531,-1.760742 -0.808594,-2.332031 -0.539062,-0.568359 -1.230469,-0.855469 -2.074219,-0.855469 -0.313476,0 -0.673828,0.05273 -1.078125,0.152344 z"
           transform="matrix(1.3333333,0,0,1.3333333,139.33333,20.133333)"
           id="path76" />
        <path
           style="fill:#000000;fill-opacity:1;fill-rule:nonzero;stroke:none"
           d="m -92.286133,65.237891 v 2.8125 h 1.300781 c 0.295899,0 0.515625,-0.06445 0.65625,-0.199219 0.140625,-0.131836 0.234375,-0.392578 0.28125,-0.785156 h 0.1875 v 2.425781 h -0.1875 c -0.0088,-0.28125 -0.04687,-0.483399 -0.117187,-0.609375 -0.06445,-0.131836 -0.158203,-0.228516 -0.28125,-0.292969 -0.125977,-0.07031 -0.304688,-0.105469 -0.539063,-0.105469 h -1.300781 v 2.25 c 0,0.360352 0.01758,0.597657 0.05859,0.714844 0.03809,0.08789 0.111328,0.164063 0.222656,0.234375 0.155274,0.0791 0.319336,0.117188 0.492188,0.117188 h 0.257812 v 0.199218 h -3.070312 v -0.199218 h 0.246093 c 0.295899,0 0.509766,-0.08496 0.644532,-0.257813 0.08496,-0.108398 0.128906,-0.37793 0.128906,-0.808594 v -4.617187 c 0,-0.366211 -0.02344,-0.609375 -0.07031,-0.726563 -0.03223,-0.08496 -0.102539,-0.158203 -0.210937,-0.222656 -0.149414,-0.08496 -0.313477,-0.128906 -0.492188,-0.128906 h -0.246093 v -0.1875 h 5.320312 l 0.07031,1.570312 h -0.1875 c -0.09375,-0.333984 -0.205078,-0.580078 -0.328125,-0.738281 -0.117188,-0.155273 -0.266602,-0.269531 -0.445313,-0.339844 -0.172851,-0.07031 -0.445312,-0.105468 -0.820312,-0.105468 z"
           transform="matrix(1.3333333,0,0,1.3333333,139.33333,20.133333)"
           id="path75" />
      </g>
      <path
         id="path8"
         d="m 375.398,1274 c 0,-102.39 -83.007,-185.4 -185.398,-185.4 -102.3906,0 -185.39844,83.01 -185.39844,185.4 0,102.39 83.00784,185.4 185.39844,185.4 102.391,0 185.398,-83.01 185.398,-185.4 z"
         style="fill:none;stroke:#000000;stroke-width:4.5;stroke-linecap:butt;stroke-linejoin:miter;stroke-miterlimit:10;stroke-dasharray:none;stroke-opacity:1"
         transform="matrix(0.13333333,0,0,-0.13333333,0,292)" />
      <path
         style="fill:#000000;fill-opacity:1;fill-rule:nonzero;stroke:none"
         d="m -93.745117,66.603125 c -0.571289,-0.46875 -0.9375,-0.84375 -1.101563,-1.125 -0.158203,-0.28125 -0.234375,-0.574219 -0.234375,-0.878906 0,-0.459961 0.175782,-0.858399 0.527344,-1.195313 C -94.196289,63.069922 -93.71582,62.9 -93.112305,62.9 c 0.56836,0 1.03125,0.158203 1.382813,0.46875 0.351562,0.313477 0.527344,0.667969 0.527344,1.066406 0,0.275391 -0.09375,0.550782 -0.28125,0.832032 -0.1875,0.27539 -0.583008,0.597656 -1.183594,0.972656 0.615234,0.477539 1.02539,0.852539 1.230469,1.125 0.263671,0.360351 0.398437,0.738281 0.398437,1.136719 0,0.500976 -0.193359,0.93164 -0.574219,1.289062 -0.383789,0.360352 -0.887695,0.539063 -1.511718,0.539063 -0.679688,0 -1.207032,-0.213868 -1.582032,-0.644532 -0.304687,-0.333984 -0.457031,-0.706054 -0.457031,-1.113281 0,-0.319336 0.105469,-0.632812 0.316406,-0.9375 0.210938,-0.310547 0.577149,-0.65625 1.101563,-1.03125 z m 0.832031,-0.574219 c 0.421875,-0.375 0.685547,-0.670898 0.796875,-0.890625 0.108399,-0.225586 0.164063,-0.474609 0.164063,-0.75 0,-0.366211 -0.105469,-0.65625 -0.316407,-0.867187 -0.205078,-0.210938 -0.486328,-0.316406 -0.84375,-0.316406 -0.360351,0 -0.65332,0.105468 -0.878906,0.316406 -0.219726,0.205078 -0.328125,0.445312 -0.328125,0.726562 0,0.181641 0.04687,0.363282 0.140625,0.550782 0.09375,0.18164 0.225586,0.351562 0.398438,0.515625 z m -0.585937,0.773438 c -0.290039,0.243164 -0.503907,0.509765 -0.644532,0.796875 -0.140625,0.290039 -0.210937,0.606445 -0.210937,0.949219 0,0.454101 0.120117,0.817382 0.363281,1.089843 0.249024,0.266602 0.56543,0.398438 0.949219,0.398438 0.380859,0 0.685547,-0.105469 0.914062,-0.316406 0.225586,-0.210938 0.339844,-0.47168 0.339844,-0.785157 0,-0.249023 -0.06738,-0.474609 -0.199219,-0.679687 -0.251953,-0.366211 -0.755859,-0.84961 -1.511718,-1.453125 z"
         transform="matrix(1.3333333,0,0,1.3333333,133.33333,32.133333)"
         id="path93" />
    </g>
    <g
       id="g116"
       transform="translate(-18.3136,-2.4806028)">
      <g
         id="g97">
        <path
           style="fill:#000000;fill-opacity:1;fill-rule:nonzero;stroke:none"
           d="m -73.609375,148.49961 v -0.19922 h 0.269531 c 0.295899,0 0.509766,-0.0937 0.644532,-0.28125 0.07617,-0.11719 0.117187,-0.37793 0.117187,-0.78516 v -4.61718 c 0,-0.45118 -0.05273,-0.73243 -0.152344,-0.84375 -0.140625,-0.15528 -0.345703,-0.23438 -0.609375,-0.23438 h -0.269531 v -0.1875 h 2.90625 c 1.069336,0 1.880859,0.12305 2.4375,0.36328 0.5625,0.24317 1.010742,0.65039 1.347656,1.21875 0.342774,0.5625 0.515625,1.21582 0.515625,1.95703 0,0.99317 -0.304687,1.8252 -0.914062,2.4961 -0.679688,0.74414 -1.710938,1.11328 -3.09375,1.11328 z m 2.039063,-0.51563 c 0.445312,0.0937 0.820312,0.14063 1.125,0.14063 0.811523,0 1.488281,-0.28418 2.027343,-0.85547 0.539063,-0.56836 0.808594,-1.34766 0.808594,-2.33203 0,-0.98438 -0.269531,-1.76074 -0.808594,-2.33203 -0.539062,-0.56836 -1.230468,-0.85547 -2.074218,-0.85547 -0.313477,0 -0.673829,0.0527 -1.078125,0.15234 z m 5.733398,1.01954 c 0.46875,-0.65625 0.972656,-0.98438 1.511719,-0.98438 0.492187,0 0.919922,0.2168 1.289062,0.64453 0.375,0.42188 0.5625,1.00195 0.5625,1.73438 0,0.86132 -0.287109,1.55273 -0.855469,2.07422 -0.486328,0.4541 -1.02832,0.67968 -1.628906,0.67968 -0.28125,0 -0.571289,-0.0527 -0.867187,-0.15234 -0.290039,-0.1084 -0.583008,-0.26367 -0.878907,-0.46875 v -5.00391 c 0,-0.54492 -0.01758,-0.88183 -0.04687,-1.00781 -0.02344,-0.12305 -0.06738,-0.21094 -0.128906,-0.25781 -0.05566,-0.0469 -0.123047,-0.0703 -0.199219,-0.0703 -0.102539,0 -0.228515,0.0293 -0.375,0.082 l -0.07031,-0.1875 1.453125,-0.58594 h 0.234375 z m 0,0.33984 v 2.88281 c 0.178711,0.18164 0.363281,0.31641 0.550781,0.41016 0.19336,0.0879 0.392578,0.1289 0.597656,0.1289 0.310547,0 0.603516,-0.17578 0.878907,-0.52734 0.28125,-0.35156 0.421875,-0.86133 0.421875,-1.53516 0,-0.62402 -0.140625,-1.10156 -0.421875,-1.42968 -0.275391,-0.33399 -0.585938,-0.50391 -0.9375,-0.50391 -0.181641,0 -0.363282,0.0527 -0.550782,0.15234 -0.140625,0.0703 -0.322265,0.21094 -0.539062,0.42188 z"
           transform="matrix(1.3333333,0,0,1.3333333,139.33333,20.133333)"
           id="path73" />
        <path
           style="fill:#000000;fill-opacity:1;fill-rule:nonzero;stroke:none"
           d="m -76.008789,144.84336 c 0.492187,0.11133 0.861328,0.28125 1.113281,0.51562 0.342774,0.32227 0.515625,0.71485 0.515625,1.1836 0,0.35156 -0.114258,0.6914 -0.339844,1.01953 -0.228515,0.32812 -0.536132,0.56836 -0.925781,0.71484 -0.392578,0.14942 -0.993164,0.22266 -1.804687,0.22266 h -3.375 v -0.19922 h 0.269531 c 0.304687,0 0.518555,-0.0937 0.644531,-0.28125 0.08496,-0.12305 0.128906,-0.38672 0.128906,-0.78516 v -4.61718 c 0,-0.44532 -0.05566,-0.72657 -0.164062,-0.84375 -0.134766,-0.15528 -0.336914,-0.23438 -0.609375,-0.23438 h -0.269531 v -0.1875 h 3.09375 c 0.577148,0 1.042968,0.041 1.394531,0.11719 0.521484,0.13476 0.919922,0.36035 1.195312,0.67969 0.28125,0.32226 0.421875,0.6914 0.421875,1.11328 0,0.35156 -0.111328,0.67383 -0.328125,0.96094 -0.219726,0.28125 -0.539062,0.48925 -0.960937,0.62109 z m -2.765625,-0.28125 c 0.131836,0.0234 0.28125,0.0439 0.445312,0.0586 0.164063,0.009 0.345704,0.0117 0.550782,0.0117 0.515625,0 0.902343,-0.0527 1.160156,-0.16406 0.257812,-0.1084 0.451172,-0.27539 0.585937,-0.50391 0.140625,-0.22558 0.210938,-0.47461 0.210938,-0.75 0,-0.42187 -0.172852,-0.77636 -0.515625,-1.0664 -0.336914,-0.2959 -0.832031,-0.44532 -1.488281,-0.44532 -0.351563,0 -0.667969,0.041 -0.949219,0.11719 z m 0,3.42187 c 0.404297,0.0937 0.808594,0.14063 1.207031,0.14063 0.638672,0 1.125,-0.14063 1.453125,-0.42188 0.333985,-0.28711 0.503906,-0.64453 0.503906,-1.0664 0,-0.28125 -0.0791,-0.55078 -0.234375,-0.8086 -0.149414,-0.25781 -0.395507,-0.45703 -0.738281,-0.59765 -0.336914,-0.14649 -0.755859,-0.22266 -1.253906,-0.22266 -0.219727,0 -0.407227,0.006 -0.5625,0.0117 -0.158203,0 -0.28125,0.0117 -0.375,0.0352 z"
           transform="matrix(1.3333333,0,0,1.3333333,139.33333,20.133333)"
           id="path72" />
      </g>
      <g
         id="g96">
        <path
           style="fill:#000000;fill-opacity:1;fill-rule:nonzero;stroke:none"
           d="m -64.430664,138.8082 c -0.492188,0.38379 -0.802734,0.60352 -0.925781,0.65625 -0.196289,0.0937 -0.398438,0.14063 -0.609375,0.14063 -0.336914,0 -0.615235,-0.11133 -0.832032,-0.33985 -0.210937,-0.23437 -0.316406,-0.53906 -0.316406,-0.91406 0,-0.23437 0.04981,-0.43652 0.152344,-0.60937 0.146484,-0.24024 0.398437,-0.46875 0.75,-0.67969 0.357422,-0.21094 0.952148,-0.46289 1.78125,-0.76172 v -0.1875 c 0,-0.4834 -0.0791,-0.81445 -0.234375,-0.99609 -0.149414,-0.17871 -0.369141,-0.26953 -0.65625,-0.26953 -0.219727,0 -0.395508,0.0586 -0.527344,0.17578 -0.134765,0.12597 -0.199219,0.26367 -0.199219,0.41015 l 0.01172,0.30469 c 0,0.16406 -0.04394,0.29297 -0.128906,0.38672 -0.0791,0.0879 -0.1875,0.12891 -0.328125,0.12891 -0.125977,0 -0.231445,-0.0469 -0.316406,-0.14063 -0.0791,-0.0937 -0.117188,-0.2168 -0.117188,-0.375 0,-0.30469 0.152344,-0.58008 0.457031,-0.83203 0.310547,-0.25781 0.744141,-0.38672 1.300782,-0.38672 0.427734,0 0.779297,0.0762 1.054687,0.22266 0.210938,0.11132 0.366211,0.28125 0.46875,0.51562 0.06152,0.14942 0.09375,0.45703 0.09375,0.92578 v 1.64063 c 0,0.46289 0.0059,0.74414 0.02344,0.84375 0.01465,0.10254 0.04102,0.17285 0.08203,0.21094 0.04687,0.0322 0.09375,0.0469 0.140625,0.0469 0.06152,0 0.111328,-0.0117 0.152344,-0.0352 0.07031,-0.0469 0.210937,-0.17578 0.421875,-0.38671 v 0.30468 c -0.392578,0.52442 -0.767578,0.78516 -1.125,0.78516 -0.172852,0 -0.310547,-0.0586 -0.410157,-0.17578 -0.102539,-0.12305 -0.158203,-0.32813 -0.164062,-0.60938 z m 0,-0.35156 v -1.83984 c -0.533203,0.21093 -0.873047,0.36035 -1.019531,0.44531 -0.28125,0.1582 -0.486328,0.32226 -0.609375,0.49219 -0.117188,0.16406 -0.175782,0.34863 -0.175782,0.55078 0,0.25781 0.07324,0.46875 0.222657,0.63281 0.155273,0.16406 0.331054,0.24609 0.527343,0.24609 0.272461,0 0.624024,-0.17578 1.054688,-0.52734 z"
           transform="matrix(1.3333333,0,0,1.3333333,139.33333,20.133333)"
           id="path74" />
        <path
           style="fill:#000000;fill-opacity:1;fill-rule:nonzero;stroke:none"
           d="m -74.807617,134.99961 v -0.19922 h 0.269531 c 0.295899,0 0.509766,-0.0937 0.644531,-0.28125 0.07617,-0.11719 0.117188,-0.37793 0.117188,-0.78516 v -4.61718 c 0,-0.45118 -0.05274,-0.73243 -0.152344,-0.84375 -0.140625,-0.15528 -0.345703,-0.23438 -0.609375,-0.23438 h -0.269531 v -0.1875 h 2.90625 c 1.069336,0 1.880859,0.12305 2.4375,0.36328 0.5625,0.24317 1.010742,0.65039 1.347656,1.21875 0.342774,0.5625 0.515625,1.21582 0.515625,1.95703 0,0.99317 -0.304687,1.8252 -0.914062,2.4961 -0.679688,0.74414 -1.710938,1.11328 -3.09375,1.11328 z m 2.039062,-0.51563 c 0.445313,0.0937 0.820313,0.14063 1.125,0.14063 0.811524,0 1.488282,-0.28418 2.027344,-0.85547 0.539063,-0.56836 0.808594,-1.34766 0.808594,-2.33203 0,-0.98438 -0.269531,-1.76074 -0.808594,-2.33203 -0.539062,-0.56836 -1.230469,-0.85547 -2.074219,-0.85547 -0.313476,0 -0.673828,0.0527 -1.078125,0.15234 z"
           transform="matrix(1.3333333,0,0,1.3333333,139.33333,20.133333)"
           id="path71" />
        <path
           style="fill:#000000;fill-opacity:1;fill-rule:nonzero;stroke:none"
           d="m -78.786133,128.23789 v 2.8125 h 1.300781 c 0.295899,0 0.515625,-0.0644 0.65625,-0.19922 0.140625,-0.13183 0.234375,-0.39258 0.28125,-0.78515 h 0.1875 v 2.42578 h -0.1875 c -0.0088,-0.28125 -0.04687,-0.4834 -0.117187,-0.60938 -0.06445,-0.13183 -0.158203,-0.22851 -0.28125,-0.29297 -0.125977,-0.0703 -0.304688,-0.10547 -0.539063,-0.10547 h -1.300781 v 2.25 c 0,0.36036 0.01758,0.59766 0.05859,0.71485 0.03809,0.0879 0.111328,0.16406 0.222656,0.23437 0.155274,0.0791 0.319336,0.11719 0.492188,0.11719 h 0.257812 v 0.19922 h -3.070312 v -0.19922 h 0.246093 c 0.295899,0 0.509766,-0.085 0.644532,-0.25781 0.08496,-0.1084 0.128906,-0.37793 0.128906,-0.8086 v -4.61718 c 0,-0.36621 -0.02344,-0.60938 -0.07031,-0.72657 -0.03223,-0.085 -0.102539,-0.1582 -0.210937,-0.22265 -0.149414,-0.085 -0.313477,-0.12891 -0.492188,-0.12891 h -0.246093 v -0.1875 h 5.320312 l 0.07031,1.57031 h -0.1875 c -0.09375,-0.33398 -0.205078,-0.58007 -0.328125,-0.73828 -0.117188,-0.15527 -0.266602,-0.26953 -0.445313,-0.33984 -0.172851,-0.0703 -0.445312,-0.10547 -0.820312,-0.10547 z"
           transform="matrix(1.3333333,0,0,1.3333333,139.33333,20.133333)"
           id="path70" />
      </g>
      <path
         id="path7"
         d="m 510.398,644 c 0,-102.391 -83.007,-185.398 -185.398,-185.398 -102.391,0 -185.398,83.007 -185.398,185.398 0,102.391 83.007,185.398 185.398,185.398 102.391,0 185.398,-83.007 185.398,-185.398 z"
         style="fill:none;stroke:#000000;stroke-width:4.5;stroke-linecap:butt;stroke-linejoin:miter;stroke-miterlimit:10;stroke-dasharray:none;stroke-opacity:1"
         transform="matrix(0.13333333,0,0,-0.13333333,0,292)" />
      <path
         style="fill:#000000;fill-opacity:1;fill-rule:nonzero;stroke:none"
         d="m -81.709961,127.43223 h 3.832031 v 0.19922 l -2.378906,7.10156 h -0.597656 l 2.132812,-6.44531 h -1.957031 c -0.398437,0 -0.685547,0.0469 -0.855469,0.14062 -0.298828,0.16406 -0.536132,0.41602 -0.714843,0.75 l -0.152344,-0.0586 z"
         transform="matrix(1.3333333,0,0,1.3333333,133.33333,32.133333)"
         id="path92" />
    </g>
    <g
       id="g115"
       transform="translate(-1.7694315,1.0179698)">
      <g
         id="g99">
        <path
           style="fill:#000000;fill-opacity:1;fill-rule:nonzero;stroke:none"
           d="m -33.109375,193.49961 v -0.19922 h 0.269531 c 0.295899,0 0.509766,-0.0937 0.644532,-0.28125 0.07617,-0.11719 0.117187,-0.37793 0.117187,-0.78516 v -4.61718 c 0,-0.45118 -0.05273,-0.73243 -0.152344,-0.84375 -0.140625,-0.15528 -0.345703,-0.23438 -0.609375,-0.23438 h -0.269531 v -0.1875 h 2.90625 c 1.069336,0 1.880859,0.12305 2.4375,0.36328 0.5625,0.24317 1.010742,0.65039 1.347656,1.21875 0.342774,0.5625 0.515625,1.21582 0.515625,1.95703 0,0.99317 -0.304687,1.8252 -0.914062,2.4961 -0.679688,0.74414 -1.710938,1.11328 -3.09375,1.11328 z m 2.039063,-0.51563 c 0.445312,0.0937 0.820312,0.14063 1.125,0.14063 0.811523,0 1.488281,-0.28418 2.027343,-0.85547 0.539063,-0.56836 0.808594,-1.34766 0.808594,-2.33203 0,-0.98438 -0.269531,-1.76074 -0.808594,-2.33203 -0.539062,-0.56836 -1.230468,-0.85547 -2.074218,-0.85547 -0.313477,0 -0.673829,0.0527 -1.078125,0.15234 z m 5.733398,1.01954 c 0.46875,-0.65625 0.972656,-0.98438 1.511719,-0.98438 0.492187,0 0.919922,0.2168 1.289062,0.64453 0.375,0.42188 0.5625,1.00195 0.5625,1.73438 0,0.86132 -0.287109,1.55273 -0.855469,2.07422 -0.486328,0.4541 -1.02832,0.67968 -1.628906,0.67968 -0.28125,0 -0.571289,-0.0527 -0.867187,-0.15234 -0.290039,-0.1084 -0.583008,-0.26367 -0.878907,-0.46875 v -5.00391 c 0,-0.54492 -0.01758,-0.88183 -0.04687,-1.00781 -0.02344,-0.12305 -0.06738,-0.21094 -0.128906,-0.25781 -0.05566,-0.0469 -0.123047,-0.0703 -0.199219,-0.0703 -0.102539,0 -0.228515,0.0293 -0.375,0.082 l -0.07031,-0.1875 1.453125,-0.58594 h 0.234375 z m 0,0.33984 v 2.88281 c 0.178711,0.18164 0.363281,0.31641 0.550781,0.41016 0.19336,0.0879 0.392578,0.1289 0.597656,0.1289 0.310547,0 0.603516,-0.17578 0.878907,-0.52734 0.28125,-0.35156 0.421875,-0.86133 0.421875,-1.53516 0,-0.62402 -0.140625,-1.10156 -0.421875,-1.42968 -0.275391,-0.33399 -0.585938,-0.50391 -0.9375,-0.50391 -0.181641,0 -0.363282,0.0527 -0.550782,0.15234 -0.140625,0.0703 -0.322265,0.21094 -0.539062,0.42188 z"
           transform="matrix(1.3333333,0,0,1.3333333,139.33333,20.133333)"
           id="path68" />
        <path
           style="fill:#000000;fill-opacity:1;fill-rule:nonzero;stroke:none"
           d="m -35.508789,189.84336 c 0.492187,0.11133 0.861328,0.28125 1.113281,0.51562 0.342774,0.32227 0.515625,0.71485 0.515625,1.1836 0,0.35156 -0.114258,0.6914 -0.339844,1.01953 -0.228515,0.32812 -0.536132,0.56836 -0.925781,0.71484 -0.392578,0.14942 -0.993164,0.22266 -1.804687,0.22266 h -3.375 v -0.19922 h 0.269531 c 0.304687,0 0.518555,-0.0937 0.644531,-0.28125 0.08496,-0.12305 0.128906,-0.38672 0.128906,-0.78516 v -4.61718 c 0,-0.44532 -0.05566,-0.72657 -0.164062,-0.84375 -0.134766,-0.15528 -0.336914,-0.23438 -0.609375,-0.23438 h -0.269531 v -0.1875 h 3.09375 c 0.577148,0 1.042968,0.041 1.394531,0.11719 0.521484,0.13476 0.919922,0.36035 1.195312,0.67969 0.28125,0.32226 0.421875,0.6914 0.421875,1.11328 0,0.35156 -0.111328,0.67383 -0.328125,0.96094 -0.219726,0.28125 -0.539062,0.48925 -0.960937,0.62109 z m -2.765625,-0.28125 c 0.131836,0.0234 0.28125,0.0439 0.445312,0.0586 0.164063,0.009 0.345704,0.0117 0.550782,0.0117 0.515625,0 0.902343,-0.0527 1.160156,-0.16406 0.257812,-0.1084 0.451172,-0.27539 0.585937,-0.50391 0.140625,-0.22558 0.210938,-0.47461 0.210938,-0.75 0,-0.42187 -0.172852,-0.77636 -0.515625,-1.0664 -0.336914,-0.2959 -0.832031,-0.44532 -1.488281,-0.44532 -0.351563,0 -0.667969,0.041 -0.949219,0.11719 z m 0,3.42187 c 0.404297,0.0937 0.808594,0.14063 1.207031,0.14063 0.638672,0 1.125,-0.14063 1.453125,-0.42188 0.333985,-0.28711 0.503906,-0.64453 0.503906,-1.0664 0,-0.28125 -0.0791,-0.55078 -0.234375,-0.8086 -0.149414,-0.25781 -0.395507,-0.45703 -0.738281,-0.59765 -0.336914,-0.14649 -0.755859,-0.22266 -1.253906,-0.22266 -0.219727,0 -0.407227,0.006 -0.5625,0.0117 -0.158203,0 -0.28125,0.0117 -0.375,0.0352 z"
           transform="matrix(1.3333333,0,0,1.3333333,139.33333,20.133333)"
           id="path67" />
      </g>
      <g
         id="g98">
        <path
           style="fill:#000000;fill-opacity:1;fill-rule:nonzero;stroke:none"
           d="m -23.930664,183.8082 c -0.492188,0.38379 -0.802734,0.60352 -0.925781,0.65625 -0.196289,0.0937 -0.398438,0.14063 -0.609375,0.14063 -0.336914,0 -0.615235,-0.11133 -0.832032,-0.33985 -0.210937,-0.23437 -0.316406,-0.53906 -0.316406,-0.91406 0,-0.23437 0.0498,-0.43652 0.152344,-0.60937 0.146484,-0.24024 0.398437,-0.46875 0.75,-0.67969 0.357422,-0.21094 0.952148,-0.46289 1.78125,-0.76172 v -0.1875 c 0,-0.4834 -0.0791,-0.81445 -0.234375,-0.99609 -0.149414,-0.17871 -0.369141,-0.26953 -0.65625,-0.26953 -0.219727,0 -0.395508,0.0586 -0.527344,0.17578 -0.134765,0.12597 -0.199219,0.26367 -0.199219,0.41015 l 0.01172,0.30469 c 0,0.16406 -0.04395,0.29297 -0.128906,0.38672 -0.0791,0.0879 -0.1875,0.12891 -0.328125,0.12891 -0.125977,0 -0.231445,-0.0469 -0.316406,-0.14063 -0.0791,-0.0937 -0.117188,-0.2168 -0.117188,-0.375 0,-0.30469 0.152344,-0.58008 0.457031,-0.83203 0.310547,-0.25781 0.744141,-0.38672 1.300782,-0.38672 0.427734,0 0.779297,0.0762 1.054687,0.22266 0.210938,0.11132 0.366211,0.28125 0.46875,0.51562 0.06152,0.14942 0.09375,0.45703 0.09375,0.92578 v 1.64063 c 0,0.46289 0.0059,0.74414 0.02344,0.84375 0.01465,0.10254 0.04102,0.17285 0.08203,0.21094 0.04687,0.0322 0.09375,0.0469 0.140625,0.0469 0.06152,0 0.111328,-0.0117 0.152344,-0.0352 0.07031,-0.0469 0.210937,-0.17578 0.421875,-0.38671 v 0.30468 c -0.392578,0.52442 -0.767578,0.78516 -1.125,0.78516 -0.172852,0 -0.310547,-0.0586 -0.410157,-0.17578 -0.102539,-0.12305 -0.158203,-0.32813 -0.164062,-0.60938 z m 0,-0.35156 v -1.83984 c -0.533203,0.21093 -0.873047,0.36035 -1.019531,0.44531 -0.28125,0.1582 -0.486328,0.32226 -0.609375,0.49219 -0.117188,0.16406 -0.175782,0.34863 -0.175782,0.55078 0,0.25781 0.07324,0.46875 0.222657,0.63281 0.155273,0.16406 0.331054,0.24609 0.527343,0.24609 0.272461,0 0.624024,-0.17578 1.054688,-0.52734 z"
           transform="matrix(1.3333333,0,0,1.3333333,139.33333,20.133333)"
           id="path69" />
        <path
           style="fill:#000000;fill-opacity:1;fill-rule:nonzero;stroke:none"
           d="m -29.338867,173.03867 v -0.1875 h 2.53125 v 0.1875 h -0.269531 c -0.28125,0 -0.498047,0.11719 -0.644532,0.35156 -0.0791,0.11133 -0.117187,0.36329 -0.117187,0.76172 v 2.90625 c 0,0.72071 -0.07031,1.27735 -0.210938,1.67578 -0.140625,0.39258 -0.421875,0.72657 -0.84375,1.00782 -0.416015,0.28125 -0.981445,0.42187 -1.699218,0.42187 -0.782227,0 -1.376954,-0.13476 -1.78125,-0.39844 -0.398438,-0.27246 -0.685547,-0.63574 -0.855469,-1.08984 -0.111328,-0.31934 -0.164063,-0.9082 -0.164063,-1.76953 v -2.78906 c 0,-0.44532 -0.06445,-0.73243 -0.1875,-0.86719 -0.117187,-0.14063 -0.313476,-0.21094 -0.585937,-0.21094 h -0.269531 v -0.1875 h 3.09375 v 0.1875 h -0.28125 c -0.290039,0 -0.500977,0.0937 -0.632813,0.28125 -0.08789,0.12598 -0.128906,0.39258 -0.128906,0.79688 v 3.11718 c 0,0.27539 0.02344,0.5918 0.07031,0.94922 0.05273,0.36035 0.146485,0.6416 0.28125,0.84375 0.131836,0.19629 0.322266,0.36035 0.574219,0.49219 0.257813,0.13477 0.568359,0.19922 0.9375,0.19922 0.459961,0 0.873047,-0.0996 1.242188,-0.30469 0.375,-0.21094 0.626953,-0.47168 0.761718,-0.78515 0.140625,-0.31934 0.210938,-0.8584 0.210938,-1.61719 v -2.89453 c 0,-0.45118 -0.05273,-0.73243 -0.152344,-0.84375 -0.140625,-0.15528 -0.345703,-0.23438 -0.609375,-0.23438 z"
           transform="matrix(1.3333333,0,0,1.3333333,139.33333,20.133333)"
           id="path66" />
        <path
           style="fill:#000000;fill-opacity:1;fill-rule:nonzero;stroke:none"
           d="m -38.286133,173.23789 v 2.8125 h 1.300781 c 0.295899,0 0.515625,-0.0644 0.65625,-0.19922 0.140625,-0.13183 0.234375,-0.39258 0.28125,-0.78515 h 0.1875 v 2.42578 h -0.1875 c -0.0088,-0.28125 -0.04687,-0.4834 -0.117187,-0.60938 -0.06445,-0.13183 -0.158203,-0.22851 -0.28125,-0.29297 -0.125977,-0.0703 -0.304688,-0.10547 -0.539063,-0.10547 h -1.300781 v 2.25 c 0,0.36036 0.01758,0.59766 0.05859,0.71485 0.03809,0.0879 0.111328,0.16406 0.222656,0.23437 0.155274,0.0791 0.319336,0.11719 0.492188,0.11719 h 0.257812 v 0.19922 h -3.070312 v -0.19922 h 0.246093 c 0.295899,0 0.509766,-0.085 0.644532,-0.25781 0.08496,-0.1084 0.128906,-0.37793 0.128906,-0.8086 v -4.61718 c 0,-0.36621 -0.02344,-0.60938 -0.07031,-0.72657 -0.03223,-0.085 -0.102539,-0.1582 -0.210937,-0.22265 -0.149414,-0.085 -0.313477,-0.12891 -0.492188,-0.12891 h -0.246093 v -0.1875 h 5.320312 l 0.07031,1.57031 h -0.1875 c -0.09375,-0.33398 -0.205078,-0.58007 -0.328125,-0.73828 -0.117188,-0.15527 -0.266602,-0.26953 -0.445313,-0.33984 -0.172851,-0.0703 -0.445312,-0.10547 -0.820312,-0.10547 z"
           transform="matrix(1.3333333,0,0,1.3333333,139.33333,20.133333)"
           id="path65" />
      </g>
      <path
         id="path6"
         d="M 915.398,194 C 915.398,91.6094 832.391,8.60156 730,8.60156 627.609,8.60156 544.602,91.6094 544.602,194 c 0,102.391 83.007,185.398 185.398,185.398 102.391,0 185.398,-83.007 185.398,-185.398 z"
         style="fill:none;stroke:#000000;stroke-width:4.5;stroke-linecap:butt;stroke-linejoin:miter;stroke-miterlimit:10;stroke-dasharray:none;stroke-opacity:1"
         transform="matrix(0.13333333,0,0,-0.13333333,0,292)" />
      <path
         style="fill:#000000;fill-opacity:1;fill-rule:nonzero;stroke:none"
         d="m -37.459961,171.79941 v 0.19922 c -0.462891,0.041 -0.84082,0.12891 -1.136719,0.26953 -0.290039,0.14063 -0.580078,0.35743 -0.867187,0.64454 -0.290039,0.28125 -0.527344,0.59765 -0.714844,0.94921 -0.1875,0.35157 -0.345703,0.76758 -0.46875,1.24219 0.506836,-0.34277 1.013672,-0.51562 1.523438,-0.51562 0.492187,0 0.914062,0.19629 1.265625,0.58593 0.357421,0.39258 0.539062,0.89942 0.539062,1.52344 0,0.59473 -0.181641,1.13672 -0.539062,1.62891 -0.439454,0.60351 -1.016602,0.90234 -1.734375,0.90234 -0.486329,0 -0.899414,-0.16406 -1.242188,-0.49219 -0.665039,-0.62402 -0.996094,-1.4414 -0.996094,-2.44921 0,-0.63282 0.123047,-1.23633 0.375,-1.81641 0.257813,-0.57715 0.624024,-1.08984 1.101563,-1.53516 0.474609,-0.44531 0.93164,-0.74414 1.371094,-0.90234 0.436523,-0.15527 0.84375,-0.23438 1.21875,-0.23438 z m -3.28125,3.69141 c -0.06445,0.47754 -0.09375,0.86133 -0.09375,1.14844 0,0.33691 0.06152,0.70312 0.1875,1.10156 0.123047,0.39844 0.310547,0.71191 0.5625,0.9375 0.178711,0.17285 0.392578,0.25781 0.644531,0.25781 0.310547,0 0.585938,-0.14355 0.820313,-0.43359 0.240234,-0.28711 0.363281,-0.70313 0.363281,-1.24219 0,-0.60058 -0.123047,-1.11914 -0.363281,-1.55859 -0.234375,-0.43653 -0.571289,-0.65625 -1.007813,-0.65625 -0.134765,0 -0.27832,0.0293 -0.433593,0.082 -0.149414,0.0557 -0.375,0.17578 -0.679688,0.36328 z"
         transform="matrix(1.3333333,0,0,1.3333333,133.33333,32.133333)"
         id="path91" />
    </g>
    <g
       id="g114"
       transform="translate(22.057838,0.44992861)">
      <g
         id="g101">
        <path
           style="fill:#000000;fill-opacity:1;fill-rule:nonzero;stroke:none"
           d="m 38.890625,193.49961 v -0.19922 h 0.269531 c 0.295899,0 0.509766,-0.0937 0.644532,-0.28125 0.07617,-0.11719 0.117187,-0.37793 0.117187,-0.78516 v -4.61718 c 0,-0.45118 -0.05273,-0.73243 -0.152344,-0.84375 -0.140625,-0.15528 -0.345703,-0.23438 -0.609375,-0.23438 h -0.269531 v -0.1875 h 2.90625 c 1.069336,0 1.880859,0.12305 2.4375,0.36328 0.5625,0.24317 1.010742,0.65039 1.347656,1.21875 0.342774,0.5625 0.515625,1.21582 0.515625,1.95703 0,0.99317 -0.304687,1.8252 -0.914062,2.4961 -0.679688,0.74414 -1.710938,1.11328 -3.09375,1.11328 z m 2.039063,-0.51563 c 0.445312,0.0937 0.820312,0.14063 1.125,0.14063 0.811523,0 1.488281,-0.28418 2.027343,-0.85547 0.539063,-0.56836 0.808594,-1.34766 0.808594,-2.33203 0,-0.98438 -0.269531,-1.76074 -0.808594,-2.33203 -0.539062,-0.56836 -1.230468,-0.85547 -2.074218,-0.85547 -0.313477,0 -0.673829,0.0527 -1.078125,0.15234 z m 5.733398,1.01954 c 0.46875,-0.65625 0.972656,-0.98438 1.511719,-0.98438 0.492187,0 0.919922,0.2168 1.289062,0.64453 0.375,0.42188 0.5625,1.00195 0.5625,1.73438 0,0.86132 -0.287109,1.55273 -0.855469,2.07422 -0.486328,0.4541 -1.02832,0.67968 -1.628906,0.67968 -0.28125,0 -0.571289,-0.0527 -0.867187,-0.15234 -0.290039,-0.1084 -0.583008,-0.26367 -0.878907,-0.46875 v -5.00391 c 0,-0.54492 -0.01758,-0.88183 -0.04687,-1.00781 -0.02344,-0.12305 -0.06738,-0.21094 -0.128906,-0.25781 -0.05566,-0.0469 -0.123047,-0.0703 -0.199219,-0.0703 -0.102539,0 -0.228515,0.0293 -0.375,0.082 l -0.07031,-0.1875 1.453125,-0.58594 h 0.234375 z m 0,0.33984 v 2.88281 c 0.178711,0.18164 0.363281,0.31641 0.550781,0.41016 0.19336,0.0879 0.392578,0.1289 0.597656,0.1289 0.310547,0 0.603516,-0.17578 0.878907,-0.52734 0.28125,-0.35156 0.421875,-0.86133 0.421875,-1.53516 0,-0.62402 -0.140625,-1.10156 -0.421875,-1.42968 -0.275391,-0.33399 -0.585938,-0.50391 -0.9375,-0.50391 -0.181641,0 -0.363282,0.0527 -0.550782,0.15234 -0.140625,0.0703 -0.322265,0.21094 -0.539062,0.42188 z"
           transform="matrix(1.3333333,0,0,1.3333333,139.33333,20.133333)"
           id="path63" />
        <path
           style="fill:#000000;fill-opacity:1;fill-rule:nonzero;stroke:none"
           d="m 36.491211,189.84336 c 0.492187,0.11133 0.861328,0.28125 1.113281,0.51562 0.342774,0.32227 0.515625,0.71485 0.515625,1.1836 0,0.35156 -0.114258,0.6914 -0.339844,1.01953 -0.228515,0.32812 -0.536132,0.56836 -0.925781,0.71484 -0.392578,0.14942 -0.993164,0.22266 -1.804687,0.22266 h -3.375 v -0.19922 h 0.269531 c 0.304687,0 0.518555,-0.0937 0.644531,-0.28125 0.08496,-0.12305 0.128906,-0.38672 0.128906,-0.78516 v -4.61718 c 0,-0.44532 -0.05566,-0.72657 -0.164062,-0.84375 -0.134766,-0.15528 -0.336914,-0.23438 -0.609375,-0.23438 h -0.269531 v -0.1875 h 3.09375 c 0.577148,0 1.042968,0.041 1.394531,0.11719 0.521484,0.13476 0.919922,0.36035 1.195312,0.67969 0.28125,0.32226 0.421875,0.6914 0.421875,1.11328 0,0.35156 -0.111328,0.67383 -0.328125,0.96094 -0.219726,0.28125 -0.539062,0.48925 -0.960937,0.62109 z m -2.765625,-0.28125 c 0.131836,0.0234 0.28125,0.0439 0.445312,0.0586 0.164063,0.009 0.345704,0.0117 0.550782,0.0117 0.515625,0 0.902343,-0.0527 1.160156,-0.16406 0.257812,-0.1084 0.451172,-0.27539 0.585937,-0.50391 0.140625,-0.22558 0.210938,-0.47461 0.210938,-0.75 0,-0.42187 -0.172852,-0.77636 -0.515625,-1.0664 -0.336914,-0.2959 -0.832031,-0.44532 -1.488281,-0.44532 -0.351563,0 -0.667969,0.041 -0.949219,0.11719 z m 0,3.42187 c 0.404297,0.0937 0.808594,0.14063 1.207031,0.14063 0.638672,0 1.125,-0.14063 1.453125,-0.42188 0.333985,-0.28711 0.503906,-0.64453 0.503906,-1.0664 0,-0.28125 -0.0791,-0.55078 -0.234375,-0.8086 -0.149414,-0.25781 -0.395507,-0.45703 -0.738281,-0.59765 -0.336914,-0.14649 -0.755859,-0.22266 -1.253906,-0.22266 -0.219727,0 -0.407227,0.006 -0.5625,0.0117 -0.158203,0 -0.28125,0.0117 -0.375,0.0352 z"
           transform="matrix(1.3333333,0,0,1.3333333,139.33333,20.133333)"
           id="path62" />
      </g>
      <g
         id="g100">
        <path
           style="fill:#000000;fill-opacity:1;fill-rule:nonzero;stroke:none"
           d="m 48.069336,183.8082 c -0.492188,0.38379 -0.802734,0.60352 -0.925781,0.65625 -0.196289,0.0937 -0.398438,0.14063 -0.609375,0.14063 -0.336914,0 -0.615235,-0.11133 -0.832032,-0.33985 -0.210937,-0.23437 -0.316406,-0.53906 -0.316406,-0.91406 0,-0.23437 0.0498,-0.43652 0.152344,-0.60937 0.146484,-0.24024 0.398437,-0.46875 0.75,-0.67969 0.357422,-0.21094 0.952148,-0.46289 1.78125,-0.76172 v -0.1875 c 0,-0.4834 -0.0791,-0.81445 -0.234375,-0.99609 -0.149414,-0.17871 -0.369141,-0.26953 -0.65625,-0.26953 -0.219727,0 -0.395508,0.0586 -0.527344,0.17578 -0.134765,0.12597 -0.199219,0.26367 -0.199219,0.41015 l 0.01172,0.30469 c 0,0.16406 -0.04395,0.29297 -0.128906,0.38672 -0.0791,0.0879 -0.1875,0.12891 -0.328125,0.12891 -0.125977,0 -0.231445,-0.0469 -0.316406,-0.14063 -0.0791,-0.0937 -0.117188,-0.2168 -0.117188,-0.375 0,-0.30469 0.152344,-0.58008 0.457031,-0.83203 0.310547,-0.25781 0.744141,-0.38672 1.300782,-0.38672 0.427734,0 0.779297,0.0762 1.054687,0.22266 0.210938,0.11132 0.366211,0.28125 0.46875,0.51562 0.06152,0.14942 0.09375,0.45703 0.09375,0.92578 v 1.64063 c 0,0.46289 0.0059,0.74414 0.02344,0.84375 0.01465,0.10254 0.04102,0.17285 0.08203,0.21094 0.04687,0.0322 0.09375,0.0469 0.140625,0.0469 0.06152,0 0.111328,-0.0117 0.152344,-0.0352 0.07031,-0.0469 0.210937,-0.17578 0.421875,-0.38671 v 0.30468 c -0.392578,0.52442 -0.767578,0.78516 -1.125,0.78516 -0.172852,0 -0.310547,-0.0586 -0.410157,-0.17578 -0.102539,-0.12305 -0.158203,-0.32813 -0.164062,-0.60938 z m 0,-0.35156 v -1.83984 c -0.533203,0.21093 -0.873047,0.36035 -1.019531,0.44531 -0.28125,0.1582 -0.486328,0.32226 -0.609375,0.49219 -0.117188,0.16406 -0.175782,0.34863 -0.175782,0.55078 0,0.25781 0.07324,0.46875 0.222657,0.63281 0.155273,0.16406 0.331054,0.24609 0.527343,0.24609 0.272461,0 0.624024,-0.17578 1.054688,-0.52734 z"
           transform="matrix(1.3333333,0,0,1.3333333,139.33333,20.133333)"
           id="path64" />
        <path
           style="fill:#000000;fill-opacity:1;fill-rule:nonzero;stroke:none"
           d="m 43.859375,173.03867 v -0.1875 h 2.53125 v 0.1875 h -0.269531 c -0.28125,0 -0.498047,0.11719 -0.644531,0.35156 -0.0791,0.11133 -0.117188,0.36329 -0.117188,0.76172 v 2.90625 c 0,0.72071 -0.07031,1.27735 -0.210937,1.67578 -0.140625,0.39258 -0.421875,0.72657 -0.84375,1.00782 -0.416016,0.28125 -0.981446,0.42187 -1.699219,0.42187 -0.782227,0 -1.376953,-0.13476 -1.78125,-0.39844 -0.398438,-0.27246 -0.685547,-0.63574 -0.855469,-1.08984 -0.111328,-0.31934 -0.164062,-0.9082 -0.164062,-1.76953 v -2.78906 c 0,-0.44532 -0.06445,-0.73243 -0.1875,-0.86719 C 39.5,173.10898 39.303711,173.03867 39.03125,173.03867 h -0.269531 v -0.1875 h 3.09375 v 0.1875 h -0.28125 c -0.290039,0 -0.500977,0.0937 -0.632813,0.28125 -0.08789,0.12598 -0.128906,0.39258 -0.128906,0.79688 v 3.11718 c 0,0.27539 0.02344,0.5918 0.07031,0.94922 0.05273,0.36035 0.146484,0.6416 0.28125,0.84375 0.131835,0.19629 0.322265,0.36035 0.574218,0.49219 0.257813,0.13477 0.56836,0.19922 0.9375,0.19922 0.459961,0 0.873047,-0.0996 1.242188,-0.30469 0.375,-0.21094 0.626953,-0.47168 0.761719,-0.78515 0.140625,-0.31934 0.210937,-0.8584 0.210937,-1.61719 v -2.89453 c 0,-0.45118 -0.05273,-0.73243 -0.152344,-0.84375 -0.140625,-0.15528 -0.345703,-0.23438 -0.609375,-0.23438 z"
           transform="matrix(1.3333333,0,0,1.3333333,139.33333,20.133333)"
           id="path61" />
        <path
           style="fill:#000000;fill-opacity:1;fill-rule:nonzero;stroke:none"
           d="m 36.491211,176.34336 c 0.492187,0.11133 0.861328,0.28125 1.113281,0.51562 0.342774,0.32227 0.515625,0.71485 0.515625,1.1836 0,0.35156 -0.114258,0.6914 -0.339844,1.01953 -0.228515,0.32812 -0.536132,0.56836 -0.925781,0.71484 -0.392578,0.14942 -0.993164,0.22266 -1.804687,0.22266 h -3.375 v -0.19922 h 0.269531 c 0.304687,0 0.518555,-0.0937 0.644531,-0.28125 0.08496,-0.12305 0.128906,-0.38672 0.128906,-0.78516 v -4.61718 c 0,-0.44532 -0.05566,-0.72657 -0.164062,-0.84375 -0.134766,-0.15528 -0.336914,-0.23438 -0.609375,-0.23438 h -0.269531 v -0.1875 h 3.09375 c 0.577148,0 1.042968,0.041 1.394531,0.11719 0.521484,0.13476 0.919922,0.36035 1.195312,0.67969 0.28125,0.32226 0.421875,0.6914 0.421875,1.11328 0,0.35156 -0.111328,0.67383 -0.328125,0.96094 -0.219726,0.28125 -0.539062,0.48925 -0.960937,0.62109 z m -2.765625,-0.28125 c 0.131836,0.0234 0.28125,0.0439 0.445312,0.0586 0.164063,0.009 0.345704,0.0117 0.550782,0.0117 0.515625,0 0.902343,-0.0527 1.160156,-0.16406 0.257812,-0.1084 0.451172,-0.27539 0.585937,-0.50391 0.140625,-0.22558 0.210938,-0.47461 0.210938,-0.75 0,-0.42187 -0.172852,-0.77636 -0.515625,-1.0664 -0.336914,-0.2959 -0.832031,-0.44532 -1.488281,-0.44532 -0.351563,0 -0.667969,0.041 -0.949219,0.11719 z m 0,3.42187 c 0.404297,0.0937 0.808594,0.14063 1.207031,0.14063 0.638672,0 1.125,-0.14063 1.453125,-0.42188 0.333985,-0.28711 0.503906,-0.64453 0.503906,-1.0664 0,-0.28125 -0.0791,-0.55078 -0.234375,-0.8086 -0.149414,-0.25781 -0.395507,-0.45703 -0.738281,-0.59765 -0.336914,-0.14649 -0.755859,-0.22266 -1.253906,-0.22266 -0.219727,0 -0.407227,0.006 -0.5625,0.0117 -0.158203,0 -0.28125,0.0117 -0.375,0.0352 z"
           transform="matrix(1.3333333,0,0,1.3333333,139.33333,20.133333)"
           id="path60" />
      </g>
      <path
         id="path5"
         d="m 1631.2,189.801 c 0,-102.3908 -83.01,-185.40256 -185.4,-185.40256 -102.39,0 -185.4,83.01176 -185.4,185.40256 0,102.39 83.01,185.398 185.4,185.398 102.39,0 185.4,-83.008 185.4,-185.398 z"
         style="fill:none;stroke:#000000;stroke-width:4.5;stroke-linecap:butt;stroke-linejoin:miter;stroke-miterlimit:10;stroke-dasharray:none;stroke-opacity:1"
         transform="matrix(0.13333333,0,0,-0.13333333,0,292)" />
      <path
         style="fill:#000000;fill-opacity:1;fill-rule:nonzero;stroke:none"
         d="m 34.387695,171.47129 -0.410156,0.89062 h -2.15625 l -0.46875,0.96094 c 0.9375,0.14063 1.675781,0.48926 2.214844,1.04297 0.46875,0.47754 0.703125,1.04004 0.703125,1.6875 0,0.375 -0.0791,0.72363 -0.234375,1.04297 -0.149414,0.32226 -0.339844,0.59473 -0.574219,0.82031 -0.228516,0.21973 -0.486328,0.39844 -0.773437,0.53906 -0.407227,0.19336 -0.820313,0.29297 -1.242188,0.29297 -0.430664,0 -0.744141,-0.0762 -0.9375,-0.22265 -0.196289,-0.14649 -0.292969,-0.30762 -0.292969,-0.48047 0,-0.0996 0.03809,-0.1875 0.117188,-0.25781 0.08496,-0.0762 0.19043,-0.11719 0.316406,-0.11719 0.08496,0 0.164063,0.0176 0.234375,0.0469 0.07031,0.0234 0.1875,0.0937 0.351563,0.21094 0.263671,0.18164 0.530273,0.26953 0.796875,0.26953 0.413086,0 0.776367,-0.15234 1.089843,-0.45703 0.310547,-0.31055 0.46875,-0.69141 0.46875,-1.13672 0,-0.43652 -0.140625,-0.84375 -0.421875,-1.21875 -0.27539,-0.375 -0.65625,-0.66211 -1.148437,-0.86719 -0.383789,-0.15527 -0.908203,-0.24609 -1.570313,-0.26953 l 1.371094,-2.77734 z"
         transform="matrix(1.3333333,0,0,1.3333333,133.33333,32.133333)"
         id="path90" />
    </g>
    <g
       id="g113"
       transform="translate(19.646674,-9.2003359)">
      <g
         id="g102">
        <path
           style="fill:#000000;fill-opacity:1;fill-rule:nonzero;stroke:none"
           d="m 96.163086,153.50352 c 0.46875,-0.65625 0.972656,-0.98438 1.511719,-0.98438 0.492187,0 0.919922,0.2168 1.289062,0.64453 0.375,0.42188 0.5625,1.00195 0.5625,1.73438 0,0.86132 -0.287109,1.55273 -0.855469,2.07422 -0.486328,0.4541 -1.02832,0.67968 -1.628906,0.67968 -0.28125,0 -0.571289,-0.0527 -0.867187,-0.15234 -0.290039,-0.1084 -0.583008,-0.26367 -0.878907,-0.46875 v -5.00391 c 0,-0.54492 -0.01758,-0.88183 -0.04687,-1.00781 -0.02344,-0.12305 -0.06738,-0.21094 -0.128906,-0.25781 -0.05566,-0.0469 -0.123047,-0.0703 -0.199219,-0.0703 -0.102539,0 -0.228515,0.0293 -0.375,0.082 l -0.07031,-0.1875 1.453125,-0.58594 h 0.234375 z m 0,0.33984 v 2.88281 c 0.178711,0.18164 0.363281,0.31641 0.550781,0.41016 0.19336,0.0879 0.392578,0.1289 0.597656,0.1289 0.310547,0 0.603516,-0.17578 0.878907,-0.52734 0.28125,-0.35156 0.421875,-0.86133 0.421875,-1.53516 0,-0.62402 -0.140625,-1.10156 -0.421875,-1.42968 -0.275391,-0.33399 -0.585938,-0.50391 -0.9375,-0.50391 -0.181641,0 -0.363282,0.0527 -0.550782,0.15234 -0.140625,0.0703 -0.322265,0.21094 -0.539062,0.42188 z"
           transform="matrix(1.3333333,0,0,1.3333333,139.33333,20.133333)"
           id="path85" />
        <path
           style="fill:#000000;fill-opacity:1;fill-rule:nonzero;stroke:none"
           d="m 87.192383,152.99961 v -0.19922 h 0.269531 c 0.295899,0 0.509766,-0.0937 0.644531,-0.28125 0.07617,-0.11719 0.117188,-0.37793 0.117188,-0.78516 v -4.61718 c 0,-0.45118 -0.05274,-0.73243 -0.152344,-0.84375 -0.140625,-0.15528 -0.345703,-0.23438 -0.609375,-0.23438 h -0.269531 v -0.1875 h 2.90625 c 1.069336,0 1.880859,0.12305 2.4375,0.36328 0.5625,0.24317 1.010742,0.65039 1.347656,1.21875 0.342774,0.5625 0.515625,1.21582 0.515625,1.95703 0,0.99317 -0.304687,1.8252 -0.914062,2.4961 -0.679688,0.74414 -1.710938,1.11328 -3.09375,1.11328 z m 2.039062,-0.51563 c 0.445313,0.0937 0.820313,0.14063 1.125,0.14063 0.811524,0 1.488282,-0.28418 2.027344,-0.85547 0.539063,-0.56836 0.808594,-1.34766 0.808594,-2.33203 0,-0.98438 -0.269531,-1.76074 -0.808594,-2.33203 -0.539062,-0.56836 -1.230469,-0.85547 -2.074219,-0.85547 -0.313476,0 -0.673828,0.0527 -1.078125,0.15234 z"
           transform="matrix(1.3333333,0,0,1.3333333,139.33333,20.133333)"
           id="path83" />
        <path
           style="fill:#000000;fill-opacity:1;fill-rule:nonzero;stroke:none"
           d="m 83.213867,146.23789 v 2.8125 h 1.300781 c 0.295899,0 0.515625,-0.0644 0.65625,-0.19922 0.140625,-0.13183 0.234375,-0.39258 0.28125,-0.78515 h 0.1875 v 2.42578 h -0.1875 c -0.0088,-0.28125 -0.04687,-0.4834 -0.117187,-0.60938 -0.06445,-0.13183 -0.158203,-0.22851 -0.28125,-0.29297 -0.125977,-0.0703 -0.304688,-0.10547 -0.539063,-0.10547 h -1.300781 v 2.25 c 0,0.36036 0.01758,0.59766 0.05859,0.71485 0.03809,0.0879 0.111328,0.16406 0.222656,0.23437 0.155274,0.0791 0.319336,0.11719 0.492188,0.11719 h 0.257812 v 0.19922 h -3.070312 v -0.19922 h 0.246093 c 0.295899,0 0.509766,-0.085 0.644532,-0.25781 0.08496,-0.1084 0.128906,-0.37793 0.128906,-0.8086 v -4.61718 c 0,-0.36621 -0.02344,-0.60938 -0.07031,-0.72657 -0.03223,-0.085 -0.102539,-0.1582 -0.210937,-0.22265 -0.149414,-0.085 -0.313477,-0.12891 -0.492188,-0.12891 h -0.246093 v -0.1875 h 5.320312 l 0.07031,1.57031 h -0.1875 c -0.09375,-0.33398 -0.205078,-0.58007 -0.328125,-0.73828 -0.117188,-0.15527 -0.266602,-0.26953 -0.445313,-0.33984 -0.172851,-0.0703 -0.445312,-0.10547 -0.820312,-0.10547 z"
           transform="matrix(1.3333333,0,0,1.3333333,139.33333,20.133333)"
           id="path82" />
      </g>
      <g
         id="g103">
        <path
           style="fill:#000000;fill-opacity:1;fill-rule:nonzero;stroke:none"
           d="m 97.569336,143.3082 c -0.492188,0.38379 -0.802734,0.60352 -0.925781,0.65625 -0.196289,0.0937 -0.398438,0.14063 -0.609375,0.14063 -0.336914,0 -0.615235,-0.11133 -0.832032,-0.33985 -0.210937,-0.23437 -0.316406,-0.53906 -0.316406,-0.91406 0,-0.23437 0.04981,-0.43652 0.152344,-0.60937 0.146484,-0.24024 0.398437,-0.46875 0.75,-0.67969 0.357422,-0.21094 0.952148,-0.46289 1.78125,-0.76172 v -0.1875 c 0,-0.4834 -0.0791,-0.81445 -0.234375,-0.99609 -0.149414,-0.17871 -0.369141,-0.26953 -0.65625,-0.26953 -0.219727,0 -0.395508,0.0586 -0.527344,0.17578 -0.134765,0.12597 -0.199219,0.26367 -0.199219,0.41015 l 0.01172,0.30469 c 0,0.16406 -0.04394,0.29297 -0.128906,0.38672 -0.0791,0.0879 -0.1875,0.12891 -0.328125,0.12891 -0.125977,0 -0.231445,-0.0469 -0.316406,-0.14063 -0.0791,-0.0937 -0.117188,-0.2168 -0.117188,-0.375 0,-0.30469 0.152344,-0.58008 0.457031,-0.83203 0.310547,-0.25781 0.744141,-0.38672 1.300782,-0.38672 0.427734,0 0.779297,0.0762 1.054687,0.22266 0.210938,0.11132 0.366211,0.28125 0.46875,0.51562 0.06152,0.14942 0.09375,0.45703 0.09375,0.92578 v 1.64063 c 0,0.46289 0.0059,0.74414 0.02344,0.84375 0.01465,0.10254 0.04101,0.17285 0.08203,0.21094 0.04687,0.0322 0.09375,0.0469 0.140625,0.0469 0.06152,0 0.111328,-0.0117 0.152344,-0.0352 0.07031,-0.0469 0.210937,-0.17578 0.421875,-0.38671 v 0.30468 c -0.392578,0.52442 -0.767578,0.78516 -1.125,0.78516 -0.172852,0 -0.310547,-0.0586 -0.410157,-0.17578 -0.102539,-0.12305 -0.158203,-0.32813 -0.164062,-0.60938 z m 0,-0.35156 v -1.83984 c -0.533203,0.21093 -0.873047,0.36035 -1.019531,0.44531 -0.28125,0.1582 -0.486328,0.32226 -0.609375,0.49219 -0.117188,0.16406 -0.175782,0.34863 -0.175782,0.55078 0,0.25781 0.07324,0.46875 0.222657,0.63281 0.155273,0.16406 0.331054,0.24609 0.527343,0.24609 0.272461,0 0.624024,-0.17578 1.054688,-0.52734 z"
           transform="matrix(1.3333333,0,0,1.3333333,139.33333,20.133333)"
           id="path84" />
        <path
           style="fill:#000000;fill-opacity:1;fill-rule:nonzero;stroke:none"
           d="m 93.359375,132.53867 v -0.1875 h 2.53125 v 0.1875 h -0.269531 c -0.28125,0 -0.498047,0.11719 -0.644531,0.35156 -0.0791,0.11133 -0.117188,0.36329 -0.117188,0.76172 v 2.90625 c 0,0.72071 -0.07031,1.27735 -0.210937,1.67578 -0.140625,0.39258 -0.421875,0.72657 -0.84375,1.00782 -0.416016,0.28125 -0.981446,0.42187 -1.699219,0.42187 -0.782227,0 -1.376953,-0.13476 -1.78125,-0.39844 -0.398438,-0.27246 -0.685547,-0.63574 -0.855469,-1.08984 -0.111328,-0.31934 -0.164062,-0.9082 -0.164062,-1.76953 v -2.78906 c 0,-0.44532 -0.06445,-0.73243 -0.1875,-0.86719 C 89,132.60898 88.803711,132.53867 88.53125,132.53867 h -0.269531 v -0.1875 h 3.09375 v 0.1875 h -0.28125 c -0.290039,0 -0.500977,0.0937 -0.632813,0.28125 -0.08789,0.12598 -0.128906,0.39258 -0.128906,0.79688 v 3.11718 c 0,0.27539 0.02344,0.5918 0.07031,0.94922 0.05273,0.36035 0.146484,0.6416 0.28125,0.84375 0.131835,0.19629 0.322265,0.36035 0.574218,0.49219 0.257813,0.13477 0.56836,0.19922 0.9375,0.19922 0.459961,0 0.873047,-0.0996 1.242188,-0.30469 0.375,-0.21094 0.626953,-0.47168 0.761719,-0.78515 0.140625,-0.31934 0.210937,-0.8584 0.210937,-1.61719 v -2.89453 c 0,-0.45118 -0.05273,-0.73243 -0.152344,-0.84375 -0.140625,-0.15528 -0.345703,-0.23438 -0.609375,-0.23438 z"
           transform="matrix(1.3333333,0,0,1.3333333,139.33333,20.133333)"
           id="path81" />
        <path
           style="fill:#000000;fill-opacity:1;fill-rule:nonzero;stroke:none"
           d="m 85.991211,135.84336 c 0.492187,0.11133 0.861328,0.28125 1.113281,0.51562 0.342774,0.32227 0.515625,0.71485 0.515625,1.1836 0,0.35156 -0.114258,0.6914 -0.339844,1.01953 -0.228515,0.32812 -0.536132,0.56836 -0.925781,0.71484 -0.392578,0.14942 -0.993164,0.22266 -1.804687,0.22266 h -3.375 v -0.19922 h 0.269531 c 0.304687,0 0.518555,-0.0937 0.644531,-0.28125 0.08496,-0.12305 0.128906,-0.38672 0.128906,-0.78516 v -4.61718 c 0,-0.44532 -0.05566,-0.72657 -0.164062,-0.84375 -0.134766,-0.15528 -0.336914,-0.23438 -0.609375,-0.23438 h -0.269531 v -0.1875 h 3.09375 c 0.577148,0 1.042968,0.041 1.394531,0.11719 0.521484,0.13476 0.919922,0.36035 1.195312,0.67969 0.28125,0.32226 0.421875,0.6914 0.421875,1.11328 0,0.35156 -0.111328,0.67383 -0.328125,0.96094 -0.219726,0.28125 -0.539062,0.48925 -0.960937,0.62109 z m -2.765625,-0.28125 c 0.131836,0.0234 0.28125,0.0439 0.445312,0.0586 0.164063,0.009 0.345704,0.0117 0.550782,0.0117 0.515625,0 0.902343,-0.0527 1.160156,-0.16406 0.257812,-0.1084 0.451172,-0.27539 0.585937,-0.50391 0.140625,-0.22558 0.210938,-0.47461 0.210938,-0.75 0,-0.42187 -0.172852,-0.77636 -0.515625,-1.0664 -0.336914,-0.2959 -0.832031,-0.44532 -1.488281,-0.44532 -0.351563,0 -0.667969,0.041 -0.949219,0.11719 z m 0,3.42187 c 0.404297,0.0937 0.808594,0.14063 1.207031,0.14063 0.638672,0 1.125,-0.14063 1.453125,-0.42188 0.333985,-0.28711 0.503906,-0.64453 0.503906,-1.0664 0,-0.28125 -0.0791,-0.55078 -0.234375,-0.8086 -0.149414,-0.25781 -0.395507,-0.45703 -0.738281,-0.59765 -0.336914,-0.14649 -0.755859,-0.22266 -1.253906,-0.22266 -0.219727,0 -0.407227,0.006 -0.5625,0.0117 -0.158203,0 -0.28125,0.0117 -0.375,0.0352 z"
           transform="matrix(1.3333333,0,0,1.3333333,139.33333,20.133333)"
           id="path80" />
      </g>
      <path
         id="path4"
         d="m 2130.4,593.602 c 0,-102.391 -83.01,-185.403 -185.4,-185.403 -102.39,0 -185.4,83.012 -185.4,185.403 0,102.39 83.01,185.398 185.4,185.398 102.39,0 185.4,-83.008 185.4,-185.398 z"
         style="fill:none;stroke:#000000;stroke-width:4.5;stroke-linecap:butt;stroke-linejoin:miter;stroke-miterlimit:10;stroke-dasharray:none;stroke-opacity:1"
         transform="matrix(0.13333333,0,0,-0.13333333,0,292)" />
      <path
         style="fill:#000000;fill-opacity:1;fill-rule:nonzero;stroke:none"
         d="m 84.227539,135.54453 v 0.75 h -0.960937 v 1.88672 h -0.867188 v -1.88672 h -3.035156 v -0.67969 l 3.328125,-4.73437 h 0.574219 v 4.66406 z m -1.828125,0 v -3.55078 l -2.507812,3.55078 z"
         transform="matrix(1.3333333,0,0,1.3333333,133.33333,32.133333)"
         id="path89" />
    </g>
    <g
       id="g112"
       transform="translate(1.6466742,-35.856671)">
      <g
         id="g105">
        <path
           style="fill:#000000;fill-opacity:1;fill-rule:nonzero;stroke:none"
           d="m 109.66309,90.503516 c 0.46875,-0.65625 0.97265,-0.984375 1.51171,-0.984375 0.49219,0 0.91993,0.216797 1.28907,0.644531 0.375,0.421875 0.5625,1.001953 0.5625,1.734375 0,0.861328 -0.28711,1.552734 -0.85547,2.074219 -0.48633,0.454101 -1.02832,0.679687 -1.62891,0.679687 -0.28125,0 -0.57129,-0.05273 -0.86719,-0.152344 -0.29003,-0.108398 -0.583,-0.263671 -0.8789,-0.46875 v -5.003906 c 0,-0.544922 -0.0176,-0.881836 -0.0469,-1.007812 -0.0234,-0.123047 -0.0674,-0.210938 -0.1289,-0.257813 -0.0557,-0.04687 -0.12305,-0.07031 -0.19922,-0.07031 -0.10254,0 -0.22852,0.0293 -0.375,0.08203 l -0.0703,-0.1875 1.45312,-0.585938 h 0.23438 z m 0,0.339843 v 2.882813 c 0.17871,0.181641 0.36328,0.316406 0.55078,0.410156 0.19336,0.08789 0.39258,0.128906 0.59765,0.128906 0.31055,0 0.60352,-0.175781 0.87891,-0.527343 0.28125,-0.351563 0.42187,-0.861328 0.42187,-1.535157 0,-0.624023 -0.14062,-1.101562 -0.42187,-1.429687 -0.27539,-0.333984 -0.58594,-0.503906 -0.9375,-0.503906 -0.18164,0 -0.36328,0.05273 -0.55078,0.152343 -0.14063,0.07031 -0.32227,0.210938 -0.53906,0.421875 z"
           transform="matrix(1.3333333,0,0,1.3333333,139.33333,20.133333)"
           id="path59" />
        <path
           style="fill:#000000;fill-opacity:1;fill-rule:nonzero;stroke:none"
           d="m 100.69238,89.999609 v -0.199218 h 0.26953 c 0.2959,0 0.50977,-0.09375 0.64454,-0.28125 0.0762,-0.117188 0.11718,-0.37793 0.11718,-0.785157 v -4.617187 c 0,-0.451172 -0.0527,-0.732422 -0.15234,-0.84375 -0.14063,-0.155274 -0.3457,-0.234375 -0.60938,-0.234375 h -0.26953 v -0.1875 h 2.90625 c 1.06934,0 1.88086,0.123047 2.4375,0.363281 0.5625,0.243164 1.01075,0.650391 1.34766,1.21875 0.34277,0.5625 0.51562,1.21582 0.51562,1.957031 0,0.993164 -0.30468,1.825196 -0.91406,2.496094 -0.67969,0.744141 -1.71094,1.113281 -3.09375,1.113281 z m 2.03907,-0.515625 c 0.44531,0.09375 0.82031,0.140625 1.125,0.140625 0.81152,0 1.48828,-0.284179 2.02734,-0.855468 0.53906,-0.56836 0.80859,-1.347657 0.80859,-2.332032 0,-0.984375 -0.26953,-1.760742 -0.80859,-2.332031 -0.53906,-0.568359 -1.23047,-0.855469 -2.07422,-0.855469 -0.31348,0 -0.67383,0.05273 -1.07812,0.152344 z"
           transform="matrix(1.3333333,0,0,1.3333333,139.33333,20.133333)"
           id="path57" />
        <path
           style="fill:#000000;fill-opacity:1;fill-rule:nonzero;stroke:none"
           d="m 96.713867,83.237891 v 2.8125 h 1.300781 c 0.295899,0 0.515625,-0.06445 0.65625,-0.199219 0.140625,-0.131836 0.234375,-0.392578 0.28125,-0.785156 h 0.1875 v 2.425781 h -0.1875 c -0.0088,-0.28125 -0.04687,-0.483399 -0.117187,-0.609375 -0.06445,-0.131836 -0.158203,-0.228516 -0.28125,-0.292969 -0.125977,-0.07031 -0.304688,-0.105469 -0.539063,-0.105469 h -1.300781 v 2.25 c 0,0.360352 0.01758,0.597657 0.05859,0.714844 0.03809,0.08789 0.111328,0.164063 0.222656,0.234375 0.155274,0.0791 0.319336,0.117188 0.492188,0.117188 h 0.257812 v 0.199218 h -3.070312 v -0.199218 h 0.246093 c 0.295899,0 0.509766,-0.08496 0.644532,-0.257813 0.08496,-0.108398 0.128906,-0.37793 0.128906,-0.808594 v -4.617187 c 0,-0.366211 -0.02344,-0.609375 -0.07031,-0.726563 -0.03223,-0.08496 -0.102539,-0.158203 -0.210937,-0.222656 -0.149414,-0.08496 -0.313477,-0.128906 -0.492188,-0.128906 h -0.246093 v -0.1875 h 5.320312 l 0.07031,1.570312 H 99.877926 C 99.78418,84.0875 99.672852,83.841406 99.549805,83.683203 99.432617,83.52793 99.283203,83.413672 99.104492,83.343359 98.931641,83.273047 98.65918,83.237891 98.28418,83.237891 Z"
           transform="matrix(1.3333333,0,0,1.3333333,139.33333,20.133333)"
           id="path56" />
      </g>
      <g
         id="g104">
        <path
           style="fill:#000000;fill-opacity:1;fill-rule:nonzero;stroke:none"
           d="m 111.06934,80.308203 c -0.49219,0.383789 -0.80274,0.603516 -0.92579,0.65625 -0.19628,0.09375 -0.39843,0.140625 -0.60937,0.140625 -0.33691,0 -0.61523,-0.111328 -0.83203,-0.339844 -0.21094,-0.234375 -0.31641,-0.539062 -0.31641,-0.914062 0,-0.234375 0.0498,-0.436524 0.15235,-0.609375 0.14648,-0.240234 0.39843,-0.46875 0.75,-0.679688 0.35742,-0.210937 0.95214,-0.46289 1.78125,-0.761718 v -0.1875 c 0,-0.483399 -0.0791,-0.814453 -0.23438,-0.996094 -0.14941,-0.178711 -0.36914,-0.269531 -0.65625,-0.269531 -0.21973,0 -0.39551,0.05859 -0.52734,0.175781 -0.13477,0.125976 -0.19922,0.263672 -0.19922,0.410156 l 0.0117,0.304688 c 0,0.164062 -0.0439,0.292968 -0.12891,0.386718 -0.0791,0.08789 -0.1875,0.128907 -0.32812,0.128907 -0.12598,0 -0.23145,-0.04687 -0.31641,-0.140625 -0.0791,-0.09375 -0.11719,-0.216797 -0.11719,-0.375 0,-0.304688 0.15235,-0.580078 0.45703,-0.832032 0.31055,-0.257812 0.74414,-0.386718 1.30078,-0.386718 0.42774,0 0.7793,0.07617 1.05469,0.222656 0.21094,0.111328 0.36621,0.28125 0.46875,0.515625 0.0615,0.149414 0.0937,0.457031 0.0937,0.925781 v 1.640625 c 0,0.462891 0.006,0.744141 0.0234,0.84375 0.0146,0.102539 0.041,0.172852 0.082,0.210938 0.0469,0.03223 0.0937,0.04687 0.14063,0.04687 0.0615,0 0.11132,-0.01172 0.15234,-0.03516 0.0703,-0.04687 0.21094,-0.175781 0.42187,-0.386718 v 0.304687 c -0.39257,0.524414 -0.76757,0.785156 -1.125,0.785156 -0.17285,0 -0.31054,-0.05859 -0.41015,-0.175781 -0.10254,-0.123047 -0.1582,-0.328125 -0.16406,-0.609375 z m 0,-0.351562 v -1.839844 c -0.53321,0.210937 -0.87305,0.360351 -1.01954,0.445312 -0.28125,0.158204 -0.48632,0.322266 -0.60937,0.492188 -0.11719,0.164062 -0.17578,0.348633 -0.17578,0.550781 0,0.257813 0.0732,0.46875 0.22265,0.632813 0.15528,0.164062 0.33106,0.246093 0.52735,0.246093 0.27246,0 0.62402,-0.175781 1.05469,-0.527343 z"
           transform="matrix(1.3333333,0,0,1.3333333,139.33333,20.133333)"
           id="path58" />
        <path
           style="fill:#000000;fill-opacity:1;fill-rule:nonzero;stroke:none"
           d="m 101.89063,76.499609 v -0.199218 h 0.26953 c 0.29589,0 0.50976,-0.09375 0.64453,-0.28125 0.0762,-0.117188 0.11719,-0.37793 0.11719,-0.785157 v -4.617187 c 0,-0.451172 -0.0527,-0.732422 -0.15235,-0.84375 -0.14062,-0.155274 -0.3457,-0.234375 -0.60937,-0.234375 h -0.26953 v -0.1875 h 2.90625 c 1.06933,0 1.88085,0.123047 2.4375,0.363281 0.5625,0.243164 1.01074,0.650391 1.34765,1.21875 0.34277,0.5625 0.51563,1.21582 0.51563,1.957031 0,0.993164 -0.30469,1.825196 -0.91407,2.496094 -0.67968,0.744141 -1.71093,1.113281 -3.09375,1.113281 z m 2.03906,-0.515625 c 0.44531,0.09375 0.82031,0.140625 1.125,0.140625 0.81152,0 1.48828,-0.284179 2.02734,-0.855468 0.53906,-0.56836 0.8086,-1.347657 0.8086,-2.332032 0,-0.984375 -0.26954,-1.760742 -0.8086,-2.332031 -0.53906,-0.568359 -1.23047,-0.855469 -2.07422,-0.855469 -0.31347,0 -0.67383,0.05273 -1.07812,0.152344 z"
           transform="matrix(1.3333333,0,0,1.3333333,139.33333,20.133333)"
           id="path55" />
        <path
           style="fill:#000000;fill-opacity:1;fill-rule:nonzero;stroke:none"
           d="m 99.491211,72.843359 c 0.492187,0.111329 0.861329,0.28125 1.113279,0.515625 0.34278,0.322266 0.51563,0.714844 0.51563,1.183594 0,0.351563 -0.11426,0.691406 -0.33985,1.019531 -0.22851,0.328125 -0.53613,0.56836 -0.925778,0.714844 -0.392578,0.149414 -0.993164,0.222656 -1.804687,0.222656 h -3.375 v -0.199218 h 0.269531 c 0.304687,0 0.518555,-0.09375 0.644531,-0.28125 0.08496,-0.123047 0.128906,-0.386719 0.128906,-0.785157 v -4.617187 c 0,-0.445313 -0.05566,-0.726563 -0.164062,-0.84375 -0.134766,-0.155274 -0.336914,-0.234375 -0.609375,-0.234375 h -0.269531 v -0.1875 h 3.09375 c 0.577148,0 1.042968,0.04102 1.394531,0.117187 0.521484,0.134766 0.919924,0.360352 1.195314,0.679688 0.28125,0.322266 0.42187,0.691406 0.42187,1.113281 0,0.351563 -0.11132,0.673828 -0.32812,0.960938 -0.21973,0.28125 -0.539064,0.489257 -0.960939,0.621093 z m -2.765625,-0.28125 c 0.131836,0.02344 0.28125,0.04395 0.445312,0.05859 0.164063,0.0088 0.345704,0.01172 0.550782,0.01172 0.515625,0 0.902343,-0.05273 1.160156,-0.164063 0.257812,-0.108398 0.451172,-0.27539 0.585937,-0.503906 0.140625,-0.225586 0.210938,-0.474609 0.210938,-0.75 0,-0.421875 -0.172852,-0.776367 -0.515625,-1.066406 -0.336914,-0.295899 -0.832031,-0.445313 -1.488281,-0.445313 -0.351563,0 -0.667969,0.04102 -0.949219,0.117188 z m 0,3.421875 c 0.404297,0.09375 0.808594,0.140625 1.207031,0.140625 0.638672,0 1.125,-0.140625 1.453125,-0.421875 0.333985,-0.287109 0.503906,-0.644531 0.503906,-1.066406 0,-0.28125 -0.0791,-0.550781 -0.234375,-0.808594 -0.149414,-0.257812 -0.395507,-0.457031 -0.738281,-0.597656 -0.336914,-0.146484 -0.755859,-0.222656 -1.253906,-0.222656 -0.219727,0 -0.407227,0.0059 -0.5625,0.01172 -0.158203,0 -0.28125,0.01172 -0.375,0.03516 z"
           transform="matrix(1.3333333,0,0,1.3333333,139.33333,20.133333)"
           id="path54" />
      </g>
      <path
         id="path9"
         d="m 2265.4,1229 c 0,-102.39 -83.01,-185.4 -185.4,-185.4 -102.39,0 -185.4,83.01 -185.4,185.4 0,102.39 83.01,185.4 185.4,185.4 102.39,0 185.4,-83.01 185.4,-185.4 z"
         style="fill:none;stroke:#000000;stroke-width:4.5;stroke-linecap:butt;stroke-linejoin:miter;stroke-miterlimit:10;stroke-dasharray:none;stroke-opacity:1"
         transform="matrix(0.13333333,0,0,-0.13333333,0,292)" />
      <path
         style="fill:#000000;fill-opacity:1;fill-rule:nonzero;stroke:none"
         d="M 93.731445,68.911719 C 93.933594,68.42832 94.191406,68.05625 94.504883,67.798438 94.81543,67.534766 95.202148,67.4 95.665039,67.4 c 0.568359,0 1.010742,0.1875 1.324219,0.5625 0.225586,0.275391 0.339844,0.571289 0.339844,0.890625 0,0.515625 -0.325196,1.051758 -0.972657,1.605469 0.436524,0.18164 0.764649,0.430664 0.984375,0.75 0.225586,0.313476 0.339844,0.688476 0.339844,1.125 0,0.618164 -0.196289,1.154297 -0.585937,1.605469 -0.515625,0.594726 -1.259766,0.890625 -2.226563,0.890625 -0.486328,0 -0.817383,-0.05859 -0.996094,-0.175782 -0.172851,-0.123047 -0.257812,-0.251953 -0.257812,-0.386718 0,-0.09961 0.04101,-0.19043 0.128906,-0.269532 0.08496,-0.07617 0.181641,-0.117187 0.292969,-0.117187 0.09375,0 0.18164,0.01172 0.269531,0.03516 0.06152,0.02344 0.199219,0.09082 0.410156,0.199219 0.210938,0.111328 0.354493,0.175781 0.433594,0.199219 0.131836,0.04102 0.272461,0.05859 0.421875,0.05859 0.357422,0 0.670899,-0.134765 0.9375,-0.410156 0.263672,-0.28125 0.398438,-0.612305 0.398438,-0.996094 0,-0.28125 -0.06445,-0.550781 -0.1875,-0.808593 -0.09375,-0.202149 -0.196289,-0.354493 -0.304688,-0.457032 -0.149414,-0.140625 -0.357422,-0.263672 -0.621094,-0.375 C 95.536133,71.208594 95.266602,71.15 94.985352,71.15 h -0.164063 v -0.152344 c 0.28125,-0.03809 0.556641,-0.140625 0.832031,-0.304687 0.28125,-0.164063 0.483399,-0.363281 0.609375,-0.597656 0.131836,-0.234375 0.199219,-0.486329 0.199219,-0.761719 0,-0.366211 -0.117187,-0.65918 -0.351562,-0.878906 -0.228516,-0.225586 -0.509766,-0.339844 -0.84375,-0.339844 -0.547852,0 -1.001954,0.292969 -1.359375,0.878906 z"
         transform="matrix(1.3333333,0,0,1.3333333,133.33333,32.133333)"
         id="path88" />
    </g>
    <g
       id="g111"
       transform="translate(-14.502162,-25.11334)">
      <g
         id="g107">
        <path
           style="fill:#000000;fill-opacity:1;fill-rule:nonzero;stroke:none"
           d="m 73.663086,32.003516 c 0.46875,-0.65625 0.972656,-0.984375 1.511719,-0.984375 0.492187,0 0.919922,0.216797 1.289062,0.644531 0.375,0.421875 0.5625,1.001953 0.5625,1.734375 0,0.861328 -0.287109,1.552734 -0.855469,2.074219 -0.486328,0.454101 -1.02832,0.679687 -1.628906,0.679687 -0.28125,0 -0.571289,-0.05273 -0.867187,-0.152344 -0.290039,-0.108398 -0.583008,-0.263671 -0.878907,-0.46875 v -5.003906 c 0,-0.544922 -0.01758,-0.881836 -0.04687,-1.007812 -0.02344,-0.123047 -0.06738,-0.210938 -0.128906,-0.257813 -0.05566,-0.04687 -0.123047,-0.07031 -0.199219,-0.07031 -0.102539,0 -0.228515,0.0293 -0.375,0.08203 l -0.07031,-0.1875 1.453125,-0.585938 h 0.234375 z m 0,0.339843 v 2.882813 c 0.178711,0.181641 0.363281,0.316406 0.550781,0.410156 0.19336,0.08789 0.392578,0.128906 0.597656,0.128906 0.310547,0 0.603516,-0.175781 0.878907,-0.527343 0.28125,-0.351563 0.421875,-0.861328 0.421875,-1.535157 0,-0.624023 -0.140625,-1.101562 -0.421875,-1.429687 -0.275391,-0.333984 -0.585938,-0.503906 -0.9375,-0.503906 -0.181641,0 -0.363282,0.05273 -0.550782,0.152343 -0.140625,0.07031 -0.322265,0.210938 -0.539062,0.421875 z"
           transform="matrix(1.3333333,0,0,1.3333333,139.33333,20.133333)"
           id="path53" />
        <path
           style="fill:#000000;fill-opacity:1;fill-rule:nonzero;stroke:none"
           d="m 69.661133,24.538672 v -0.1875 h 2.53125 v 0.1875 h -0.269531 c -0.28125,0 -0.498047,0.117187 -0.644532,0.351562 -0.0791,0.111329 -0.117187,0.363282 -0.117187,0.761719 v 2.90625 c 0,0.720703 -0.07031,1.277344 -0.210938,1.675781 -0.140625,0.392579 -0.421875,0.726563 -0.84375,1.007813 -0.416015,0.28125 -0.981445,0.421875 -1.699218,0.421875 -0.782227,0 -1.376954,-0.134766 -1.78125,-0.398438 -0.398438,-0.272461 -0.685547,-0.635742 -0.855469,-1.089843 -0.111328,-0.319336 -0.164063,-0.908203 -0.164063,-1.769532 v -2.789062 c 0,-0.445313 -0.06445,-0.732422 -0.1875,-0.867188 -0.117187,-0.140625 -0.313476,-0.210937 -0.585937,-0.210937 h -0.269531 v -0.1875 h 3.09375 v 0.1875 h -0.28125 c -0.290039,0 -0.500977,0.09375 -0.632813,0.28125 -0.08789,0.125976 -0.128906,0.392578 -0.128906,0.796875 v 3.117187 c 0,0.275391 0.02344,0.591797 0.07031,0.949219 0.05274,0.360352 0.146485,0.641602 0.28125,0.84375 0.131836,0.196289 0.322266,0.360352 0.574219,0.492188 0.257813,0.134765 0.568359,0.199218 0.9375,0.199218 0.459961,0 0.873047,-0.09961 1.242188,-0.304687 0.375,-0.210938 0.626953,-0.47168 0.761718,-0.785156 0.140625,-0.319336 0.210938,-0.858399 0.210938,-1.617188 v -2.894531 c 0,-0.451172 -0.05274,-0.732422 -0.152344,-0.84375 -0.140625,-0.155274 -0.345703,-0.234375 -0.609375,-0.234375 z"
           transform="matrix(1.3333333,0,0,1.3333333,139.33333,20.133333)"
           id="path51" />
        <path
           style="fill:#000000;fill-opacity:1;fill-rule:nonzero;stroke:none"
           d="m 60.713867,24.737891 v 2.8125 h 1.300781 c 0.295899,0 0.515625,-0.06445 0.65625,-0.199219 0.140625,-0.131836 0.234375,-0.392578 0.28125,-0.785156 h 0.1875 v 2.425781 h -0.1875 c -0.0088,-0.28125 -0.04687,-0.483399 -0.117187,-0.609375 -0.06445,-0.131836 -0.158203,-0.228516 -0.28125,-0.292969 -0.125977,-0.07031 -0.304688,-0.105469 -0.539063,-0.105469 h -1.300781 v 2.25 c 0,0.360352 0.01758,0.597657 0.05859,0.714844 0.03809,0.08789 0.111328,0.164063 0.222656,0.234375 0.155274,0.0791 0.319336,0.117188 0.492188,0.117188 h 0.257812 v 0.199218 h -3.070312 v -0.199218 h 0.246093 c 0.295899,0 0.509766,-0.08496 0.644532,-0.257813 0.08496,-0.108398 0.128906,-0.37793 0.128906,-0.808594 v -4.617187 c 0,-0.366211 -0.02344,-0.609375 -0.07031,-0.726563 -0.03223,-0.08496 -0.102539,-0.158203 -0.210937,-0.222656 -0.149414,-0.08496 -0.313477,-0.128906 -0.492188,-0.128906 h -0.246093 v -0.1875 h 5.320312 l 0.07031,1.570312 h -0.1875 C 63.78418,25.5875 63.672852,25.341406 63.549805,25.183203 63.432617,25.02793 63.283203,24.913672 63.104492,24.843359 62.931641,24.773047 62.65918,24.737891 62.28418,24.737891 Z"
           transform="matrix(1.3333333,0,0,1.3333333,139.33333,20.133333)"
           id="path50" />
      </g>
      <g
         id="g106">
        <path
           style="fill:#000000;fill-opacity:1;fill-rule:nonzero;stroke:none"
           d="m 75.069336,21.808203 c -0.492188,0.383789 -0.802734,0.603516 -0.925781,0.65625 -0.196289,0.09375 -0.398438,0.140625 -0.609375,0.140625 -0.336914,0 -0.615235,-0.111328 -0.832032,-0.339844 -0.210937,-0.234375 -0.316406,-0.539062 -0.316406,-0.914062 0,-0.234375 0.04981,-0.436524 0.152344,-0.609375 0.146484,-0.240234 0.398437,-0.46875 0.75,-0.679688 0.357422,-0.210937 0.952148,-0.46289 1.78125,-0.761718 v -0.1875 c 0,-0.483399 -0.0791,-0.814453 -0.234375,-0.996094 -0.149414,-0.178711 -0.369141,-0.269531 -0.65625,-0.269531 -0.219727,0 -0.395508,0.05859 -0.527344,0.175781 -0.134765,0.125976 -0.199219,0.263672 -0.199219,0.410156 l 0.01172,0.304688 c 0,0.164062 -0.04394,0.292968 -0.128906,0.386718 -0.0791,0.08789 -0.1875,0.128907 -0.328125,0.128907 -0.125977,0 -0.231445,-0.04687 -0.316406,-0.140625 -0.0791,-0.09375 -0.117188,-0.216797 -0.117188,-0.375 0,-0.304688 0.152344,-0.580078 0.457031,-0.832032 0.310547,-0.257812 0.744141,-0.386718 1.300782,-0.386718 0.427734,0 0.779297,0.07617 1.054687,0.222656 0.210938,0.111328 0.366211,0.28125 0.46875,0.515625 0.06152,0.149414 0.09375,0.457031 0.09375,0.925781 v 1.640625 c 0,0.462891 0.0059,0.744141 0.02344,0.84375 0.01465,0.102539 0.04101,0.172852 0.08203,0.210938 0.04687,0.03223 0.09375,0.04687 0.140625,0.04687 0.06152,0 0.111328,-0.01172 0.152344,-0.03516 0.07031,-0.04687 0.210937,-0.175781 0.421875,-0.386718 v 0.304687 c -0.392578,0.524414 -0.767578,0.785156 -1.125,0.785156 -0.172852,0 -0.310547,-0.05859 -0.410157,-0.175781 -0.102539,-0.123047 -0.158203,-0.328125 -0.164062,-0.609375 z m 0,-0.351562 v -1.839844 c -0.533203,0.210937 -0.873047,0.360351 -1.019531,0.445312 -0.28125,0.158204 -0.486328,0.322266 -0.609375,0.492188 -0.117188,0.164062 -0.175782,0.348633 -0.175782,0.550781 0,0.257813 0.07324,0.46875 0.222657,0.632813 0.155273,0.164062 0.331054,0.246093 0.527343,0.246093 0.272461,0 0.624024,-0.175781 1.054688,-0.527343 z"
           transform="matrix(1.3333333,0,0,1.3333333,139.33333,20.133333)"
           id="path52" />
        <path
           style="fill:#000000;fill-opacity:1;fill-rule:nonzero;stroke:none"
           d="m 65.890625,17.999609 v -0.199218 h 0.269531 c 0.295899,0 0.509766,-0.09375 0.644532,-0.28125 0.07617,-0.117188 0.117187,-0.37793 0.117187,-0.785157 v -4.617187 c 0,-0.451172 -0.05273,-0.732422 -0.152344,-0.84375 -0.140625,-0.155274 -0.345703,-0.234375 -0.609375,-0.234375 h -0.269531 v -0.1875 h 2.90625 c 1.069336,0 1.880859,0.123047 2.4375,0.363281 0.5625,0.243164 1.010742,0.650391 1.347656,1.21875 0.342774,0.5625 0.515625,1.21582 0.515625,1.957031 0,0.993164 -0.304687,1.825196 -0.914062,2.496094 -0.679688,0.744141 -1.710938,1.113281 -3.09375,1.113281 z m 2.039063,-0.515625 c 0.445312,0.09375 0.820312,0.140625 1.125,0.140625 0.811523,0 1.488281,-0.284179 2.027343,-0.855468 0.539063,-0.56836 0.808594,-1.347657 0.808594,-2.332032 0,-0.984375 -0.269531,-1.760742 -0.808594,-2.332031 -0.539062,-0.568359 -1.230468,-0.855469 -2.074218,-0.855469 -0.313477,0 -0.673829,0.05274 -1.078125,0.152344 z"
           transform="matrix(1.3333333,0,0,1.3333333,139.33333,20.133333)"
           id="path49" />
        <path
           style="fill:#000000;fill-opacity:1;fill-rule:nonzero;stroke:none"
           d="m 63.491211,14.343359 c 0.492187,0.111329 0.861328,0.28125 1.113281,0.515625 0.342774,0.322266 0.515625,0.714844 0.515625,1.183594 0,0.351563 -0.114258,0.691406 -0.339844,1.019531 -0.228515,0.328125 -0.536132,0.56836 -0.925781,0.714844 -0.392578,0.149414 -0.993164,0.222656 -1.804687,0.222656 h -3.375 v -0.199218 h 0.269531 c 0.304687,0 0.518555,-0.09375 0.644531,-0.28125 0.08496,-0.123047 0.128906,-0.386719 0.128906,-0.785157 v -4.617187 c 0,-0.445313 -0.05566,-0.726563 -0.164062,-0.84375 -0.134766,-0.155274 -0.336914,-0.234375 -0.609375,-0.234375 h -0.269531 v -0.1875 h 3.09375 c 0.577148,0 1.042968,0.04102 1.394531,0.117187 0.521484,0.134766 0.919922,0.360352 1.195312,0.679688 0.28125,0.322266 0.421875,0.691406 0.421875,1.113281 0,0.351563 -0.111328,0.673828 -0.328125,0.960938 -0.219726,0.28125 -0.539062,0.489257 -0.960937,0.621093 z m -2.765625,-0.28125 c 0.131836,0.02344 0.28125,0.04395 0.445312,0.05859 0.164063,0.0088 0.345704,0.01172 0.550782,0.01172 0.515625,0 0.902343,-0.05273 1.160156,-0.164063 0.257812,-0.108398 0.451172,-0.27539 0.585937,-0.503906 0.140625,-0.225586 0.210938,-0.474609 0.210938,-0.75 0,-0.421875 -0.172852,-0.776367 -0.515625,-1.066406 -0.336914,-0.295899 -0.832031,-0.445313 -1.488281,-0.445313 -0.351563,0 -0.667969,0.04102 -0.949219,0.117188 z m 0,3.421875 c 0.404297,0.09375 0.808594,0.140625 1.207031,0.140625 0.638672,0 1.125,-0.140625 1.453125,-0.421875 0.333985,-0.287109 0.503906,-0.644531 0.503906,-1.066406 0,-0.28125 -0.0791,-0.550781 -0.234375,-0.808594 -0.149414,-0.257812 -0.395507,-0.457031 -0.738281,-0.597656 -0.336914,-0.146484 -0.755859,-0.222656 -1.253906,-0.222656 -0.219727,0 -0.407227,0.0059 -0.5625,0.01172 -0.158203,0 -0.28125,0.01172 -0.375,0.03516 z"
           transform="matrix(1.3333333,0,0,1.3333333,139.33333,20.133333)"
           id="path48" />
      </g>
      <path
         id="path3"
         d="m 1905.4,1814 c 0,-102.39 -83.01,-185.4 -185.4,-185.4 -102.39,0 -185.4,83.01 -185.4,185.4 0,102.39 83.01,185.4 185.4,185.4 102.39,0 185.4,-83.01 185.4,-185.4 z"
         style="fill:none;stroke:#000000;stroke-width:4.5;stroke-linecap:butt;stroke-linejoin:miter;stroke-miterlimit:10;stroke-dasharray:none;stroke-opacity:1"
         transform="matrix(0.13333333,0,0,-0.13333333,0,292)" />
      <path
         style="fill:#000000;fill-opacity:1;fill-rule:nonzero;stroke:none"
         d="m 62.137695,15.717383 -0.503906,1.382812 h -4.21875 v -0.199218 c 1.242188,-1.13086 2.112305,-2.053711 2.613281,-2.765625 0.506836,-0.717774 0.761719,-1.374024 0.761719,-1.96875 0,-0.451172 -0.140625,-0.823243 -0.421875,-1.113282 -0.275391,-0.295898 -0.603516,-0.445312 -0.984375,-0.445312 -0.351562,0 -0.667969,0.102539 -0.949219,0.304687 -0.28125,0.205078 -0.489257,0.503907 -0.621093,0.902344 h -0.199219 c 0.09375,-0.647461 0.319336,-1.142578 0.679687,-1.488281 0.366211,-0.3515627 0.823243,-0.5273439 1.371094,-0.5273439 0.577149,0 1.057617,0.1875 1.441406,0.5624999 0.389649,0.369141 0.585938,0.805664 0.585938,1.3125 0,0.369141 -0.08203,0.732422 -0.246094,1.089844 -0.266601,0.571289 -0.688476,1.171875 -1.265625,1.804687 -0.875976,0.960938 -1.423828,1.541016 -1.640625,1.734375 h 1.863281 c 0.38086,0 0.647461,-0.01172 0.796875,-0.03516 0.155274,-0.0293 0.292969,-0.08789 0.410157,-0.175781 0.123046,-0.08496 0.234375,-0.210938 0.328125,-0.375 z"
         transform="matrix(1.3333333,0,0,1.3333333,133.33333,32.133333)"
         id="path87" />
    </g>
    <g
       id="g110"
       transform="translate(-55.76943,-1.1133399)">
      <g
         id="g109">
        <path
           style="fill:#000000;fill-opacity:1;fill-rule:nonzero;stroke:none"
           d="m 15.163086,14.003516 c 0.46875,-0.65625 0.972656,-0.984375 1.511719,-0.984375 0.492187,0 0.919922,0.216797 1.289062,0.644531 0.375,0.421875 0.5625,1.001953 0.5625,1.734375 0,0.861328 -0.287109,1.552734 -0.855469,2.074219 -0.486328,0.454101 -1.02832,0.679687 -1.628906,0.679687 -0.28125,0 -0.571289,-0.05273 -0.867187,-0.152344 -0.290039,-0.108398 -0.583008,-0.263671 -0.878907,-0.46875 v -5.003906 c 0,-0.544922 -0.01758,-0.881836 -0.04687,-1.007812 -0.02344,-0.123047 -0.06738,-0.210938 -0.128906,-0.257813 -0.05566,-0.04687 -0.123047,-0.07031 -0.199219,-0.07031 -0.102539,0 -0.228515,0.0293 -0.375,0.08203 l -0.07031,-0.1875 1.453125,-0.585938 h 0.234375 z m 0,0.339843 v 2.882813 c 0.178711,0.181641 0.363281,0.316406 0.550781,0.410156 0.19336,0.08789 0.392578,0.128906 0.597656,0.128906 0.310547,0 0.603516,-0.175781 0.878907,-0.527343 0.28125,-0.351563 0.421875,-0.861328 0.421875,-1.535157 0,-0.624023 -0.140625,-1.101562 -0.421875,-1.429687 -0.275391,-0.333984 -0.585938,-0.503906 -0.9375,-0.503906 -0.181641,0 -0.363282,0.05273 -0.550782,0.152343 -0.140625,0.07031 -0.322265,0.210938 -0.539062,0.421875 z"
           transform="matrix(1.3333333,0,0,1.3333333,139.33333,20.133333)"
           id="path47" />
        <path
           style="fill:#000000;fill-opacity:1;fill-rule:nonzero;stroke:none"
           d="m 11.161133,6.5386719 v -0.1875 h 2.53125 v 0.1875 h -0.269531 c -0.28125,0 -0.498047,0.1171875 -0.644532,0.3515625 -0.0791,0.1113281 -0.117187,0.3632812 -0.117187,0.7617187 v 2.9062499 c 0,0.720703 -0.07031,1.277344 -0.210938,1.675781 -0.140625,0.392579 -0.421875,0.726563 -0.84375,1.007813 -0.416015,0.28125 -0.981445,0.421875 -1.6992184,0.421875 -0.7822266,0 -1.3769532,-0.134766 -1.78125,-0.398438 C 7.7275391,12.992773 7.4404297,12.629492 7.2705078,12.175391 7.1591797,11.856055 7.1064453,11.267188 7.1064453,10.405859 V 7.6167969 c 0,-0.4453125 -0.064453,-0.7324219 -0.1875,-0.8671875 C 6.8017578,6.6089844 6.6054688,6.5386719 6.3330078,6.5386719 H 6.0634766 v -0.1875 h 3.09375 v 0.1875 h -0.28125 c -0.2900391,0 -0.5009766,0.09375 -0.6328125,0.28125 C 8.1552734,6.9458984 8.1142578,7.2125 8.1142578,7.6167969 v 3.1171871 c 0,0.275391 0.023437,0.591797 0.070312,0.949219 0.052734,0.360352 0.1464844,0.641602 0.28125,0.84375 0.131836,0.196289 0.3222656,0.360352 0.5742188,0.492188 0.2578125,0.134765 0.5683593,0.199218 0.9375,0.199218 0.4599614,0 0.8730474,-0.09961 1.2421884,-0.304687 0.375,-0.210938 0.626953,-0.47168 0.761718,-0.785156 0.140625,-0.319336 0.210938,-0.858399 0.210938,-1.617188 V 7.6167969 c 0,-0.4511719 -0.05274,-0.7324219 -0.152344,-0.84375 -0.140625,-0.1552735 -0.345703,-0.234375 -0.609375,-0.234375 z"
           transform="matrix(1.3333333,0,0,1.3333333,139.33333,20.133333)"
           id="path45" />
        <path
           style="fill:#000000;fill-opacity:1;fill-rule:nonzero;stroke:none"
           d="m 2.2138672,6.7378906 v 2.8125 h 1.3007812 c 0.2958985,0 0.515625,-0.064453 0.65625,-0.1992187 0.140625,-0.131836 0.234375,-0.3925781 0.28125,-0.7851563 h 0.1875 v 2.4257814 h -0.1875 C 4.4433594,10.710547 4.4052734,10.508398 4.3349609,10.382422 4.2705078,10.250586 4.1767578,10.153906 4.0537109,10.089453 3.9277344,10.019141 3.7490234,9.9839844 3.5146484,9.9839844 H 2.2138672 v 2.2499996 c 0,0.360352 0.017578,0.597657 0.058594,0.714844 0.038086,0.08789 0.1113282,0.164063 0.2226563,0.234375 0.1552734,0.0791 0.3193359,0.117188 0.4921875,0.117188 h 0.2578125 v 0.199218 H 0.17480469 v -0.199218 h 0.24609375 c 0.29589844,0 0.50976562,-0.08496 0.64453126,-0.257813 0.084961,-0.108398 0.1289062,-0.37793 0.1289062,-0.808594 V 7.6167969 c 0,-0.366211 -0.023437,-0.609375 -0.070312,-0.7265625 C 1.0917969,6.8052734 1.0214844,6.7320313 0.91308594,6.6675781 0.76367188,6.5826172 0.59960938,6.5386719 0.42089844,6.5386719 H 0.17480469 v -0.1875 H 5.4951172 l 0.070312,1.5703125 h -0.1875 C 5.2841797,7.5875 5.1728516,7.3414063 5.0498047,7.1832031 4.9326172,7.0279297 4.7832031,6.9136719 4.6044922,6.8433594 4.4316406,6.7730469 4.1591797,6.7378906 3.7841797,6.7378906 Z"
           transform="matrix(1.3333333,0,0,1.3333333,139.33333,20.133333)"
           id="path44" />
      </g>
      <g
         id="g108">
        <path
           style="fill:#000000;fill-opacity:1;fill-rule:nonzero;stroke:none"
           d="m 16.569336,3.8082031 c -0.492188,0.3837891 -0.802734,0.6035157 -0.925781,0.65625 -0.196289,0.09375 -0.398438,0.140625 -0.609375,0.140625 -0.336914,0 -0.615235,-0.1113281 -0.832032,-0.3398437 -0.210937,-0.234375 -0.316406,-0.5390625 -0.316406,-0.9140625 0,-0.234375 0.0498,-0.4365235 0.152344,-0.609375 0.146484,-0.2402344 0.398437,-0.46875 0.75,-0.6796875 0.357422,-0.2109375 0.952148,-0.4628906 1.78125,-0.7617188 v -0.1875 c 0,-0.48339841 -0.0791,-0.8144531 -0.234375,-0.99609372 -0.149414,-0.17871094 -0.369141,-0.26953125 -0.65625,-0.26953125 -0.219727,0 -0.395508,0.05859375 -0.527344,0.17578125 -0.134765,0.12597656 -0.199219,0.26367187 -0.199219,0.41015625 l 0.01172,0.3046875 c 0,0.1640625 -0.04395,0.29296877 -0.128906,0.38671877 -0.0791,0.087891 -0.1875,0.1289062 -0.328125,0.1289062 -0.125977,0 -0.231445,-0.046875 -0.316406,-0.140625 -0.0791,-0.09375 -0.117188,-0.21679685 -0.117188,-0.37499997 0,-0.3046875 0.152344,-0.58007813 0.457031,-0.83203125 0.310547,-0.2578125 0.744141,-0.38671875 1.300782,-0.38671875 0.427734,0 0.779297,0.0761719 1.054687,0.22265625 0.210938,0.11132812 0.366211,0.28125 0.46875,0.515625 0.06152,0.14941406 0.09375,0.45703125 0.09375,0.92578122 v 1.640625 c 0,0.4628907 0.0059,0.7441407 0.02344,0.84375 0.01465,0.1025391 0.04102,0.1728516 0.08203,0.2109375 0.04687,0.032227 0.09375,0.046875 0.140625,0.046875 0.06152,0 0.111328,-0.011719 0.152344,-0.035156 0.07031,-0.046875 0.210937,-0.1757813 0.421875,-0.3867188 v 0.3046875 c -0.392578,0.5244141 -0.767578,0.7851563 -1.125,0.7851563 -0.172852,0 -0.310547,-0.058594 -0.410157,-0.1757813 -0.102539,-0.1230468 -0.158203,-0.328125 -0.164062,-0.609375 z m 0,-0.3515625 V 1.6167969 c -0.533203,0.2109375 -0.873047,0.3603515 -1.019531,0.4453125 -0.28125,0.1582031 -0.486328,0.3222656 -0.609375,0.4921875 -0.117188,0.1640625 -0.175782,0.3486328 -0.175782,0.5507812 0,0.2578125 0.07324,0.46875 0.222657,0.6328125 0.155273,0.1640625 0.331054,0.2460938 0.527343,0.2460938 0.272461,0 0.624024,-0.1757813 1.054688,-0.5273438 z"
           transform="matrix(1.3333333,0,0,1.3333333,139.33333,20.133333)"
           id="path46" />
        <path
           style="fill:#000000;fill-opacity:1;fill-rule:nonzero;stroke:none"
           d="M 6.1923828,-3.90625e-4 V -0.19960937 h 0.2695313 c 0.2958984,0 0.5097656,-0.09375 0.6445312,-0.28125 0.076172,-0.1171875 0.1171875,-0.37792969 0.1171875,-0.78515623 v -4.6171875 c 0,-0.4511719 -0.052734,-0.7324219 -0.1523437,-0.84375 -0.140625,-0.1552735 -0.3457032,-0.234375 -0.609375,-0.234375 H 6.1923828 v -0.1875 h 2.90625 c 1.0693362,0 1.8808592,0.1230469 2.4375002,0.3632812 0.5625,0.2431641 1.010742,0.6503907 1.347656,1.21875 0.342774,0.5625 0.515625,1.2158203 0.515625,1.9570313 0,0.993164 -0.304687,1.8251953 -0.914062,2.4960937 -0.679688,0.74414065 -1.710938,1.113281275 -3.0937504,1.113281275 z M 8.2314453,-0.51601562 c 0.4453125,0.09375 0.8203125,0.140625 1.125,0.140625 0.8115237,0 1.4882817,-0.28417969 2.0273437,-0.85546878 0.539063,-0.5683593 0.808594,-1.3476562 0.808594,-2.3320312 0,-0.984375 -0.269531,-1.7607422 -0.808594,-2.3320313 -0.539062,-0.5683593 -1.230469,-0.8554687 -2.0742187,-0.8554687 -0.3134765,0 -0.6738281,0.052734 -1.078125,0.1523437 z"
           transform="matrix(1.3333333,0,0,1.3333333,139.33333,20.133333)"
           id="path43" />
        <path
           style="fill:#000000;fill-opacity:1;fill-rule:nonzero;stroke:none"
           d="m 2.2138672,-6.7621094 v 2.8125 h 1.3007812 c 0.2958985,0 0.515625,-0.064453 0.65625,-0.1992187 0.140625,-0.131836 0.234375,-0.3925781 0.28125,-0.7851563 h 0.1875 v 2.4257813 h -0.1875 c -0.00879,-0.28125 -0.046875,-0.4833985 -0.1171875,-0.609375 -0.064453,-0.131836 -0.1582031,-0.2285156 -0.28125,-0.2929688 C 3.9277344,-3.4808594 3.7490234,-3.5160156 3.5146484,-3.5160156 H 2.2138672 v 2.25 c 0,0.36035154 0.017578,0.59765623 0.058594,0.71484373 0.038086,0.0878906 0.1113282,0.1640625 0.2226563,0.234375 0.1552734,0.0791016 0.3193359,0.1171875 0.4921875,0.1171875 H 3.2451172 V -3.90625e-4 H 0.17480469 V -0.19960937 h 0.24609375 c 0.29589844,0 0.50976562,-0.0849609 0.64453126,-0.2578125 0.084961,-0.10839844 0.1289062,-0.37792969 0.1289062,-0.80859373 v -4.6171875 c 0,-0.366211 -0.023437,-0.609375 -0.070312,-0.7265625 -0.032226,-0.084961 -0.102539,-0.1582031 -0.21093746,-0.2226563 -0.14941406,-0.084961 -0.31347656,-0.1289062 -0.4921875,-0.1289062 H 0.17480469 v -0.1875 H 5.4951172 l 0.070312,1.5703125 h -0.1875 C 5.2841797,-5.9125 5.1728516,-6.1585937 5.0498047,-6.3167969 4.9326172,-6.4720703 4.7832031,-6.5863281 4.6044922,-6.6566406 4.4316406,-6.7269531 4.1591797,-6.7621094 3.7841797,-6.7621094 Z"
           transform="matrix(1.3333333,0,0,1.3333333,139.33333,20.133333)"
           id="path1" />
      </g>
      <path
         id="path2"
         d="m 1320.4,1994 c 0,-102.39 -83.01,-185.4 -185.4,-185.4 -102.39,0 -185.398,83.01 -185.398,185.4 0,102.39 83.008,185.4 185.398,185.4 102.39,0 185.4,-83.01 185.4,-185.4 z"
         style="fill:none;stroke:#000000;stroke-width:4.5;stroke-linecap:butt;stroke-linejoin:miter;stroke-miterlimit:10;stroke-dasharray:none;stroke-opacity:1"
         transform="matrix(0.13333333,0,0,-0.13333333,0,292)" />
      <path
         style="fill:#000000;fill-opacity:1;fill-rule:nonzero;stroke:none"
         d="m 1.2646484,-6.4574219 1.7460938,-0.84375 h 0.1640625 v 6.0351563 c 0,0.40722654 0.014648,0.66210935 0.046875,0.76171873 0.038086,0.09375 0.1083984,0.16992187 0.2109375,0.22265625 0.1083984,0.046875 0.3222656,0.0761719 0.6445312,0.0820313 V -3.90625e-4 H 1.3935547 V -0.19960937 c 0.3339844,-0.005859 0.5507812,-0.0351563 0.6445312,-0.0820313 0.099609,-0.0527344 0.1699219,-0.12304688 0.2109375,-0.2109375 0.038086,-0.0849609 0.058594,-0.34277344 0.058594,-0.77343743 v -3.8554689 c 0,-0.5214843 -0.017578,-0.8583984 -0.046875,-1.0078125 -0.023437,-0.1083984 -0.070312,-0.1904297 -0.140625,-0.2460937 -0.064453,-0.052734 -0.140625,-0.082031 -0.234375,-0.082031 -0.1259766,0 -0.3046875,0.055664 -0.5390625,0.1640625 z"
         transform="matrix(1.3333333,0,0,1.3333333,133.33333,32.133333)"
         id="path42" />
    </g>
    <path
       style="opacity:1;fill:none;stroke:#000000;stroke-width:0.6;stroke-dasharray:none;marker-end:url(#ArrowWideRounded)"
       d="m 25.019791,67.55667 c 0,-14.17889 0,-28.35778 7.637549,-35.447225 C 40.294888,25.02 55.569375,25.02 70.844167,25.02"
       id="path127"
       inkscape:path-effect="#path-effect127"
       inkscape:original-d="m 25.019791,67.55667 c 0,-14.17889 0,-28.35778 0,-42.53667 15.275097,0 30.549584,0 45.824376,0" />
    <path
       style="opacity:1;fill:none;stroke:#000000;stroke-width:0.6;stroke-dasharray:none;marker-end:url(#ArrowWideRounded)"
       d="m 120.2839,25.02 c 23.27575,0 46.55151,-1e-6 69.82727,-1e-6"
       id="path129"
       inkscape:path-effect="#path-effect129"
       inkscape:original-d="m 120.2839,25.02 c 23.27575,0 46.55151,0 69.82727,-1e-6" />
    <path
       style="opacity:1;fill:none;stroke:#000000;stroke-width:0.6;stroke-dasharray:none;marker-end:url(#ArrowWideRounded)"
       d="m 239.55116,25.019999 c 13.14295,0 26.28589,1e-6 32.85737,7.089587 6.57147,7.089587 6.57147,21.268192 6.57147,35.447081"
       id="path130"
       inkscape:path-effect="#path-effect130"
       inkscape:original-d="m 239.55116,25.019999 c 13.14295,1e-6 26.28589,1e-6 39.42884,1e-6 0,14.179173 0,28.357778 0,42.536667" />
    <path
       style="opacity:1;fill:none;stroke:#000000;stroke-width:0.6;stroke-dasharray:none;marker-end:url(#ArrowWideRounded)"
       d="m 278.98,116.99667 c 0,20.64544 0,41.29089 0,61.93633"
       id="path131"
       inkscape:path-effect="#path-effect131"
       inkscape:original-d="m 278.98,116.99667 c 0,20.64544 0,41.29089 0,61.93633" />
    <path
       style="opacity:1;fill:none;stroke:#000000;stroke-width:0.6;stroke-dasharray:none;marker-end:url(#ArrowWideRounded)"
       d="m 278.98,228.37313 c 0,12.92606 0,25.85212 -6.57161,32.31381 -6.5716,6.46169 -19.71428,6.45903 -32.85722,6.45636"
       id="path132"
       inkscape:path-effect="#path-effect132"
       inkscape:original-d="m 278.98,228.37313 c 0,12.92606 0,25.85212 0,38.77817 -13.14321,-0.003 -26.28589,-0.005 -39.42883,-0.008" />
    <path
       style="opacity:1;fill:none;stroke:#000000;stroke-width:0.6;stroke-dasharray:none;marker-end:url(#ArrowWideRounded)"
       d="m 190.11117,267.14313 c -69.82754,0.008 -69.82754,0.008 -69.82754,0.008"
       id="path133" />
    <path
       style="opacity:1;fill:none;stroke:#000000;stroke-width:0.6;stroke-dasharray:none;marker-end:url(#ArrowWideRounded)"
       d="m 70.844167,267.1513 c -45.824376,0 -45.824435,-38.77883 -45.824435,-38.77883"
       id="path134" />
    <path
       style="opacity:1;fill:none;stroke:#000000;stroke-width:0.6;stroke-dasharray:none;marker-end:url(#ArrowWideRounded)"
       d="m 25.019732,178.933 c 5.9e-5,-61.93634 5.9e-5,-61.93634 5.9e-5,-61.93634"
       id="path135" />
  </g>
</svg>
